<?xml version="1.0" encoding="utf-8"?>
<svg xmlns="http://www.w3.org/2000/svg" xmlns:xlink="http://www.w3.org/1999/xlink" width="576" height="384" viewBox="0 0 2304 1536">
<defs>
  <clipPath id="clip370">
    <rect x="0" y="0" width="2304" height="1536"/>
  </clipPath>
</defs>
<path clip-path="url(#clip370)" d="
M0 1536 L2304 1536 L2304 0 L0 0  Z
  " fill="#ffffff" fill-rule="evenodd" fill-opacity="1"/>
<defs>
  <clipPath id="clip371">
    <rect x="460" y="0" width="1614" height="1536"/>
  </clipPath>
</defs>
<path clip-path="url(#clip370)" d="
M309.369 1359.82 L2256.76 1359.82 L2256.76 47.2441 L309.369 47.2441  Z
  " fill="#ffffff" fill-rule="evenodd" fill-opacity="1"/>
<defs>
  <clipPath id="clip372">
    <rect x="309" y="47" width="1948" height="1314"/>
  </clipPath>
</defs>
<polyline clip-path="url(#clip372)" style="stroke:#000000; stroke-width:2; stroke-opacity:0.1; fill:none" points="
  434.326,1359.82 434.326,47.2441 
  "/>
<polyline clip-path="url(#clip372)" style="stroke:#000000; stroke-width:2; stroke-opacity:0.1; fill:none" points="
  992.343,1359.82 992.343,47.2441 
  "/>
<polyline clip-path="url(#clip372)" style="stroke:#000000; stroke-width:2; stroke-opacity:0.1; fill:none" points="
  1550.36,1359.82 1550.36,47.2441 
  "/>
<polyline clip-path="url(#clip372)" style="stroke:#000000; stroke-width:2; stroke-opacity:0.1; fill:none" points="
  2108.38,1359.82 2108.38,47.2441 
  "/>
<polyline clip-path="url(#clip372)" style="stroke:#000000; stroke-width:2; stroke-opacity:0.1; fill:none" points="
  309.369,1295.56 2256.76,1295.56 
  "/>
<polyline clip-path="url(#clip372)" style="stroke:#000000; stroke-width:2; stroke-opacity:0.1; fill:none" points="
  309.369,1057.76 2256.76,1057.76 
  "/>
<polyline clip-path="url(#clip372)" style="stroke:#000000; stroke-width:2; stroke-opacity:0.1; fill:none" points="
  309.369,819.968 2256.76,819.968 
  "/>
<polyline clip-path="url(#clip372)" style="stroke:#000000; stroke-width:2; stroke-opacity:0.1; fill:none" points="
  309.369,582.172 2256.76,582.172 
  "/>
<polyline clip-path="url(#clip372)" style="stroke:#000000; stroke-width:2; stroke-opacity:0.1; fill:none" points="
  309.369,344.377 2256.76,344.377 
  "/>
<polyline clip-path="url(#clip372)" style="stroke:#000000; stroke-width:2; stroke-opacity:0.1; fill:none" points="
  309.369,106.581 2256.76,106.581 
  "/>
<polyline clip-path="url(#clip370)" style="stroke:#000000; stroke-width:4; stroke-opacity:1; fill:none" points="
  309.369,1359.82 2256.76,1359.82 
  "/>
<polyline clip-path="url(#clip370)" style="stroke:#000000; stroke-width:4; stroke-opacity:1; fill:none" points="
  309.369,1359.82 309.369,47.2441 
  "/>
<polyline clip-path="url(#clip370)" style="stroke:#000000; stroke-width:4; stroke-opacity:1; fill:none" points="
  434.326,1359.82 434.326,1344.07 
  "/>
<polyline clip-path="url(#clip370)" style="stroke:#000000; stroke-width:4; stroke-opacity:1; fill:none" points="
  992.343,1359.82 992.343,1344.07 
  "/>
<polyline clip-path="url(#clip370)" style="stroke:#000000; stroke-width:4; stroke-opacity:1; fill:none" points="
  1550.36,1359.82 1550.36,1344.07 
  "/>
<polyline clip-path="url(#clip370)" style="stroke:#000000; stroke-width:4; stroke-opacity:1; fill:none" points="
  2108.38,1359.82 2108.38,1344.07 
  "/>
<polyline clip-path="url(#clip370)" style="stroke:#000000; stroke-width:4; stroke-opacity:1; fill:none" points="
  309.369,1295.56 332.737,1295.56 
  "/>
<polyline clip-path="url(#clip370)" style="stroke:#000000; stroke-width:4; stroke-opacity:1; fill:none" points="
  309.369,1057.76 332.737,1057.76 
  "/>
<polyline clip-path="url(#clip370)" style="stroke:#000000; stroke-width:4; stroke-opacity:1; fill:none" points="
  309.369,819.968 332.737,819.968 
  "/>
<polyline clip-path="url(#clip370)" style="stroke:#000000; stroke-width:4; stroke-opacity:1; fill:none" points="
  309.369,582.172 332.737,582.172 
  "/>
<polyline clip-path="url(#clip370)" style="stroke:#000000; stroke-width:4; stroke-opacity:1; fill:none" points="
  309.369,344.377 332.737,344.377 
  "/>
<polyline clip-path="url(#clip370)" style="stroke:#000000; stroke-width:4; stroke-opacity:1; fill:none" points="
  309.369,106.581 332.737,106.581 
  "/>
<path clip-path="url(#clip370)" d="M 0 0 M388.914 1430.41 L396.553 1430.41 L396.553 1404.05 L388.242 1405.71 L388.242 1401.45 L396.506 1399.79 L401.182 1399.79 L401.182 1430.41 L408.821 1430.41 L408.821 1434.35 L388.914 1434.35 L388.914 1430.41 Z" fill="#000000" fill-rule="evenodd" fill-opacity="1" /><path clip-path="url(#clip370)" d="M 0 0 M423.89 1402.87 Q420.279 1402.87 418.451 1406.43 Q416.645 1409.97 416.645 1417.1 Q416.645 1424.21 418.451 1427.77 Q420.279 1431.31 423.89 1431.31 Q427.525 1431.31 429.33 1427.77 Q431.159 1424.21 431.159 1417.1 Q431.159 1409.97 429.33 1406.43 Q427.525 1402.87 423.89 1402.87 M423.89 1399.16 Q429.7 1399.16 432.756 1403.77 Q435.835 1408.35 435.835 1417.1 Q435.835 1425.83 432.756 1430.44 Q429.7 1435.02 423.89 1435.02 Q418.08 1435.02 415.002 1430.44 Q411.946 1425.83 411.946 1417.1 Q411.946 1408.35 415.002 1403.77 Q418.08 1399.16 423.89 1399.16 Z" fill="#000000" fill-rule="evenodd" fill-opacity="1" /><path clip-path="url(#clip370)" d="M 0 0 M435.835 1394.84 L445.972 1394.84 L445.972 1397.93 L435.835 1397.93 L435.835 1394.84 Z" fill="#000000" fill-rule="evenodd" fill-opacity="1" /><path clip-path="url(#clip370)" d="M 0 0 M472.623 1382.17 L463.031 1397.16 L472.623 1397.16 L472.623 1382.17 M471.626 1378.86 L476.403 1378.86 L476.403 1397.16 L480.409 1397.16 L480.409 1400.32 L476.403 1400.32 L476.403 1406.94 L472.623 1406.94 L472.623 1400.32 L459.946 1400.32 L459.946 1396.65 L471.626 1378.86 Z" fill="#000000" fill-rule="evenodd" fill-opacity="1" /><path clip-path="url(#clip370)" d="M 0 0 M947.918 1430.41 L955.557 1430.41 L955.557 1404.05 L947.247 1405.71 L947.247 1401.45 L955.511 1399.79 L960.187 1399.79 L960.187 1430.41 L967.825 1430.41 L967.825 1434.35 L947.918 1434.35 L947.918 1430.41 Z" fill="#000000" fill-rule="evenodd" fill-opacity="1" /><path clip-path="url(#clip370)" d="M 0 0 M982.895 1402.87 Q979.284 1402.87 977.455 1406.43 Q975.649 1409.97 975.649 1417.1 Q975.649 1424.21 977.455 1427.77 Q979.284 1431.31 982.895 1431.31 Q986.529 1431.31 988.335 1427.77 Q990.163 1424.21 990.163 1417.1 Q990.163 1409.97 988.335 1406.43 Q986.529 1402.87 982.895 1402.87 M982.895 1399.16 Q988.705 1399.16 991.76 1403.77 Q994.839 1408.35 994.839 1417.1 Q994.839 1425.83 991.76 1430.44 Q988.705 1435.02 982.895 1435.02 Q977.085 1435.02 974.006 1430.44 Q970.95 1425.83 970.95 1417.1 Q970.95 1408.35 974.006 1403.77 Q977.085 1399.16 982.895 1399.16 Z" fill="#000000" fill-rule="evenodd" fill-opacity="1" /><path clip-path="url(#clip370)" d="M 0 0 M994.839 1394.84 L1004.98 1394.84 L1004.98 1397.93 L994.839 1397.93 L994.839 1394.84 Z" fill="#000000" fill-rule="evenodd" fill-opacity="1" /><path clip-path="url(#clip370)" d="M 0 0 M1031.65 1391.8 Q1034.37 1392.38 1035.9 1394.22 Q1037.44 1396.07 1037.44 1398.77 Q1037.44 1402.93 1034.58 1405.21 Q1031.72 1407.48 1026.46 1407.48 Q1024.69 1407.48 1022.81 1407.12 Q1020.94 1406.79 1018.95 1406.09 L1018.95 1402.42 Q1020.53 1403.34 1022.41 1403.81 Q1024.29 1404.28 1026.34 1404.28 Q1029.92 1404.28 1031.78 1402.87 Q1033.66 1401.46 1033.66 1398.77 Q1033.66 1396.29 1031.91 1394.9 Q1030.18 1393.49 1027.08 1393.49 L1023.8 1393.49 L1023.8 1390.37 L1027.23 1390.37 Q1030.03 1390.37 1031.51 1389.26 Q1033 1388.13 1033 1386.02 Q1033 1383.86 1031.46 1382.71 Q1029.93 1381.55 1027.08 1381.55 Q1025.51 1381.55 1023.73 1381.88 Q1021.94 1382.22 1019.8 1382.94 L1019.8 1379.55 Q1021.96 1378.95 1023.84 1378.65 Q1025.74 1378.35 1027.41 1378.35 Q1031.74 1378.35 1034.26 1380.32 Q1036.78 1382.28 1036.78 1385.63 Q1036.78 1387.96 1035.45 1389.58 Q1034.11 1391.18 1031.65 1391.8 Z" fill="#000000" fill-rule="evenodd" fill-opacity="1" /><path clip-path="url(#clip370)" d="M 0 0 M1506.26 1430.41 L1513.9 1430.41 L1513.9 1404.05 L1505.59 1405.71 L1505.59 1401.45 L1513.86 1399.79 L1518.53 1399.79 L1518.53 1430.41 L1526.17 1430.41 L1526.17 1434.35 L1506.26 1434.35 L1506.26 1430.41 Z" fill="#000000" fill-rule="evenodd" fill-opacity="1" /><path clip-path="url(#clip370)" d="M 0 0 M1541.24 1402.87 Q1537.63 1402.87 1535.8 1406.43 Q1534 1409.97 1534 1417.1 Q1534 1424.21 1535.8 1427.77 Q1537.63 1431.31 1541.24 1431.31 Q1544.88 1431.31 1546.68 1427.77 Q1548.51 1424.21 1548.51 1417.1 Q1548.51 1409.97 1546.68 1406.43 Q1544.88 1402.87 1541.24 1402.87 M1541.24 1399.16 Q1547.05 1399.16 1550.11 1403.77 Q1553.19 1408.35 1553.19 1417.1 Q1553.19 1425.83 1550.11 1430.44 Q1547.05 1435.02 1541.24 1435.02 Q1535.43 1435.02 1532.35 1430.44 Q1529.3 1425.83 1529.3 1417.1 Q1529.3 1408.35 1532.35 1403.77 Q1535.43 1399.16 1541.24 1399.16 Z" fill="#000000" fill-rule="evenodd" fill-opacity="1" /><path clip-path="url(#clip370)" d="M 0 0 M1553.19 1394.84 L1563.32 1394.84 L1563.32 1397.93 L1553.19 1397.93 L1553.19 1394.84 Z" fill="#000000" fill-rule="evenodd" fill-opacity="1" /><path clip-path="url(#clip370)" d="M 0 0 M1581.87 1403.74 L1595.13 1403.74 L1595.13 1406.94 L1577.3 1406.94 L1577.3 1403.74 Q1579.46 1401.5 1583.18 1397.74 Q1586.93 1393.96 1587.89 1392.87 Q1589.71 1390.82 1590.42 1389.41 Q1591.16 1387.98 1591.16 1386.61 Q1591.16 1384.37 1589.58 1382.96 Q1588.02 1381.55 1585.5 1381.55 Q1583.71 1381.55 1581.72 1382.17 Q1579.74 1382.79 1577.48 1384.05 L1577.48 1380.21 Q1579.78 1379.29 1581.77 1378.82 Q1583.77 1378.35 1585.42 1378.35 Q1589.79 1378.35 1592.38 1380.53 Q1594.98 1382.71 1594.98 1386.36 Q1594.98 1388.09 1594.32 1389.65 Q1593.68 1391.19 1591.97 1393.3 Q1591.5 1393.85 1588.98 1396.46 Q1586.46 1399.06 1581.87 1403.74 Z" fill="#000000" fill-rule="evenodd" fill-opacity="1" /><path clip-path="url(#clip370)" d="M 0 0 M2064.84 1430.41 L2072.47 1430.41 L2072.47 1404.05 L2064.16 1405.71 L2064.16 1401.45 L2072.43 1399.79 L2077.1 1399.79 L2077.1 1430.41 L2084.74 1430.41 L2084.74 1434.35 L2064.84 1434.35 L2064.84 1430.41 Z" fill="#000000" fill-rule="evenodd" fill-opacity="1" /><path clip-path="url(#clip370)" d="M 0 0 M2099.81 1402.87 Q2096.2 1402.87 2094.37 1406.43 Q2092.57 1409.97 2092.57 1417.1 Q2092.57 1424.21 2094.37 1427.77 Q2096.2 1431.31 2099.81 1431.31 Q2103.45 1431.31 2105.25 1427.77 Q2107.08 1424.21 2107.08 1417.1 Q2107.08 1409.97 2105.25 1406.43 Q2103.45 1402.87 2099.81 1402.87 M2099.81 1399.16 Q2105.62 1399.16 2108.68 1403.77 Q2111.76 1408.35 2111.76 1417.1 Q2111.76 1425.83 2108.68 1430.44 Q2105.62 1435.02 2099.81 1435.02 Q2094 1435.02 2090.92 1430.44 Q2087.87 1425.83 2087.87 1417.1 Q2087.87 1408.35 2090.92 1403.77 Q2094 1399.16 2099.81 1399.16 Z" fill="#000000" fill-rule="evenodd" fill-opacity="1" /><path clip-path="url(#clip370)" d="M 0 0 M2111.76 1394.84 L2121.89 1394.84 L2121.89 1397.93 L2111.76 1397.93 L2111.76 1394.84 Z" fill="#000000" fill-rule="evenodd" fill-opacity="1" /><path clip-path="url(#clip370)" d="M 0 0 M2136.41 1403.74 L2142.62 1403.74 L2142.62 1382.32 L2135.87 1383.67 L2135.87 1380.21 L2142.58 1378.86 L2146.38 1378.86 L2146.38 1403.74 L2152.59 1403.74 L2152.59 1406.94 L2136.41 1406.94 L2136.41 1403.74 Z" fill="#000000" fill-rule="evenodd" fill-opacity="1" /><path clip-path="url(#clip370)" d="M 0 0 M166.659 1315.35 L174.298 1315.35 L174.298 1288.99 L165.988 1290.65 L165.988 1286.39 L174.252 1284.73 L178.928 1284.73 L178.928 1315.35 L186.567 1315.35 L186.567 1319.29 L166.659 1319.29 L166.659 1315.35 Z" fill="#000000" fill-rule="evenodd" fill-opacity="1" /><path clip-path="url(#clip370)" d="M 0 0 M201.636 1287.81 Q198.025 1287.81 196.196 1291.37 Q194.391 1294.91 194.391 1302.04 Q194.391 1309.15 196.196 1312.71 Q198.025 1316.26 201.636 1316.26 Q205.27 1316.26 207.076 1312.71 Q208.904 1309.15 208.904 1302.04 Q208.904 1294.91 207.076 1291.37 Q205.27 1287.81 201.636 1287.81 M201.636 1284.1 Q207.446 1284.1 210.502 1288.71 Q213.58 1293.29 213.58 1302.04 Q213.58 1310.77 210.502 1315.38 Q207.446 1319.96 201.636 1319.96 Q195.826 1319.96 192.747 1315.38 Q189.692 1310.77 189.692 1302.04 Q189.692 1293.29 192.747 1288.71 Q195.826 1284.1 201.636 1284.1 Z" fill="#000000" fill-rule="evenodd" fill-opacity="1" /><path clip-path="url(#clip370)" d="M 0 0 M213.58 1279.78 L223.718 1279.78 L223.718 1282.87 L213.58 1282.87 L213.58 1279.78 Z" fill="#000000" fill-rule="evenodd" fill-opacity="1" /><path clip-path="url(#clip370)" d="M 0 0 M247.397 1266.3 Q244.463 1266.3 242.977 1269.19 Q241.51 1272.07 241.51 1277.87 Q241.51 1283.64 242.977 1286.54 Q244.463 1289.41 247.397 1289.41 Q250.349 1289.41 251.816 1286.54 Q253.302 1283.64 253.302 1277.87 Q253.302 1272.07 251.816 1269.19 Q250.349 1266.3 247.397 1266.3 M247.397 1263.29 Q252.117 1263.29 254.6 1267.03 Q257.101 1270.76 257.101 1277.87 Q257.101 1284.96 254.6 1288.7 Q252.117 1292.42 247.397 1292.42 Q242.676 1292.42 240.174 1288.7 Q237.692 1284.96 237.692 1277.87 Q237.692 1270.76 240.174 1267.03 Q242.676 1263.29 247.397 1263.29 Z" fill="#000000" fill-rule="evenodd" fill-opacity="1" /><path clip-path="url(#clip370)" d="M 0 0 M261.22 1287.1 L265.189 1287.1 L265.189 1291.88 L261.22 1291.88 L261.22 1287.1 Z" fill="#000000" fill-rule="evenodd" fill-opacity="1" /><path clip-path="url(#clip370)" d="M 0 0 M269.345 1263.8 L284.26 1263.8 L284.26 1266.99 L272.825 1266.99 L272.825 1273.88 Q273.652 1273.6 274.48 1273.46 Q275.307 1273.31 276.135 1273.31 Q280.837 1273.31 283.583 1275.89 Q286.329 1278.47 286.329 1282.87 Q286.329 1287.4 283.508 1289.92 Q280.686 1292.42 275.552 1292.42 Q273.784 1292.42 271.941 1292.12 Q270.116 1291.82 268.16 1291.22 L268.16 1287.4 Q269.853 1288.32 271.659 1288.77 Q273.464 1289.23 275.477 1289.23 Q278.73 1289.23 280.63 1287.51 Q282.53 1285.8 282.53 1282.87 Q282.53 1279.93 280.63 1278.22 Q278.73 1276.51 275.477 1276.51 Q273.953 1276.51 272.43 1276.85 Q270.925 1277.19 269.345 1277.9 L269.345 1263.8 Z" fill="#000000" fill-rule="evenodd" fill-opacity="1" /><path clip-path="url(#clip370)" d="M 0 0 M189.962 1077.56 L197.601 1077.56 L197.601 1051.19 L189.291 1052.86 L189.291 1048.6 L197.555 1046.93 L202.231 1046.93 L202.231 1077.56 L209.869 1077.56 L209.869 1081.49 L189.962 1081.49 L189.962 1077.56 Z" fill="#000000" fill-rule="evenodd" fill-opacity="1" /><path clip-path="url(#clip370)" d="M 0 0 M224.939 1050.01 Q221.328 1050.01 219.499 1053.58 Q217.693 1057.12 217.693 1064.25 Q217.693 1071.35 219.499 1074.92 Q221.328 1078.46 224.939 1078.46 Q228.573 1078.46 230.379 1074.92 Q232.207 1071.35 232.207 1064.25 Q232.207 1057.12 230.379 1053.58 Q228.573 1050.01 224.939 1050.01 M224.939 1046.31 Q230.749 1046.31 233.804 1050.91 Q236.883 1055.5 236.883 1064.25 Q236.883 1072.97 233.804 1077.58 Q230.749 1082.16 224.939 1082.16 Q219.129 1082.16 216.05 1077.58 Q212.994 1072.97 212.994 1064.25 Q212.994 1055.5 216.05 1050.91 Q219.129 1046.31 224.939 1046.31 Z" fill="#000000" fill-rule="evenodd" fill-opacity="1" /><path clip-path="url(#clip370)" d="M 0 0 M246.588 1028.5 Q243.654 1028.5 242.168 1031.4 Q240.701 1034.28 240.701 1040.07 Q240.701 1045.84 242.168 1048.74 Q243.654 1051.62 246.588 1051.62 Q249.541 1051.62 251.008 1048.74 Q252.494 1045.84 252.494 1040.07 Q252.494 1034.28 251.008 1031.4 Q249.541 1028.5 246.588 1028.5 M246.588 1025.49 Q251.309 1025.49 253.791 1029.24 Q256.293 1032.96 256.293 1040.07 Q256.293 1047.16 253.791 1050.9 Q251.309 1054.63 246.588 1054.63 Q241.867 1054.63 239.366 1050.9 Q236.883 1047.16 236.883 1040.07 Q236.883 1032.96 239.366 1029.24 Q241.867 1025.49 246.588 1025.49 Z" fill="#000000" fill-rule="evenodd" fill-opacity="1" /><path clip-path="url(#clip370)" d="M 0 0 M260.412 1049.3 L264.38 1049.3 L264.38 1054.08 L260.412 1054.08 L260.412 1049.3 Z" fill="#000000" fill-rule="evenodd" fill-opacity="1" /><path clip-path="url(#clip370)" d="M 0 0 M276.624 1028.5 Q273.69 1028.5 272.204 1031.4 Q270.737 1034.28 270.737 1040.07 Q270.737 1045.84 272.204 1048.74 Q273.69 1051.62 276.624 1051.62 Q279.577 1051.62 281.044 1048.74 Q282.53 1045.84 282.53 1040.07 Q282.53 1034.28 281.044 1031.4 Q279.577 1028.5 276.624 1028.5 M276.624 1025.49 Q281.345 1025.49 283.827 1029.24 Q286.329 1032.96 286.329 1040.07 Q286.329 1047.16 283.827 1050.9 Q281.345 1054.63 276.624 1054.63 Q271.903 1054.63 269.402 1050.9 Q266.919 1047.16 266.919 1040.07 Q266.919 1032.96 269.402 1029.24 Q271.903 1025.49 276.624 1025.49 Z" fill="#000000" fill-rule="evenodd" fill-opacity="1" /><path clip-path="url(#clip370)" d="M 0 0 M190.771 839.761 L198.41 839.761 L198.41 813.395 L190.1 815.062 L190.1 810.802 L198.363 809.136 L203.039 809.136 L203.039 839.761 L210.678 839.761 L210.678 843.696 L190.771 843.696 L190.771 839.761 Z" fill="#000000" fill-rule="evenodd" fill-opacity="1" /><path clip-path="url(#clip370)" d="M 0 0 M225.747 812.215 Q222.136 812.215 220.308 815.779 Q218.502 819.321 218.502 826.451 Q218.502 833.557 220.308 837.122 Q222.136 840.663 225.747 840.663 Q229.382 840.663 231.187 837.122 Q233.016 833.557 233.016 826.451 Q233.016 819.321 231.187 815.779 Q229.382 812.215 225.747 812.215 M225.747 808.511 Q231.558 808.511 234.613 813.117 Q237.692 817.701 237.692 826.451 Q237.692 835.177 234.613 839.784 Q231.558 844.367 225.747 844.367 Q219.937 844.367 216.859 839.784 Q213.803 835.177 213.803 826.451 Q213.803 817.701 216.859 813.117 Q219.937 808.511 225.747 808.511 Z" fill="#000000" fill-rule="evenodd" fill-opacity="1" /><path clip-path="url(#clip370)" d="M 0 0 M247.397 790.707 Q244.463 790.707 242.977 793.603 Q241.51 796.481 241.51 802.274 Q241.51 808.048 242.977 810.944 Q244.463 813.822 247.397 813.822 Q250.349 813.822 251.816 810.944 Q253.302 808.048 253.302 802.274 Q253.302 796.481 251.816 793.603 Q250.349 790.707 247.397 790.707 M247.397 787.698 Q252.117 787.698 254.6 791.44 Q257.101 795.164 257.101 802.274 Q257.101 809.364 254.6 813.107 Q252.117 816.831 247.397 816.831 Q242.676 816.831 240.174 813.107 Q237.692 809.364 237.692 802.274 Q237.692 795.164 240.174 791.44 Q242.676 787.698 247.397 787.698 Z" fill="#000000" fill-rule="evenodd" fill-opacity="1" /><path clip-path="url(#clip370)" d="M 0 0 M261.22 811.508 L265.189 811.508 L265.189 816.285 L261.22 816.285 L261.22 811.508 Z" fill="#000000" fill-rule="evenodd" fill-opacity="1" /><path clip-path="url(#clip370)" d="M 0 0 M269.345 788.205 L284.26 788.205 L284.26 791.403 L272.825 791.403 L272.825 798.286 Q273.652 798.004 274.48 797.873 Q275.307 797.722 276.135 797.722 Q280.837 797.722 283.583 800.299 Q286.329 802.875 286.329 807.277 Q286.329 811.809 283.508 814.329 Q280.686 816.831 275.552 816.831 Q273.784 816.831 271.941 816.53 Q270.116 816.229 268.16 815.627 L268.16 811.809 Q269.853 812.731 271.659 813.182 Q273.464 813.634 275.477 813.634 Q278.73 813.634 280.63 811.922 Q282.53 810.211 282.53 807.277 Q282.53 804.343 280.63 802.631 Q278.73 800.919 275.477 800.919 Q273.953 800.919 272.43 801.258 Q270.925 801.597 269.345 802.311 L269.345 788.205 Z" fill="#000000" fill-rule="evenodd" fill-opacity="1" /><path clip-path="url(#clip370)" d="M 0 0 M192.652 601.965 L200.29 601.965 L200.29 575.599 L191.98 577.266 L191.98 573.007 L200.244 571.34 L204.92 571.34 L204.92 601.965 L212.559 601.965 L212.559 605.9 L192.652 605.9 L192.652 601.965 Z" fill="#000000" fill-rule="evenodd" fill-opacity="1" /><path clip-path="url(#clip370)" d="M 0 0 M227.628 574.419 Q224.017 574.419 222.188 577.983 Q220.383 581.525 220.383 588.655 Q220.383 595.761 222.188 599.326 Q224.017 602.868 227.628 602.868 Q231.262 602.868 233.068 599.326 Q234.897 595.761 234.897 588.655 Q234.897 581.525 233.068 577.983 Q231.262 574.419 227.628 574.419 M227.628 570.715 Q233.438 570.715 236.494 575.321 Q239.573 579.905 239.573 588.655 Q239.573 597.382 236.494 601.988 Q233.438 606.571 227.628 606.571 Q221.818 606.571 218.739 601.988 Q215.684 597.382 215.684 588.655 Q215.684 579.905 218.739 575.321 Q221.818 570.715 227.628 570.715 Z" fill="#000000" fill-rule="evenodd" fill-opacity="1" /><path clip-path="url(#clip370)" d="M 0 0 M240.118 575.292 L246.325 575.292 L246.325 553.87 L239.573 555.224 L239.573 551.764 L246.287 550.41 L250.086 550.41 L250.086 575.292 L256.293 575.292 L256.293 578.49 L240.118 578.49 L240.118 575.292 Z" fill="#000000" fill-rule="evenodd" fill-opacity="1" /><path clip-path="url(#clip370)" d="M 0 0 M260.412 573.712 L264.38 573.712 L264.38 578.49 L260.412 578.49 L260.412 573.712 Z" fill="#000000" fill-rule="evenodd" fill-opacity="1" /><path clip-path="url(#clip370)" d="M 0 0 M276.624 552.911 Q273.69 552.911 272.204 555.807 Q270.737 558.685 270.737 564.478 Q270.737 570.252 272.204 573.148 Q273.69 576.026 276.624 576.026 Q279.577 576.026 281.044 573.148 Q282.53 570.252 282.53 564.478 Q282.53 558.685 281.044 555.807 Q279.577 552.911 276.624 552.911 M276.624 549.902 Q281.345 549.902 283.827 553.645 Q286.329 557.368 286.329 564.478 Q286.329 571.568 283.827 575.311 Q281.345 579.035 276.624 579.035 Q271.903 579.035 269.402 575.311 Q266.919 571.568 266.919 564.478 Q266.919 557.368 269.402 553.645 Q271.903 549.902 276.624 549.902 Z" fill="#000000" fill-rule="evenodd" fill-opacity="1" /><path clip-path="url(#clip370)" d="M 0 0 M193.46 364.169 L201.099 364.169 L201.099 337.803 L192.789 339.47 L192.789 335.211 L201.053 333.544 L205.729 333.544 L205.729 364.169 L213.368 364.169 L213.368 368.104 L193.46 368.104 L193.46 364.169 Z" fill="#000000" fill-rule="evenodd" fill-opacity="1" /><path clip-path="url(#clip370)" d="M 0 0 M228.437 336.623 Q224.826 336.623 222.997 340.188 Q221.192 343.729 221.192 350.859 Q221.192 357.965 222.997 361.53 Q224.826 365.072 228.437 365.072 Q232.071 365.072 233.877 361.53 Q235.705 357.965 235.705 350.859 Q235.705 343.729 233.877 340.188 Q232.071 336.623 228.437 336.623 M228.437 332.919 Q234.247 332.919 237.303 337.526 Q240.381 342.109 240.381 350.859 Q240.381 359.586 237.303 364.192 Q234.247 368.775 228.437 368.775 Q222.627 368.775 219.548 364.192 Q216.493 359.586 216.493 350.859 Q216.493 342.109 219.548 337.526 Q222.627 332.919 228.437 332.919 Z" fill="#000000" fill-rule="evenodd" fill-opacity="1" /><path clip-path="url(#clip370)" d="M 0 0 M240.927 337.496 L247.133 337.496 L247.133 316.074 L240.381 317.429 L240.381 313.968 L247.096 312.614 L250.895 312.614 L250.895 337.496 L257.101 337.496 L257.101 340.694 L240.927 340.694 L240.927 337.496 Z" fill="#000000" fill-rule="evenodd" fill-opacity="1" /><path clip-path="url(#clip370)" d="M 0 0 M261.22 335.917 L265.189 335.917 L265.189 340.694 L261.22 340.694 L261.22 335.917 Z" fill="#000000" fill-rule="evenodd" fill-opacity="1" /><path clip-path="url(#clip370)" d="M 0 0 M269.345 312.614 L284.26 312.614 L284.26 315.811 L272.825 315.811 L272.825 322.695 Q273.652 322.413 274.48 322.281 Q275.307 322.131 276.135 322.131 Q280.837 322.131 283.583 324.707 Q286.329 327.284 286.329 331.685 Q286.329 336.218 283.508 338.738 Q280.686 341.239 275.552 341.239 Q273.784 341.239 271.941 340.938 Q270.116 340.637 268.16 340.036 L268.16 336.218 Q269.853 337.139 271.659 337.591 Q273.464 338.042 275.477 338.042 Q278.73 338.042 280.63 336.33 Q282.53 334.619 282.53 331.685 Q282.53 328.751 280.63 327.039 Q278.73 325.328 275.477 325.328 Q273.953 325.328 272.43 325.666 Q270.925 326.005 269.345 326.72 L269.345 312.614 Z" fill="#000000" fill-rule="evenodd" fill-opacity="1" /><path clip-path="url(#clip370)" d="M 0 0 M191.542 126.373 L199.181 126.373 L199.181 100.008 L190.871 101.674 L190.871 97.415 L199.134 95.7484 L203.81 95.7484 L203.81 126.373 L211.449 126.373 L211.449 130.308 L191.542 130.308 L191.542 126.373 Z" fill="#000000" fill-rule="evenodd" fill-opacity="1" /><path clip-path="url(#clip370)" d="M 0 0 M226.519 98.8271 Q222.907 98.8271 221.079 102.392 Q219.273 105.934 219.273 113.063 Q219.273 120.17 221.079 123.734 Q222.907 127.276 226.519 127.276 Q230.153 127.276 231.958 123.734 Q233.787 120.17 233.787 113.063 Q233.787 105.934 231.958 102.392 Q230.153 98.8271 226.519 98.8271 M226.519 95.1234 Q232.329 95.1234 235.384 99.7298 Q238.463 104.313 238.463 113.063 Q238.463 121.79 235.384 126.396 Q232.329 130.98 226.519 130.98 Q220.708 130.98 217.63 126.396 Q214.574 121.79 214.574 113.063 Q214.574 104.313 217.63 99.7298 Q220.708 95.1234 226.519 95.1234 Z" fill="#000000" fill-rule="evenodd" fill-opacity="1" /><path clip-path="url(#clip370)" d="M 0 0 M243.033 99.7006 L256.293 99.7006 L256.293 102.898 L238.463 102.898 L238.463 99.7006 Q240.626 97.4625 244.35 93.701 Q248.093 89.9206 249.052 88.8298 Q250.876 86.7797 251.591 85.3691 Q252.324 83.9397 252.324 82.5668 Q252.324 80.3286 250.744 78.9181 Q249.183 77.5075 246.663 77.5075 Q244.876 77.5075 242.883 78.1281 Q240.908 78.7488 238.651 80.0089 L238.651 76.1721 Q240.946 75.2505 242.939 74.7804 Q244.933 74.3102 246.588 74.3102 Q250.951 74.3102 253.547 76.4919 Q256.142 78.6736 256.142 82.3223 Q256.142 84.0526 255.484 85.6136 Q254.845 87.1559 253.133 89.2623 Q252.663 89.8078 250.143 92.422 Q247.622 95.0175 243.033 99.7006 Z" fill="#000000" fill-rule="evenodd" fill-opacity="1" /><path clip-path="url(#clip370)" d="M 0 0 M260.412 98.1208 L264.38 98.1208 L264.38 102.898 L260.412 102.898 L260.412 98.1208 Z" fill="#000000" fill-rule="evenodd" fill-opacity="1" /><path clip-path="url(#clip370)" d="M 0 0 M276.624 77.3194 Q273.69 77.3194 272.204 80.2158 Q270.737 83.0934 270.737 88.8862 Q270.737 94.6602 272.204 97.5566 Q273.69 100.434 276.624 100.434 Q279.577 100.434 281.044 97.5566 Q282.53 94.6602 282.53 88.8862 Q282.53 83.0934 281.044 80.2158 Q279.577 77.3194 276.624 77.3194 M276.624 74.3102 Q281.345 74.3102 283.827 78.0529 Q286.329 81.7768 286.329 88.8862 Q286.329 95.9767 283.827 99.7195 Q281.345 103.443 276.624 103.443 Q271.903 103.443 269.402 99.7195 Q266.919 95.9767 266.919 88.8862 Q266.919 81.7768 269.402 78.0529 Q271.903 74.3102 276.624 74.3102 Z" fill="#000000" fill-rule="evenodd" fill-opacity="1" /><path clip-path="url(#clip370)" d="M 0 0 M1096.93 1444.2 L1126.98 1444.2 L1126.98 1449.61 L1103.36 1449.61 L1103.36 1463.68 L1125.99 1463.68 L1125.99 1469.09 L1103.36 1469.09 L1103.36 1486.31 L1127.55 1486.31 L1127.55 1491.72 L1096.93 1491.72 L1096.93 1444.2 Z" fill="#000000" fill-rule="evenodd" fill-opacity="1" /><path clip-path="url(#clip370)" d="M 0 0 M1163.32 1470.21 L1163.32 1491.72 L1157.47 1491.72 L1157.47 1470.4 Q1157.47 1465.34 1155.49 1462.82 Q1153.52 1460.31 1149.57 1460.31 Q1144.83 1460.31 1142.09 1463.33 Q1139.36 1466.36 1139.36 1471.58 L1139.36 1491.72 L1133.47 1491.72 L1133.47 1456.08 L1139.36 1456.08 L1139.36 1461.61 Q1141.46 1458.4 1144.29 1456.81 Q1147.15 1455.22 1150.88 1455.22 Q1157.02 1455.22 1160.17 1459.04 Q1163.32 1462.82 1163.32 1470.21 Z" fill="#000000" fill-rule="evenodd" fill-opacity="1" /><path clip-path="url(#clip370)" d="M 0 0 M1199.96 1472.44 L1199.96 1475.3 L1173.03 1475.3 Q1173.41 1481.35 1176.66 1484.53 Q1179.94 1487.68 1185.76 1487.68 Q1189.14 1487.68 1192.29 1486.85 Q1195.47 1486.03 1198.59 1484.37 L1198.59 1489.91 Q1195.44 1491.25 1192.13 1491.95 Q1188.82 1492.65 1185.41 1492.65 Q1176.88 1492.65 1171.89 1487.68 Q1166.92 1482.72 1166.92 1474.25 Q1166.92 1465.5 1171.63 1460.37 Q1176.37 1455.22 1184.39 1455.22 Q1191.59 1455.22 1195.76 1459.86 Q1199.96 1464.48 1199.96 1472.44 M1194.1 1470.72 Q1194.04 1465.91 1191.4 1463.05 Q1188.79 1460.18 1184.46 1460.18 Q1179.56 1460.18 1176.6 1462.95 Q1173.67 1465.72 1173.22 1470.75 L1194.1 1470.72 Z" fill="#000000" fill-rule="evenodd" fill-opacity="1" /><path clip-path="url(#clip370)" d="M 0 0 M1226.76 1461.55 Q1225.77 1460.98 1224.59 1460.72 Q1223.45 1460.44 1222.05 1460.44 Q1217.08 1460.44 1214.41 1463.68 Q1211.77 1466.9 1211.77 1472.95 L1211.77 1491.72 L1205.88 1491.72 L1205.88 1456.08 L1211.77 1456.08 L1211.77 1461.61 Q1213.61 1458.37 1216.57 1456.81 Q1219.53 1455.22 1223.77 1455.22 Q1224.37 1455.22 1225.1 1455.31 Q1225.83 1455.38 1226.73 1455.53 L1226.76 1461.55 Z" fill="#000000" fill-rule="evenodd" fill-opacity="1" /><path clip-path="url(#clip370)" d="M 0 0 M1255.21 1473.49 Q1255.21 1467.12 1252.57 1463.62 Q1249.96 1460.12 1245.22 1460.12 Q1240.51 1460.12 1237.87 1463.62 Q1235.26 1467.12 1235.26 1473.49 Q1235.26 1479.82 1237.87 1483.32 Q1240.51 1486.82 1245.22 1486.82 Q1249.96 1486.82 1252.57 1483.32 Q1255.21 1479.82 1255.21 1473.49 M1261.07 1487.3 Q1261.07 1496.4 1257.03 1500.83 Q1252.98 1505.28 1244.65 1505.28 Q1241.56 1505.28 1238.82 1504.81 Q1236.08 1504.36 1233.51 1503.4 L1233.51 1497.71 Q1236.08 1499.11 1238.6 1499.78 Q1241.11 1500.44 1243.72 1500.44 Q1249.48 1500.44 1252.35 1497.42 Q1255.21 1494.43 1255.21 1488.35 L1255.21 1485.45 Q1253.4 1488.6 1250.57 1490.16 Q1247.73 1491.72 1243.79 1491.72 Q1237.23 1491.72 1233.22 1486.73 Q1229.21 1481.73 1229.21 1473.49 Q1229.21 1465.21 1233.22 1460.21 Q1237.23 1455.22 1243.79 1455.22 Q1247.73 1455.22 1250.57 1456.78 Q1253.4 1458.34 1255.21 1461.49 L1255.21 1456.08 L1261.07 1456.08 L1261.07 1487.3 Z" fill="#000000" fill-rule="evenodd" fill-opacity="1" /><path clip-path="url(#clip370)" d="M 0 0 M1282.04 1495.03 Q1279.56 1501.4 1277.21 1503.34 Q1274.85 1505.28 1270.9 1505.28 L1266.23 1505.28 L1266.23 1500.38 L1269.66 1500.38 Q1272.08 1500.38 1273.42 1499.24 Q1274.76 1498.09 1276.38 1493.82 L1277.43 1491.15 L1263.01 1456.08 L1269.22 1456.08 L1280.36 1483.96 L1291.5 1456.08 L1297.7 1456.08 L1282.04 1495.03 Z" fill="#000000" fill-rule="evenodd" fill-opacity="1" /><path clip-path="url(#clip370)" d="M 0 0 M1355.06 1472.44 L1355.06 1475.3 L1328.13 1475.3 Q1328.51 1481.35 1331.76 1484.53 Q1335.04 1487.68 1340.86 1487.68 Q1344.24 1487.68 1347.39 1486.85 Q1350.57 1486.03 1353.69 1484.37 L1353.69 1489.91 Q1350.54 1491.25 1347.23 1491.95 Q1343.92 1492.65 1340.51 1492.65 Q1331.98 1492.65 1326.99 1487.68 Q1322.02 1482.72 1322.02 1474.25 Q1322.02 1465.5 1326.73 1460.37 Q1331.47 1455.22 1339.49 1455.22 Q1346.69 1455.22 1350.86 1459.86 Q1355.06 1464.48 1355.06 1472.44 M1349.2 1470.72 Q1349.14 1465.91 1346.5 1463.05 Q1343.89 1460.18 1339.56 1460.18 Q1334.66 1460.18 1331.7 1462.95 Q1328.77 1465.72 1328.32 1470.75 L1349.2 1470.72 Z" fill="#000000" fill-rule="evenodd" fill-opacity="1" /><path clip-path="url(#clip370)" d="M 0 0 M1381.86 1461.55 Q1380.87 1460.98 1379.69 1460.72 Q1378.55 1460.44 1377.15 1460.44 Q1372.18 1460.44 1369.51 1463.68 Q1366.87 1466.9 1366.87 1472.95 L1366.87 1491.72 L1360.98 1491.72 L1360.98 1456.08 L1366.87 1456.08 L1366.87 1461.61 Q1368.71 1458.37 1371.67 1456.81 Q1374.63 1455.22 1378.87 1455.22 Q1379.47 1455.22 1380.2 1455.31 Q1380.94 1455.38 1381.83 1455.53 L1381.86 1461.55 Z" fill="#000000" fill-rule="evenodd" fill-opacity="1" /><path clip-path="url(#clip370)" d="M 0 0 M1407.51 1461.55 Q1406.53 1460.98 1405.35 1460.72 Q1404.2 1460.44 1402.8 1460.44 Q1397.84 1460.44 1395.16 1463.68 Q1392.52 1466.9 1392.52 1472.95 L1392.52 1491.72 L1386.63 1491.72 L1386.63 1456.08 L1392.52 1456.08 L1392.52 1461.61 Q1394.37 1458.37 1397.33 1456.81 Q1400.29 1455.22 1404.52 1455.22 Q1405.12 1455.22 1405.86 1455.31 Q1406.59 1455.38 1407.48 1455.53 L1407.51 1461.55 Z" fill="#000000" fill-rule="evenodd" fill-opacity="1" /><path clip-path="url(#clip370)" d="M 0 0 M1426.04 1460.18 Q1421.33 1460.18 1418.59 1463.87 Q1415.85 1467.53 1415.85 1473.93 Q1415.85 1480.33 1418.56 1484.02 Q1421.29 1487.68 1426.04 1487.68 Q1430.71 1487.68 1433.45 1483.99 Q1436.19 1480.3 1436.19 1473.93 Q1436.19 1467.6 1433.45 1463.91 Q1430.71 1460.18 1426.04 1460.18 M1426.04 1455.22 Q1433.67 1455.22 1438.04 1460.18 Q1442.4 1465.15 1442.4 1473.93 Q1442.4 1482.68 1438.04 1487.68 Q1433.67 1492.65 1426.04 1492.65 Q1418.37 1492.65 1414 1487.68 Q1409.68 1482.68 1409.68 1473.93 Q1409.68 1465.15 1414 1460.18 Q1418.37 1455.22 1426.04 1455.22 Z" fill="#000000" fill-rule="evenodd" fill-opacity="1" /><path clip-path="url(#clip370)" d="M 0 0 M1469.2 1461.55 Q1468.21 1460.98 1467.03 1460.72 Q1465.89 1460.44 1464.48 1460.44 Q1459.52 1460.44 1456.85 1463.68 Q1454.2 1466.9 1454.2 1472.95 L1454.2 1491.72 L1448.32 1491.72 L1448.32 1456.08 L1454.2 1456.08 L1454.2 1461.61 Q1456.05 1458.37 1459.01 1456.81 Q1461.97 1455.22 1466.2 1455.22 Q1466.81 1455.22 1467.54 1455.31 Q1468.27 1455.38 1469.16 1455.53 L1469.2 1461.55 Z" fill="#000000" fill-rule="evenodd" fill-opacity="1" /><path clip-path="url(#clip370)" d="M 0 0 M66.6842 844.692 Q67.3844 842.623 69.6761 840.681 Q71.9677 838.708 75.9781 836.734 L88.9642 830.21 L88.9642 837.116 L76.7738 843.196 Q71.9995 845.551 70.44 847.779 Q68.8804 849.975 68.8804 853.794 L68.8804 860.797 L88.9642 860.797 L88.9642 867.226 L41.4442 867.226 L41.4442 852.712 Q41.4442 844.564 44.8498 840.554 Q48.2555 836.543 55.1304 836.543 Q59.6182 836.543 62.5783 838.644 Q65.5384 840.713 66.6842 844.692 M46.7277 860.797 L63.5968 860.797 L63.5968 852.712 Q63.5968 848.065 61.4643 845.71 Q59.3 843.323 55.1304 843.323 Q50.9609 843.323 48.8602 845.71 Q46.7277 848.065 46.7277 852.712 L46.7277 860.797 Z" fill="#000000" fill-rule="evenodd" fill-opacity="1" /><path clip-path="url(#clip370)" d="M 0 0 M74.8959 827.6 L53.3162 827.6 L53.3162 821.743 L74.6731 821.743 Q79.7339 821.743 82.2802 819.77 Q84.7946 817.796 84.7946 813.85 Q84.7946 809.107 81.7709 806.37 Q78.7472 803.601 73.5273 803.601 L53.3162 803.601 L53.3162 797.744 L88.9642 797.744 L88.9642 803.601 L83.4896 803.601 Q86.7362 805.733 88.3276 808.566 Q89.8872 811.367 89.8872 815.091 Q89.8872 821.234 86.0678 824.417 Q82.2483 827.6 74.8959 827.6 M52.4568 812.863 L52.4568 812.863 Z" fill="#000000" fill-rule="evenodd" fill-opacity="1" /><path clip-path="url(#clip370)" d="M 0 0 M67.4481 761.969 L88.9642 761.969 L88.9642 767.826 L67.639 767.826 Q62.5783 767.826 60.0638 769.799 Q57.5494 771.772 57.5494 775.719 Q57.5494 780.462 60.5731 783.199 Q63.5968 785.936 68.8167 785.936 L88.9642 785.936 L88.9642 791.824 L53.3162 791.824 L53.3162 785.936 L58.8544 785.936 Q55.6397 783.835 54.0483 781.003 Q52.4568 778.138 52.4568 774.414 Q52.4568 768.271 56.2763 765.12 Q60.0638 761.969 67.4481 761.969 Z" fill="#000000" fill-rule="evenodd" fill-opacity="1" /><path clip-path="url(#clip370)" d="M 0 0 M43.1947 750.033 L53.3162 750.033 L53.3162 737.97 L57.8677 737.97 L57.8677 750.033 L77.2194 750.033 Q81.5799 750.033 82.8213 748.856 Q84.0626 747.646 84.0626 743.986 L84.0626 737.97 L88.9642 737.97 L88.9642 743.986 Q88.9642 750.766 86.4497 753.344 Q83.9034 755.922 77.2194 755.922 L57.8677 755.922 L57.8677 760.219 L53.3162 760.219 L53.3162 755.922 L43.1947 755.922 L43.1947 750.033 Z" fill="#000000" fill-rule="evenodd" fill-opacity="1" /><path clip-path="url(#clip370)" d="M 0 0 M53.3162 731.828 L53.3162 725.971 L88.9642 725.971 L88.9642 731.828 L53.3162 731.828 M39.439 731.828 L39.439 725.971 L46.855 725.971 L46.855 731.828 L39.439 731.828 Z" fill="#000000" fill-rule="evenodd" fill-opacity="1" /><path clip-path="url(#clip370)" d="M 0 0 M60.1593 692.074 Q56.2126 689.878 54.3347 686.822 Q52.4568 683.766 52.4568 679.629 Q52.4568 674.059 56.3717 671.035 Q60.2548 668.011 67.4481 668.011 L88.9642 668.011 L88.9642 673.9 L67.639 673.9 Q62.5146 673.9 60.032 675.714 Q57.5494 677.528 57.5494 681.252 Q57.5494 685.803 60.5731 688.445 Q63.5968 691.087 68.8167 691.087 L88.9642 691.087 L88.9642 696.975 L67.639 696.975 Q62.4828 696.975 60.032 698.79 Q57.5494 700.604 57.5494 704.391 Q57.5494 708.879 60.6049 711.521 Q63.6286 714.163 68.8167 714.163 L88.9642 714.163 L88.9642 720.051 L53.3162 720.051 L53.3162 714.163 L58.8544 714.163 Q55.576 712.158 54.0164 709.357 Q52.4568 706.556 52.4568 702.704 Q52.4568 698.821 54.4302 696.116 Q56.4036 693.379 60.1593 692.074 Z" fill="#000000" fill-rule="evenodd" fill-opacity="1" /><path clip-path="url(#clip370)" d="M 0 0 M69.6761 631.377 L72.5406 631.377 L72.5406 658.304 Q78.5881 657.922 81.7709 654.675 Q84.9219 651.397 84.9219 645.572 Q84.9219 642.198 84.0944 639.047 Q83.2669 635.865 81.6118 632.745 L87.1499 632.745 Q88.4867 635.896 89.187 639.207 Q89.8872 642.517 89.8872 645.922 Q89.8872 654.452 84.9219 659.449 Q79.9567 664.415 71.4903 664.415 Q62.7374 664.415 57.6131 659.704 Q52.4568 654.962 52.4568 646.941 Q52.4568 639.748 57.1038 635.578 Q61.7189 631.377 69.6761 631.377 M67.9573 637.233 Q63.1512 637.297 60.2866 639.939 Q57.4221 642.548 57.4221 646.877 Q57.4221 651.779 60.1912 654.739 Q62.9602 657.667 67.9892 658.113 L67.9573 637.233 Z" fill="#000000" fill-rule="evenodd" fill-opacity="1" /><path clip-path="url(#clip370)" d="M 0 0 M39.5026 590.445 Q46.8232 594.71 53.9846 596.779 Q61.146 598.848 68.4984 598.848 Q75.8508 598.848 83.0759 596.779 Q90.2691 594.678 97.5579 590.445 L97.5579 595.538 Q90.0782 600.312 82.8531 602.699 Q75.628 605.054 68.4984 605.054 Q61.4006 605.054 54.2074 602.699 Q47.0142 600.344 39.5026 595.538 L39.5026 590.445 Z" fill="#000000" fill-rule="evenodd" fill-opacity="1" /><path clip-path="url(#clip370)" d="M 0 0 M54.3665 561.577 L59.9047 561.577 Q58.6316 564.059 57.995 566.733 Q57.3584 569.407 57.3584 572.271 Q57.3584 576.632 58.6952 578.828 Q60.032 580.992 62.7056 580.992 Q64.7426 580.992 65.9203 579.433 Q67.0661 577.873 68.1165 573.162 L68.5621 571.157 Q69.8989 564.919 72.3497 562.309 Q74.7686 559.667 79.1291 559.667 Q84.0944 559.667 86.9908 563.614 Q89.8872 567.529 89.8872 574.404 Q89.8872 577.268 89.3143 580.387 Q88.7732 583.475 87.6592 586.912 L81.6118 586.912 Q83.2987 583.666 84.158 580.515 Q84.9856 577.364 84.9856 574.276 Q84.9856 570.139 83.5851 567.911 Q82.1529 565.683 79.5747 565.683 Q77.1876 565.683 75.9145 567.306 Q74.6413 568.897 73.4637 574.34 L72.9862 576.377 Q71.8404 581.82 69.4851 584.239 Q67.098 586.658 62.9602 586.658 Q57.9313 586.658 55.1941 583.093 Q52.4568 579.528 52.4568 572.971 Q52.4568 569.725 52.9343 566.86 Q53.4117 563.996 54.3665 561.577 Z" fill="#000000" fill-rule="evenodd" fill-opacity="1" /><path clip-path="url(#clip370)" d="M 0 0 M39.5026 554.447 L39.5026 549.355 Q47.0142 544.58 54.2074 542.225 Q61.4006 539.838 68.4984 539.838 Q75.628 539.838 82.8531 542.225 Q90.0782 544.58 97.5579 549.355 L97.5579 554.447 Q90.2691 550.214 83.0759 548.145 Q75.8508 546.044 68.4984 546.044 Q61.146 546.044 53.9846 548.145 Q46.8232 550.214 39.5026 554.447 Z" fill="#000000" fill-rule="evenodd" fill-opacity="1" /><polyline clip-path="url(#clip372)" style="stroke:#009af9; stroke-width:4; stroke-opacity:1; fill:none" points="
  1194.93,908.732 1454.6,804.581 1425.15,701.867 1516.74,596.205 1631.98,496.313 
  "/>
<polyline clip-path="url(#clip372)" style="stroke:#e26f46; stroke-width:4; stroke-opacity:1; fill:none" points="
  1066.46,1214.53 1190.54,1123.31 1173.22,1019.36 1029.83,903.186 1099.45,798.773 
  "/>
<polyline clip-path="url(#clip372)" style="stroke:#3da44d; stroke-width:4; stroke-opacity:1; fill:none" points="
  643.951,767.222 696.697,670.46 713.105,568.027 902.261,468.443 697.513,365.987 
  "/>
<polyline clip-path="url(#clip372)" style="stroke:#c271d2; stroke-width:4; stroke-opacity:1; fill:none" points="
  852.895,545.734 1055.12,446.09 1121.11,347.018 1171.7,245.111 1309.01,142.124 
  "/>
<polyline clip-path="url(#clip372)" style="stroke:#ac8d18; stroke-width:4; stroke-opacity:1; fill:none" points="
  1834.23,1322.67 2085.74,1226.66 2201.64,1126.26 1953.92,1023.36 2042.05,917.645 
  "/>
<polyline clip-path="url(#clip372)" style="stroke:#00a9ad; stroke-width:4; stroke-opacity:1; fill:none" points="
  758.712,771.781 364.483,671.351 1013.01,571.526 538.027,470.879 1235.65,367.808 
  "/>
<polyline clip-path="url(#clip372)" style="stroke:#ed5d92; stroke-width:4; stroke-opacity:1; fill:none" points="
  1384.54,1195.71 1558.42,1091.81 1714.25,987.296 1652.34,885.127 1335.71,783.465 
  "/>
<polyline clip-path="url(#clip372)" style="stroke:#c68125; stroke-width:4; stroke-opacity:1; fill:none" points="
  1196.79,884.752 1415.63,781.566 1478.69,671.67 1524.44,567.985 1637.05,471.411 
  "/>
<polyline clip-path="url(#clip372)" style="stroke:#00a98d; stroke-width:4; stroke-opacity:1; fill:none" points="
  586.427,485.327 991.687,383.506 1142.11,285.621 1101.11,185.245 1162.81,84.3925 
  "/>
<path clip-path="url(#clip370)" d="
M1664.21 729.804 L2187.64 729.804 L2187.64 125.004 L1664.21 125.004  Z
  " fill="#ffffff" fill-rule="evenodd" fill-opacity="1"/>
<polyline clip-path="url(#clip370)" style="stroke:#000000; stroke-width:4; stroke-opacity:1; fill:none" points="
  1664.21,729.804 2187.64,729.804 2187.64,125.004 1664.21,125.004 1664.21,729.804 
  "/>
<polyline clip-path="url(#clip370)" style="stroke:#009af9; stroke-width:4; stroke-opacity:1; fill:none" points="
  1687.25,185.484 1825.49,185.484 
  "/>
<path clip-path="url(#clip370)" d="M 0 0 M1853.2 172.047 L1853.2 198.922 L1858.85 198.922 Q1866 198.922 1869.31 195.681 Q1872.65 192.44 1872.65 185.449 Q1872.65 178.505 1869.31 175.287 Q1866 172.047 1858.85 172.047 L1853.2 172.047 M1848.53 168.204 L1858.13 168.204 Q1868.18 168.204 1872.88 172.394 Q1877.58 176.561 1877.58 185.449 Q1877.58 194.385 1872.85 198.574 Q1868.13 202.764 1858.13 202.764 L1848.53 202.764 L1848.53 168.204 Z" fill="#000000" fill-rule="evenodd" fill-opacity="1" /><path clip-path="url(#clip370)" d="M 0 0 M1886.9 172.047 L1886.9 185.033 L1892.78 185.033 Q1896.05 185.033 1897.83 183.343 Q1899.61 181.653 1899.61 178.528 Q1899.61 175.426 1897.83 173.736 Q1896.05 172.047 1892.78 172.047 L1886.9 172.047 M1882.23 168.204 L1892.78 168.204 Q1898.59 168.204 1901.56 170.843 Q1904.54 173.459 1904.54 178.528 Q1904.54 183.644 1901.56 186.26 Q1898.59 188.875 1892.78 188.875 L1886.9 188.875 L1886.9 202.764 L1882.23 202.764 L1882.23 168.204 Z" fill="#000000" fill-rule="evenodd" fill-opacity="1" /><path clip-path="url(#clip370)" d="M 0 0 M1925.58 186.56 Q1927.09 187.07 1928.5 188.736 Q1929.94 190.403 1931.37 193.32 L1936.12 202.764 L1931.09 202.764 L1926.67 193.898 Q1924.96 190.426 1923.34 189.292 Q1921.74 188.158 1918.96 188.158 L1913.87 188.158 L1913.87 202.764 L1909.2 202.764 L1909.2 168.204 L1919.75 168.204 Q1925.68 168.204 1928.59 170.681 Q1931.51 173.158 1931.51 178.158 Q1931.51 181.422 1929.98 183.574 Q1928.48 185.727 1925.58 186.56 M1913.87 172.047 L1913.87 184.315 L1919.75 184.315 Q1923.13 184.315 1924.84 182.764 Q1926.58 181.19 1926.58 178.158 Q1926.58 175.125 1924.84 173.598 Q1923.13 172.047 1919.75 172.047 L1913.87 172.047 Z" fill="#000000" fill-rule="evenodd" fill-opacity="1" /><path clip-path="url(#clip370)" d="M 0 0 M1940.77 168.204 L1945.45 168.204 L1945.45 182.81 L1960.96 168.204 L1966.97 168.204 L1949.82 184.315 L1968.2 202.764 L1962.04 202.764 L1945.45 186.121 L1945.45 202.764 L1940.77 202.764 L1940.77 168.204 Z" fill="#000000" fill-rule="evenodd" fill-opacity="1" /><path clip-path="url(#clip370)" d="M 0 0 M1972.85 168.204 L1979.15 168.204 L1994.47 197.116 L1994.47 168.204 L1999.01 168.204 L1999.01 202.764 L1992.71 202.764 L1977.39 173.852 L1977.39 202.764 L1972.85 202.764 L1972.85 168.204 Z" fill="#000000" fill-rule="evenodd" fill-opacity="1" /><path clip-path="url(#clip370)" d="M 0 0 M2004.89 198.829 L2012.53 198.829 L2012.53 172.463 L2004.22 174.13 L2004.22 169.871 L2012.48 168.204 L2017.16 168.204 L2017.16 198.829 L2024.8 198.829 L2024.8 202.764 L2004.89 202.764 L2004.89 198.829 Z" fill="#000000" fill-rule="evenodd" fill-opacity="1" /><path clip-path="url(#clip370)" d="M 0 0 M2033.89 198.829 L2050.21 198.829 L2050.21 202.764 L2028.27 202.764 L2028.27 198.829 Q2030.93 196.074 2035.51 191.445 Q2040.12 186.792 2041.3 185.449 Q2043.55 182.926 2044.43 181.19 Q2045.33 179.431 2045.33 177.741 Q2045.33 174.986 2043.39 173.25 Q2041.46 171.514 2038.36 171.514 Q2036.16 171.514 2033.71 172.278 Q2031.28 173.042 2028.5 174.593 L2028.5 169.871 Q2031.33 168.736 2033.78 168.158 Q2036.23 167.579 2038.27 167.579 Q2043.64 167.579 2046.83 170.264 Q2050.03 172.949 2050.03 177.44 Q2050.03 179.57 2049.22 181.491 Q2048.43 183.389 2046.32 185.982 Q2045.75 186.653 2042.64 189.871 Q2039.54 193.065 2033.89 198.829 Z" fill="#000000" fill-rule="evenodd" fill-opacity="1" /><polyline clip-path="url(#clip370)" style="stroke:#e26f46; stroke-width:4; stroke-opacity:1; fill:none" points="
  1687.25,245.964 1825.49,245.964 
  "/>
<path clip-path="url(#clip370)" d="M 0 0 M1853.2 232.527 L1853.2 259.402 L1858.85 259.402 Q1866 259.402 1869.31 256.161 Q1872.65 252.92 1872.65 245.929 Q1872.65 238.985 1869.31 235.767 Q1866 232.527 1858.85 232.527 L1853.2 232.527 M1848.53 228.684 L1858.13 228.684 Q1868.18 228.684 1872.88 232.874 Q1877.58 237.041 1877.58 245.929 Q1877.58 254.865 1872.85 259.054 Q1868.13 263.244 1858.13 263.244 L1848.53 263.244 L1848.53 228.684 Z" fill="#000000" fill-rule="evenodd" fill-opacity="1" /><path clip-path="url(#clip370)" d="M 0 0 M1886.9 232.527 L1886.9 245.513 L1892.78 245.513 Q1896.05 245.513 1897.83 243.823 Q1899.61 242.133 1899.61 239.008 Q1899.61 235.906 1897.83 234.216 Q1896.05 232.527 1892.78 232.527 L1886.9 232.527 M1882.23 228.684 L1892.78 228.684 Q1898.59 228.684 1901.56 231.323 Q1904.54 233.939 1904.54 239.008 Q1904.54 244.124 1901.56 246.74 Q1898.59 249.355 1892.78 249.355 L1886.9 249.355 L1886.9 263.244 L1882.23 263.244 L1882.23 228.684 Z" fill="#000000" fill-rule="evenodd" fill-opacity="1" /><path clip-path="url(#clip370)" d="M 0 0 M1925.58 247.04 Q1927.09 247.55 1928.5 249.216 Q1929.94 250.883 1931.37 253.8 L1936.12 263.244 L1931.09 263.244 L1926.67 254.378 Q1924.96 250.906 1923.34 249.772 Q1921.74 248.638 1918.96 248.638 L1913.87 248.638 L1913.87 263.244 L1909.2 263.244 L1909.2 228.684 L1919.75 228.684 Q1925.68 228.684 1928.59 231.161 Q1931.51 233.638 1931.51 238.638 Q1931.51 241.902 1929.98 244.054 Q1928.48 246.207 1925.58 247.04 M1913.87 232.527 L1913.87 244.795 L1919.75 244.795 Q1923.13 244.795 1924.84 243.244 Q1926.58 241.67 1926.58 238.638 Q1926.58 235.605 1924.84 234.078 Q1923.13 232.527 1919.75 232.527 L1913.87 232.527 Z" fill="#000000" fill-rule="evenodd" fill-opacity="1" /><path clip-path="url(#clip370)" d="M 0 0 M1940.77 228.684 L1945.45 228.684 L1945.45 243.29 L1960.96 228.684 L1966.97 228.684 L1949.82 244.795 L1968.2 263.244 L1962.04 263.244 L1945.45 246.601 L1945.45 263.244 L1940.77 263.244 L1940.77 228.684 Z" fill="#000000" fill-rule="evenodd" fill-opacity="1" /><path clip-path="url(#clip370)" d="M 0 0 M1972.85 228.684 L1979.15 228.684 L1994.47 257.596 L1994.47 228.684 L1999.01 228.684 L1999.01 263.244 L1992.71 263.244 L1977.39 234.332 L1977.39 263.244 L1972.85 263.244 L1972.85 228.684 Z" fill="#000000" fill-rule="evenodd" fill-opacity="1" /><path clip-path="url(#clip370)" d="M 0 0 M2014.66 244.101 Q2011.51 244.101 2009.66 246.253 Q2007.83 248.406 2007.83 252.156 Q2007.83 255.883 2009.66 258.059 Q2011.51 260.212 2014.66 260.212 Q2017.81 260.212 2019.64 258.059 Q2021.49 255.883 2021.49 252.156 Q2021.49 248.406 2019.64 246.253 Q2017.81 244.101 2014.66 244.101 M2023.94 229.448 L2023.94 233.707 Q2022.18 232.874 2020.38 232.434 Q2018.59 231.994 2016.83 231.994 Q2012.2 231.994 2009.75 235.119 Q2007.32 238.244 2006.97 244.564 Q2008.34 242.55 2010.4 241.485 Q2012.46 240.397 2014.94 240.397 Q2020.14 240.397 2023.15 243.568 Q2026.19 246.716 2026.19 252.156 Q2026.19 257.48 2023.04 260.698 Q2019.89 263.915 2014.66 263.915 Q2008.66 263.915 2005.49 259.332 Q2002.32 254.726 2002.32 245.999 Q2002.32 237.804 2006.21 232.943 Q2010.1 228.059 2016.65 228.059 Q2018.41 228.059 2020.19 228.406 Q2022 228.754 2023.94 229.448 Z" fill="#000000" fill-rule="evenodd" fill-opacity="1" /><polyline clip-path="url(#clip370)" style="stroke:#3da44d; stroke-width:4; stroke-opacity:1; fill:none" points="
  1687.25,306.444 1825.49,306.444 
  "/>
<path clip-path="url(#clip370)" d="M 0 0 M1848.53 289.164 L1855.49 289.164 L1864.31 312.682 L1873.18 289.164 L1880.15 289.164 L1880.15 323.724 L1875.59 323.724 L1875.59 293.377 L1866.67 317.081 L1861.97 317.081 L1853.06 293.377 L1853.06 323.724 L1848.53 323.724 L1848.53 289.164 Z" fill="#000000" fill-rule="evenodd" fill-opacity="1" /><path clip-path="url(#clip370)" d="M 0 0 M1903.27 298.794 L1903.27 302.775 Q1901.46 301.78 1899.64 301.294 Q1897.83 300.784 1895.98 300.784 Q1891.84 300.784 1889.54 303.423 Q1887.25 306.039 1887.25 310.784 Q1887.25 315.53 1889.54 318.169 Q1891.84 320.784 1895.98 320.784 Q1897.83 320.784 1899.64 320.298 Q1901.46 319.789 1903.27 318.794 L1903.27 322.729 Q1901.49 323.562 1899.57 323.979 Q1897.67 324.395 1895.52 324.395 Q1889.66 324.395 1886.21 320.715 Q1882.76 317.034 1882.76 310.784 Q1882.76 304.442 1886.23 300.808 Q1889.73 297.173 1895.79 297.173 Q1897.76 297.173 1899.64 297.59 Q1901.51 297.983 1903.27 298.794 Z" fill="#000000" fill-rule="evenodd" fill-opacity="1" /><path clip-path="url(#clip370)" d="M 0 0 M1919.47 293.771 L1913.13 310.97 L1925.84 310.97 L1919.47 293.771 M1916.83 289.164 L1922.14 289.164 L1935.31 323.724 L1930.45 323.724 L1927.3 314.858 L1911.72 314.858 L1908.57 323.724 L1903.64 323.724 L1916.83 289.164 Z" fill="#000000" fill-rule="evenodd" fill-opacity="1" /><path clip-path="url(#clip370)" d="M 0 0 M1943.15 290.437 L1943.15 297.798 L1951.93 297.798 L1951.93 301.108 L1943.15 301.108 L1943.15 315.182 Q1943.15 318.354 1944.01 319.257 Q1944.89 320.159 1947.55 320.159 L1951.93 320.159 L1951.93 323.724 L1947.55 323.724 Q1942.62 323.724 1940.75 321.895 Q1938.87 320.044 1938.87 315.182 L1938.87 301.108 L1935.75 301.108 L1935.75 297.798 L1938.87 297.798 L1938.87 290.437 L1943.15 290.437 Z" fill="#000000" fill-rule="evenodd" fill-opacity="1" /><path clip-path="url(#clip370)" d="M 0 0 M1978.57 309.696 L1978.57 311.78 L1958.99 311.78 Q1959.27 316.178 1961.63 318.493 Q1964.01 320.784 1968.25 320.784 Q1970.7 320.784 1972.99 320.182 Q1975.31 319.581 1977.58 318.377 L1977.58 322.405 Q1975.28 323.377 1972.88 323.886 Q1970.47 324.395 1967.99 324.395 Q1961.79 324.395 1958.15 320.784 Q1954.54 317.173 1954.54 311.016 Q1954.54 304.65 1957.97 300.923 Q1961.42 297.173 1967.25 297.173 Q1972.48 297.173 1975.52 300.553 Q1978.57 303.909 1978.57 309.696 M1974.31 308.446 Q1974.27 304.951 1972.34 302.868 Q1970.45 300.784 1967.3 300.784 Q1963.73 300.784 1961.58 302.798 Q1959.45 304.812 1959.13 308.47 L1974.31 308.446 Z" fill="#000000" fill-rule="evenodd" fill-opacity="1" /><path clip-path="url(#clip370)" d="M 0 0 M1987.67 319.789 L2003.99 319.789 L2003.99 323.724 L1982.04 323.724 L1982.04 319.789 Q1984.7 317.034 1989.29 312.405 Q1993.89 307.752 1995.08 306.409 Q1997.32 303.886 1998.2 302.15 Q1999.1 300.391 1999.1 298.701 Q1999.1 295.946 1997.16 294.21 Q1995.24 292.474 1992.14 292.474 Q1989.94 292.474 1987.48 293.238 Q1985.05 294.002 1982.27 295.553 L1982.27 290.831 Q1985.1 289.696 1987.55 289.118 Q1990.01 288.539 1992.04 288.539 Q1997.41 288.539 2000.61 291.224 Q2003.8 293.909 2003.8 298.4 Q2003.8 300.53 2002.99 302.451 Q2002.2 304.349 2000.1 306.942 Q1999.52 307.613 1996.42 310.831 Q1993.32 314.025 1987.67 319.789 Z" fill="#000000" fill-rule="evenodd" fill-opacity="1" /><polyline clip-path="url(#clip370)" style="stroke:#c271d2; stroke-width:4; stroke-opacity:1; fill:none" points="
  1687.25,366.924 1825.49,366.924 
  "/>
<path clip-path="url(#clip370)" d="M 0 0 M1848.53 349.644 L1855.49 349.644 L1864.31 373.162 L1873.18 349.644 L1880.15 349.644 L1880.15 384.204 L1875.59 384.204 L1875.59 353.857 L1866.67 377.561 L1861.97 377.561 L1853.06 353.857 L1853.06 384.204 L1848.53 384.204 L1848.53 349.644 Z" fill="#000000" fill-rule="evenodd" fill-opacity="1" /><path clip-path="url(#clip370)" d="M 0 0 M1903.27 359.274 L1903.27 363.255 Q1901.46 362.26 1899.64 361.774 Q1897.83 361.264 1895.98 361.264 Q1891.84 361.264 1889.54 363.903 Q1887.25 366.519 1887.25 371.264 Q1887.25 376.01 1889.54 378.649 Q1891.84 381.264 1895.98 381.264 Q1897.83 381.264 1899.64 380.778 Q1901.46 380.269 1903.27 379.274 L1903.27 383.209 Q1901.49 384.042 1899.57 384.459 Q1897.67 384.875 1895.52 384.875 Q1889.66 384.875 1886.21 381.195 Q1882.76 377.514 1882.76 371.264 Q1882.76 364.922 1886.23 361.288 Q1889.73 357.653 1895.79 357.653 Q1897.76 357.653 1899.64 358.07 Q1901.51 358.463 1903.27 359.274 Z" fill="#000000" fill-rule="evenodd" fill-opacity="1" /><path clip-path="url(#clip370)" d="M 0 0 M1919.47 354.251 L1913.13 371.45 L1925.84 371.45 L1919.47 354.251 M1916.83 349.644 L1922.14 349.644 L1935.31 384.204 L1930.45 384.204 L1927.3 375.338 L1911.72 375.338 L1908.57 384.204 L1903.64 384.204 L1916.83 349.644 Z" fill="#000000" fill-rule="evenodd" fill-opacity="1" /><path clip-path="url(#clip370)" d="M 0 0 M1943.15 350.917 L1943.15 358.278 L1951.93 358.278 L1951.93 361.588 L1943.15 361.588 L1943.15 375.662 Q1943.15 378.834 1944.01 379.737 Q1944.89 380.639 1947.55 380.639 L1951.93 380.639 L1951.93 384.204 L1947.55 384.204 Q1942.62 384.204 1940.75 382.375 Q1938.87 380.524 1938.87 375.662 L1938.87 361.588 L1935.75 361.588 L1935.75 358.278 L1938.87 358.278 L1938.87 350.917 L1943.15 350.917 Z" fill="#000000" fill-rule="evenodd" fill-opacity="1" /><path clip-path="url(#clip370)" d="M 0 0 M1978.57 370.176 L1978.57 372.26 L1958.99 372.26 Q1959.27 376.658 1961.63 378.973 Q1964.01 381.264 1968.25 381.264 Q1970.7 381.264 1972.99 380.662 Q1975.31 380.061 1977.58 378.857 L1977.58 382.885 Q1975.28 383.857 1972.88 384.366 Q1970.47 384.875 1967.99 384.875 Q1961.79 384.875 1958.15 381.264 Q1954.54 377.653 1954.54 371.496 Q1954.54 365.13 1957.97 361.403 Q1961.42 357.653 1967.25 357.653 Q1972.48 357.653 1975.52 361.033 Q1978.57 364.389 1978.57 370.176 M1974.31 368.926 Q1974.27 365.431 1972.34 363.348 Q1970.45 361.264 1967.3 361.264 Q1963.73 361.264 1961.58 363.278 Q1959.45 365.292 1959.13 368.95 L1974.31 368.926 Z" fill="#000000" fill-rule="evenodd" fill-opacity="1" /><path clip-path="url(#clip370)" d="M 0 0 M1983.69 349.644 L2002.04 349.644 L2002.04 353.579 L1987.97 353.579 L1987.97 362.051 Q1988.99 361.704 1990.01 361.542 Q1991.02 361.357 1992.04 361.357 Q1997.83 361.357 2001.21 364.528 Q2004.59 367.7 2004.59 373.116 Q2004.59 378.695 2001.12 381.797 Q1997.64 384.875 1991.33 384.875 Q1989.15 384.875 1986.88 384.505 Q1984.64 384.135 1982.23 383.394 L1982.23 378.695 Q1984.31 379.829 1986.53 380.385 Q1988.76 380.94 1991.23 380.94 Q1995.24 380.94 1997.58 378.834 Q1999.91 376.727 1999.91 373.116 Q1999.91 369.505 1997.58 367.399 Q1995.24 365.292 1991.23 365.292 Q1989.36 365.292 1987.48 365.709 Q1985.63 366.125 1983.69 367.005 L1983.69 349.644 Z" fill="#000000" fill-rule="evenodd" fill-opacity="1" /><polyline clip-path="url(#clip370)" style="stroke:#ac8d18; stroke-width:4; stroke-opacity:1; fill:none" points="
  1687.25,427.404 1825.49,427.404 
  "/>
<path clip-path="url(#clip370)" d="M 0 0 M1848.53 410.124 L1877.76 410.124 L1877.76 414.059 L1865.49 414.059 L1865.49 444.684 L1860.79 444.684 L1860.79 414.059 L1848.53 414.059 L1848.53 410.124 Z" fill="#000000" fill-rule="evenodd" fill-opacity="1" /><path clip-path="url(#clip370)" d="M 0 0 M1890.91 419.522 L1890.91 423.55 Q1889.1 422.624 1887.16 422.161 Q1885.21 421.698 1883.13 421.698 Q1879.96 421.698 1878.36 422.67 Q1876.79 423.643 1876.79 425.587 Q1876.79 427.068 1877.92 427.925 Q1879.06 428.758 1882.48 429.522 L1883.94 429.846 Q1888.48 430.818 1890.38 432.601 Q1892.3 434.36 1892.3 437.531 Q1892.3 441.142 1889.43 443.249 Q1886.58 445.355 1881.58 445.355 Q1879.5 445.355 1877.23 444.939 Q1874.98 444.545 1872.48 443.735 L1872.48 439.337 Q1874.84 440.564 1877.14 441.189 Q1879.43 441.791 1881.67 441.791 Q1884.68 441.791 1886.3 440.772 Q1887.92 439.73 1887.92 437.855 Q1887.92 436.119 1886.74 435.193 Q1885.59 434.267 1881.63 433.411 L1880.15 433.064 Q1876.19 432.23 1874.43 430.518 Q1872.67 428.781 1872.67 425.772 Q1872.67 422.115 1875.26 420.124 Q1877.85 418.133 1882.62 418.133 Q1884.98 418.133 1887.07 418.481 Q1889.15 418.828 1890.91 419.522 Z" fill="#000000" fill-rule="evenodd" fill-opacity="1" /><path clip-path="url(#clip370)" d="M 0 0 M1896.77 418.758 L1901.02 418.758 L1901.02 444.684 L1896.77 444.684 L1896.77 418.758 M1896.77 408.666 L1901.02 408.666 L1901.02 414.059 L1896.77 414.059 L1896.77 408.666 Z" fill="#000000" fill-rule="evenodd" fill-opacity="1" /><path clip-path="url(#clip370)" d="M 0 0 M1909.71 411.397 L1909.71 418.758 L1918.48 418.758 L1918.48 422.068 L1909.71 422.068 L1909.71 436.142 Q1909.71 439.314 1910.56 440.217 Q1911.44 441.119 1914.1 441.119 L1918.48 441.119 L1918.48 444.684 L1914.1 444.684 Q1909.17 444.684 1907.3 442.855 Q1905.42 441.004 1905.42 436.142 L1905.42 422.068 L1902.3 422.068 L1902.3 418.758 L1905.42 418.758 L1905.42 411.397 L1909.71 411.397 Z" fill="#000000" fill-rule="evenodd" fill-opacity="1" /><path clip-path="url(#clip370)" d="M 0 0 M1923.59 410.124 L1941.95 410.124 L1941.95 414.059 L1927.88 414.059 L1927.88 422.531 Q1928.9 422.184 1929.91 422.022 Q1930.93 421.837 1931.95 421.837 Q1937.74 421.837 1941.12 425.008 Q1944.5 428.18 1944.5 433.596 Q1944.5 439.175 1941.02 442.277 Q1937.55 445.355 1931.23 445.355 Q1929.06 445.355 1926.79 444.985 Q1924.54 444.615 1922.14 443.874 L1922.14 439.175 Q1924.22 440.309 1926.44 440.865 Q1928.66 441.42 1931.14 441.42 Q1935.14 441.42 1937.48 439.314 Q1939.82 437.207 1939.82 433.596 Q1939.82 429.985 1937.48 427.879 Q1935.14 425.772 1931.14 425.772 Q1929.27 425.772 1927.39 426.189 Q1925.54 426.605 1923.59 427.485 L1923.59 410.124 Z" fill="#000000" fill-rule="evenodd" fill-opacity="1" /><polyline clip-path="url(#clip370)" style="stroke:#00a9ad; stroke-width:4; stroke-opacity:1; fill:none" points="
  1687.25,487.884 1825.49,487.884 
  "/>
<path clip-path="url(#clip370)" d="M 0 0 M1861.72 505.164 L1848.53 470.604 L1853.41 470.604 L1864.36 499.701 L1875.33 470.604 L1880.19 470.604 L1867.02 505.164 L1861.72 505.164 Z" fill="#000000" fill-rule="evenodd" fill-opacity="1" /><path clip-path="url(#clip370)" d="M 0 0 M1903.15 491.136 L1903.15 493.22 L1883.57 493.22 Q1883.85 497.618 1886.21 499.933 Q1888.59 502.224 1892.83 502.224 Q1895.28 502.224 1897.58 501.622 Q1899.89 501.021 1902.16 499.817 L1902.16 503.845 Q1899.87 504.817 1897.46 505.326 Q1895.05 505.835 1892.58 505.835 Q1886.37 505.835 1882.74 502.224 Q1879.13 498.613 1879.13 492.456 Q1879.13 486.09 1882.55 482.363 Q1886 478.613 1891.84 478.613 Q1897.07 478.613 1900.1 481.993 Q1903.15 485.349 1903.15 491.136 M1898.9 489.886 Q1898.85 486.391 1896.93 484.308 Q1895.03 482.224 1891.88 482.224 Q1888.32 482.224 1886.16 484.238 Q1884.03 486.252 1883.71 489.91 L1898.9 489.886 Z" fill="#000000" fill-rule="evenodd" fill-opacity="1" /><path clip-path="url(#clip370)" d="M 0 0 M1907.62 469.146 L1911.88 469.146 L1911.88 505.164 L1907.62 505.164 L1907.62 469.146 Z" fill="#000000" fill-rule="evenodd" fill-opacity="1" /><path clip-path="url(#clip370)" d="M 0 0 M1926.4 482.224 Q1922.97 482.224 1920.98 484.91 Q1918.99 487.572 1918.99 492.224 Q1918.99 496.877 1920.96 499.562 Q1922.95 502.224 1926.4 502.224 Q1929.8 502.224 1931.79 499.539 Q1933.78 496.854 1933.78 492.224 Q1933.78 487.618 1931.79 484.933 Q1929.8 482.224 1926.4 482.224 M1926.4 478.613 Q1931.95 478.613 1935.12 482.224 Q1938.29 485.835 1938.29 492.224 Q1938.29 498.59 1935.12 502.224 Q1931.95 505.835 1926.4 505.835 Q1920.82 505.835 1917.65 502.224 Q1914.5 498.59 1914.5 492.224 Q1914.5 485.835 1917.65 482.224 Q1920.82 478.613 1926.4 478.613 Z" fill="#000000" fill-rule="evenodd" fill-opacity="1" /><path clip-path="url(#clip370)" d="M 0 0 M1961.42 480.234 L1961.42 484.215 Q1959.61 483.22 1957.78 482.734 Q1955.98 482.224 1954.13 482.224 Q1949.98 482.224 1947.69 484.863 Q1945.4 487.479 1945.4 492.224 Q1945.4 496.97 1947.69 499.609 Q1949.98 502.224 1954.13 502.224 Q1955.98 502.224 1957.78 501.738 Q1959.61 501.229 1961.42 500.234 L1961.42 504.169 Q1959.64 505.002 1957.71 505.419 Q1955.82 505.835 1953.66 505.835 Q1947.81 505.835 1944.36 502.155 Q1940.91 498.474 1940.91 492.224 Q1940.91 485.882 1944.38 482.248 Q1947.88 478.613 1953.94 478.613 Q1955.91 478.613 1957.78 479.03 Q1959.66 479.423 1961.42 480.234 Z" fill="#000000" fill-rule="evenodd" fill-opacity="1" /><path clip-path="url(#clip370)" d="M 0 0 M1965.89 479.238 L1970.14 479.238 L1970.14 505.164 L1965.89 505.164 L1965.89 479.238 M1965.89 469.146 L1970.14 469.146 L1970.14 474.539 L1965.89 474.539 L1965.89 469.146 Z" fill="#000000" fill-rule="evenodd" fill-opacity="1" /><path clip-path="url(#clip370)" d="M 0 0 M1978.83 471.877 L1978.83 479.238 L1987.6 479.238 L1987.6 482.548 L1978.83 482.548 L1978.83 496.622 Q1978.83 499.794 1979.68 500.697 Q1980.56 501.599 1983.22 501.599 L1987.6 501.599 L1987.6 505.164 L1983.22 505.164 Q1978.29 505.164 1976.42 503.335 Q1974.54 501.484 1974.54 496.622 L1974.54 482.548 L1971.42 482.548 L1971.42 479.238 L1974.54 479.238 L1974.54 471.877 L1978.83 471.877 Z" fill="#000000" fill-rule="evenodd" fill-opacity="1" /><path clip-path="url(#clip370)" d="M 0 0 M2002.85 507.571 Q2001.05 512.201 1999.33 513.613 Q1997.62 515.025 1994.75 515.025 L1991.35 515.025 L1991.35 511.46 L1993.85 511.46 Q1995.61 511.46 1996.58 510.627 Q1997.55 509.794 1998.73 506.692 L1999.5 504.747 L1989.01 479.238 L1993.52 479.238 L2001.63 499.516 L2009.73 479.238 L2014.24 479.238 L2002.85 507.571 Z" fill="#000000" fill-rule="evenodd" fill-opacity="1" /><path clip-path="url(#clip370)" d="M 0 0 M2027.81 505.164 L2014.61 470.604 L2019.5 470.604 L2030.45 499.701 L2041.42 470.604 L2046.28 470.604 L2033.11 505.164 L2027.81 505.164 Z" fill="#000000" fill-rule="evenodd" fill-opacity="1" /><path clip-path="url(#clip370)" d="M 0 0 M2069.24 491.136 L2069.24 493.22 L2049.66 493.22 Q2049.94 497.618 2052.3 499.933 Q2054.68 502.224 2058.92 502.224 Q2061.37 502.224 2063.66 501.622 Q2065.98 501.021 2068.25 499.817 L2068.25 503.845 Q2065.95 504.817 2063.55 505.326 Q2061.14 505.835 2058.66 505.835 Q2052.46 505.835 2048.82 502.224 Q2045.21 498.613 2045.21 492.456 Q2045.21 486.09 2048.64 482.363 Q2052.09 478.613 2057.92 478.613 Q2063.15 478.613 2066.19 481.993 Q2069.24 485.349 2069.24 491.136 M2064.98 489.886 Q2064.94 486.391 2063.01 484.308 Q2061.12 482.224 2057.97 482.224 Q2054.4 482.224 2052.25 484.238 Q2050.12 486.252 2049.8 489.91 L2064.98 489.886 Z" fill="#000000" fill-rule="evenodd" fill-opacity="1" /><path clip-path="url(#clip370)" d="M 0 0 M2088.73 483.22 Q2088.01 482.803 2087.16 482.618 Q2086.32 482.41 2085.31 482.41 Q2081.7 482.41 2079.75 484.771 Q2077.83 487.109 2077.83 491.507 L2077.83 505.164 L2073.55 505.164 L2073.55 479.238 L2077.83 479.238 L2077.83 483.266 Q2079.17 480.905 2081.32 479.771 Q2083.48 478.613 2086.56 478.613 Q2087 478.613 2087.53 478.683 Q2088.06 478.729 2088.71 478.845 L2088.73 483.22 Z" fill="#000000" fill-rule="evenodd" fill-opacity="1" /><path clip-path="url(#clip370)" d="M 0 0 M2093.2 469.146 L2097.46 469.146 L2097.46 505.164 L2093.2 505.164 L2093.2 469.146 Z" fill="#000000" fill-rule="evenodd" fill-opacity="1" /><path clip-path="url(#clip370)" d="M 0 0 M2124.1 491.136 L2124.1 493.22 L2104.52 493.22 Q2104.8 497.618 2107.16 499.933 Q2109.54 502.224 2113.78 502.224 Q2116.23 502.224 2118.52 501.622 Q2120.84 501.021 2123.11 499.817 L2123.11 503.845 Q2120.82 504.817 2118.41 505.326 Q2116 505.835 2113.52 505.835 Q2107.32 505.835 2103.69 502.224 Q2100.07 498.613 2100.07 492.456 Q2100.07 486.09 2103.5 482.363 Q2106.95 478.613 2112.78 478.613 Q2118.01 478.613 2121.05 481.993 Q2124.1 485.349 2124.1 491.136 M2119.84 489.886 Q2119.8 486.391 2117.88 484.308 Q2115.98 482.224 2112.83 482.224 Q2109.26 482.224 2107.11 484.238 Q2104.98 486.252 2104.66 489.91 L2119.84 489.886 Z" fill="#000000" fill-rule="evenodd" fill-opacity="1" /><path clip-path="url(#clip370)" d="M 0 0 M2132.78 471.877 L2132.78 479.238 L2141.56 479.238 L2141.56 482.548 L2132.78 482.548 L2132.78 496.622 Q2132.78 499.794 2133.64 500.697 Q2134.52 501.599 2137.18 501.599 L2141.56 501.599 L2141.56 505.164 L2137.18 505.164 Q2132.25 505.164 2130.38 503.335 Q2128.5 501.484 2128.5 496.622 L2128.5 482.548 L2125.38 482.548 L2125.38 479.238 L2128.5 479.238 L2128.5 471.877 L2132.78 471.877 Z" fill="#000000" fill-rule="evenodd" fill-opacity="1" /><polyline clip-path="url(#clip370)" style="stroke:#ed5d92; stroke-width:4; stroke-opacity:1; fill:none" points="
  1687.25,548.364 1825.49,548.364 
  "/>
<path clip-path="url(#clip370)" d="M 0 0 M1861.72 565.644 L1848.53 531.084 L1853.41 531.084 L1864.36 560.181 L1875.33 531.084 L1880.19 531.084 L1867.02 565.644 L1861.72 565.644 Z" fill="#000000" fill-rule="evenodd" fill-opacity="1" /><path clip-path="url(#clip370)" d="M 0 0 M1903.15 551.616 L1903.15 553.7 L1883.57 553.7 Q1883.85 558.098 1886.21 560.413 Q1888.59 562.704 1892.83 562.704 Q1895.28 562.704 1897.58 562.102 Q1899.89 561.501 1902.16 560.297 L1902.16 564.325 Q1899.87 565.297 1897.46 565.806 Q1895.05 566.315 1892.58 566.315 Q1886.37 566.315 1882.74 562.704 Q1879.13 559.093 1879.13 552.936 Q1879.13 546.57 1882.55 542.843 Q1886 539.093 1891.84 539.093 Q1897.07 539.093 1900.1 542.473 Q1903.15 545.829 1903.15 551.616 M1898.9 550.366 Q1898.85 546.871 1896.93 544.788 Q1895.03 542.704 1891.88 542.704 Q1888.32 542.704 1886.16 544.718 Q1884.03 546.732 1883.71 550.39 L1898.9 550.366 Z" fill="#000000" fill-rule="evenodd" fill-opacity="1" /><path clip-path="url(#clip370)" d="M 0 0 M1922.65 543.7 Q1921.93 543.283 1921.07 543.098 Q1920.24 542.89 1919.22 542.89 Q1915.61 542.89 1913.66 545.251 Q1911.74 547.589 1911.74 551.987 L1911.74 565.644 L1907.46 565.644 L1907.46 539.718 L1911.74 539.718 L1911.74 543.746 Q1913.08 541.385 1915.24 540.251 Q1917.39 539.093 1920.47 539.093 Q1920.91 539.093 1921.44 539.163 Q1921.97 539.209 1922.62 539.325 L1922.65 543.7 Z" fill="#000000" fill-rule="evenodd" fill-opacity="1" /><path clip-path="url(#clip370)" d="M 0 0 M1947.83 549.996 L1947.83 565.644 L1943.57 565.644 L1943.57 550.135 Q1943.57 546.454 1942.14 544.626 Q1940.7 542.797 1937.83 542.797 Q1934.38 542.797 1932.39 544.996 Q1930.4 547.195 1930.4 550.991 L1930.4 565.644 L1926.12 565.644 L1926.12 539.718 L1930.4 539.718 L1930.4 543.746 Q1931.93 541.408 1933.99 540.251 Q1936.07 539.093 1938.78 539.093 Q1943.25 539.093 1945.54 541.871 Q1947.83 544.626 1947.83 549.996 Z" fill="#000000" fill-rule="evenodd" fill-opacity="1" /><path clip-path="url(#clip370)" d="M 0 0 M1951.72 531.084 L1973.94 531.084 L1973.94 533.075 L1961.39 565.644 L1956.51 565.644 L1968.32 535.019 L1951.72 535.019 L1951.72 531.084 Z" fill="#000000" fill-rule="evenodd" fill-opacity="1" /><polyline clip-path="url(#clip370)" style="stroke:#c68125; stroke-width:4; stroke-opacity:1; fill:none" points="
  1687.25,608.844 1825.49,608.844 
  "/>
<path clip-path="url(#clip370)" d="M 0 0 M1861.72 626.124 L1848.53 591.564 L1853.41 591.564 L1864.36 620.661 L1875.33 591.564 L1880.19 591.564 L1867.02 626.124 L1861.72 626.124 Z" fill="#000000" fill-rule="evenodd" fill-opacity="1" /><path clip-path="url(#clip370)" d="M 0 0 M1903.15 612.096 L1903.15 614.18 L1883.57 614.18 Q1883.85 618.578 1886.21 620.893 Q1888.59 623.184 1892.83 623.184 Q1895.28 623.184 1897.58 622.582 Q1899.89 621.981 1902.16 620.777 L1902.16 624.805 Q1899.87 625.777 1897.46 626.286 Q1895.05 626.795 1892.58 626.795 Q1886.37 626.795 1882.74 623.184 Q1879.13 619.573 1879.13 613.416 Q1879.13 607.05 1882.55 603.323 Q1886 599.573 1891.84 599.573 Q1897.07 599.573 1900.1 602.953 Q1903.15 606.309 1903.15 612.096 M1898.9 610.846 Q1898.85 607.351 1896.93 605.268 Q1895.03 603.184 1891.88 603.184 Q1888.32 603.184 1886.16 605.198 Q1884.03 607.212 1883.71 610.87 L1898.9 610.846 Z" fill="#000000" fill-rule="evenodd" fill-opacity="1" /><path clip-path="url(#clip370)" d="M 0 0 M1922.65 604.18 Q1921.93 603.763 1921.07 603.578 Q1920.24 603.37 1919.22 603.37 Q1915.61 603.37 1913.66 605.731 Q1911.74 608.069 1911.74 612.467 L1911.74 626.124 L1907.46 626.124 L1907.46 600.198 L1911.74 600.198 L1911.74 604.226 Q1913.08 601.865 1915.24 600.731 Q1917.39 599.573 1920.47 599.573 Q1920.91 599.573 1921.44 599.643 Q1921.97 599.689 1922.62 599.805 L1922.65 604.18 Z" fill="#000000" fill-rule="evenodd" fill-opacity="1" /><path clip-path="url(#clip370)" d="M 0 0 M1947.83 610.476 L1947.83 626.124 L1943.57 626.124 L1943.57 610.615 Q1943.57 606.934 1942.14 605.106 Q1940.7 603.277 1937.83 603.277 Q1934.38 603.277 1932.39 605.476 Q1930.4 607.675 1930.4 611.471 L1930.4 626.124 L1926.12 626.124 L1926.12 600.198 L1930.4 600.198 L1930.4 604.226 Q1931.93 601.888 1933.99 600.731 Q1936.07 599.573 1938.78 599.573 Q1943.25 599.573 1945.54 602.351 Q1947.83 605.106 1947.83 610.476 Z" fill="#000000" fill-rule="evenodd" fill-opacity="1" /><path clip-path="url(#clip370)" d="M 0 0 M1953.04 625.407 L1953.04 621.147 Q1954.8 621.981 1956.6 622.42 Q1958.41 622.86 1960.14 622.86 Q1964.77 622.86 1967.2 619.758 Q1969.66 616.633 1970.01 610.291 Q1968.66 612.282 1966.6 613.346 Q1964.54 614.411 1962.04 614.411 Q1956.86 614.411 1953.83 611.286 Q1950.82 608.138 1950.82 602.698 Q1950.82 597.374 1953.96 594.157 Q1957.11 590.939 1962.34 590.939 Q1968.34 590.939 1971.49 595.546 Q1974.66 600.129 1974.66 608.879 Q1974.66 617.05 1970.77 621.934 Q1966.9 626.795 1960.35 626.795 Q1958.59 626.795 1956.79 626.448 Q1954.98 626.101 1953.04 625.407 M1962.34 610.754 Q1965.49 610.754 1967.32 608.601 Q1969.17 606.448 1969.17 602.698 Q1969.17 598.971 1967.32 596.819 Q1965.49 594.643 1962.34 594.643 Q1959.2 594.643 1957.34 596.819 Q1955.52 598.971 1955.52 602.698 Q1955.52 606.448 1957.34 608.601 Q1959.2 610.754 1962.34 610.754 Z" fill="#000000" fill-rule="evenodd" fill-opacity="1" /><polyline clip-path="url(#clip370)" style="stroke:#00a98d; stroke-width:4; stroke-opacity:1; fill:none" points="
  1687.25,669.324 1825.49,669.324 
  "/>
<path clip-path="url(#clip370)" d="M 0 0 M1848.53 652.044 L1853.55 652.044 L1863.13 666.257 L1872.65 652.044 L1877.67 652.044 L1865.45 670.146 L1865.45 686.604 L1860.75 686.604 L1860.75 670.146 L1848.53 652.044 Z" fill="#000000" fill-rule="evenodd" fill-opacity="1" /><path clip-path="url(#clip370)" d="M 0 0 M1885.89 663.664 Q1882.46 663.664 1880.47 666.35 Q1878.48 669.012 1878.48 673.664 Q1878.48 678.317 1880.45 681.002 Q1882.44 683.664 1885.89 683.664 Q1889.29 683.664 1891.28 680.979 Q1893.27 678.294 1893.27 673.664 Q1893.27 669.058 1891.28 666.373 Q1889.29 663.664 1885.89 663.664 M1885.89 660.053 Q1891.44 660.053 1894.61 663.664 Q1897.78 667.275 1897.78 673.664 Q1897.78 680.03 1894.61 683.664 Q1891.44 687.275 1885.89 687.275 Q1880.31 687.275 1877.14 683.664 Q1873.99 680.03 1873.99 673.664 Q1873.99 667.275 1877.14 663.664 Q1880.31 660.053 1885.89 660.053 Z" fill="#000000" fill-rule="evenodd" fill-opacity="1" /><path clip-path="url(#clip370)" d="M 0 0 M1918.78 661.442 L1918.78 665.47 Q1916.97 664.544 1915.03 664.081 Q1913.08 663.618 1911 663.618 Q1907.83 663.618 1906.23 664.59 Q1904.66 665.563 1904.66 667.507 Q1904.66 668.988 1905.79 669.845 Q1906.93 670.678 1910.35 671.442 L1911.81 671.766 Q1916.35 672.738 1918.25 674.521 Q1920.17 676.28 1920.17 679.451 Q1920.17 683.062 1917.3 685.169 Q1914.45 687.275 1909.45 687.275 Q1907.37 687.275 1905.1 686.859 Q1902.85 686.465 1900.35 685.655 L1900.35 681.257 Q1902.71 682.484 1905.01 683.109 Q1907.3 683.711 1909.54 683.711 Q1912.55 683.711 1914.17 682.692 Q1915.79 681.65 1915.79 679.775 Q1915.79 678.039 1914.61 677.113 Q1913.46 676.187 1909.5 675.331 L1908.02 674.984 Q1904.06 674.15 1902.3 672.438 Q1900.54 670.701 1900.54 667.692 Q1900.54 664.035 1903.13 662.044 Q1905.72 660.053 1910.49 660.053 Q1912.85 660.053 1914.94 660.401 Q1917.02 660.748 1918.78 661.442 Z" fill="#000000" fill-rule="evenodd" fill-opacity="1" /><path clip-path="url(#clip370)" d="M 0 0 M1946.19 670.956 L1946.19 686.604 L1941.93 686.604 L1941.93 671.095 Q1941.93 667.414 1940.49 665.586 Q1939.06 663.757 1936.19 663.757 Q1932.74 663.757 1930.75 665.956 Q1928.76 668.155 1928.76 671.951 L1928.76 686.604 L1924.47 686.604 L1924.47 650.586 L1928.76 650.586 L1928.76 664.706 Q1930.28 662.368 1932.34 661.211 Q1934.43 660.053 1937.14 660.053 Q1941.6 660.053 1943.89 662.831 Q1946.19 665.586 1946.19 670.956 Z" fill="#000000" fill-rule="evenodd" fill-opacity="1" /><path clip-path="url(#clip370)" d="M 0 0 M1950.65 660.678 L1954.91 660.678 L1954.91 686.604 L1950.65 686.604 L1950.65 660.678 M1950.65 650.586 L1954.91 650.586 L1954.91 655.979 L1950.65 655.979 L1950.65 650.586 Z" fill="#000000" fill-rule="evenodd" fill-opacity="1" /><path clip-path="url(#clip370)" d="M 0 0 M1976.44 664.613 L1976.44 650.586 L1980.7 650.586 L1980.7 686.604 L1976.44 686.604 L1976.44 682.715 Q1975.1 685.03 1973.04 686.164 Q1971 687.275 1968.13 687.275 Q1963.43 687.275 1960.47 683.525 Q1957.53 679.775 1957.53 673.664 Q1957.53 667.553 1960.47 663.803 Q1963.43 660.053 1968.13 660.053 Q1971 660.053 1973.04 661.188 Q1975.1 662.299 1976.44 664.613 M1961.93 673.664 Q1961.93 678.363 1963.85 681.049 Q1965.79 683.711 1969.17 683.711 Q1972.55 683.711 1974.5 681.049 Q1976.44 678.363 1976.44 673.664 Q1976.44 668.965 1974.5 666.303 Q1972.55 663.618 1969.17 663.618 Q1965.79 663.618 1963.85 666.303 Q1961.93 668.965 1961.93 673.664 Z" fill="#000000" fill-rule="evenodd" fill-opacity="1" /><path clip-path="url(#clip370)" d="M 0 0 M1996.95 673.572 Q1991.79 673.572 1989.8 674.752 Q1987.81 675.933 1987.81 678.78 Q1987.81 681.049 1989.29 682.391 Q1990.79 683.711 1993.36 683.711 Q1996.9 683.711 1999.03 681.211 Q2001.19 678.687 2001.19 674.521 L2001.19 673.572 L1996.95 673.572 M2005.45 671.813 L2005.45 686.604 L2001.19 686.604 L2001.19 682.669 Q1999.73 685.03 1997.55 686.164 Q1995.38 687.275 1992.23 687.275 Q1988.25 687.275 1985.89 685.053 Q1983.55 682.808 1983.55 679.058 Q1983.55 674.683 1986.46 672.461 Q1989.4 670.238 1995.21 670.238 L2001.19 670.238 L2001.19 669.822 Q2001.19 666.882 1999.24 665.285 Q1997.32 663.664 1993.83 663.664 Q1991.6 663.664 1989.5 664.197 Q1987.39 664.729 1985.45 665.794 L1985.45 661.859 Q1987.78 660.956 1989.98 660.516 Q1992.18 660.053 1994.27 660.053 Q1999.89 660.053 2002.67 662.97 Q2005.45 665.887 2005.45 671.813 Z" fill="#000000" fill-rule="evenodd" fill-opacity="1" /><path clip-path="url(#clip370)" d="M 0 0 M2021.09 667.461 Q2017.95 667.461 2016.09 669.613 Q2014.26 671.766 2014.26 675.516 Q2014.26 679.243 2016.09 681.419 Q2017.95 683.572 2021.09 683.572 Q2024.24 683.572 2026.07 681.419 Q2027.92 679.243 2027.92 675.516 Q2027.92 671.766 2026.07 669.613 Q2024.24 667.461 2021.09 667.461 M2030.38 652.808 L2030.38 657.067 Q2028.62 656.234 2026.81 655.794 Q2025.03 655.354 2023.27 655.354 Q2018.64 655.354 2016.19 658.479 Q2013.76 661.604 2013.41 667.924 Q2014.77 665.91 2016.83 664.845 Q2018.89 663.757 2021.37 663.757 Q2026.58 663.757 2029.59 666.928 Q2032.62 670.076 2032.62 675.516 Q2032.62 680.84 2029.47 684.058 Q2026.33 687.275 2021.09 687.275 Q2015.1 687.275 2011.93 682.692 Q2008.76 678.086 2008.76 669.359 Q2008.76 661.164 2012.64 656.303 Q2016.53 651.419 2023.08 651.419 Q2024.84 651.419 2026.63 651.766 Q2028.43 652.114 2030.38 652.808 Z" fill="#000000" fill-rule="evenodd" fill-opacity="1" /></svg>
