<?xml version="1.0" encoding="utf-8"?>
<svg xmlns="http://www.w3.org/2000/svg" xmlns:xlink="http://www.w3.org/1999/xlink" width="576" height="384" viewBox="0 0 2304 1536">
<defs>
  <clipPath id="clip5100">
    <rect x="0" y="0" width="2304" height="1536"/>
  </clipPath>
</defs>
<path clip-path="url(#clip5100)" d="
M0 1536 L2304 1536 L2304 0 L0 0  Z
  " fill="#ffffff" fill-rule="evenodd" fill-opacity="1"/>
<defs>
  <clipPath id="clip5101">
    <rect x="460" y="0" width="1614" height="1536"/>
  </clipPath>
</defs>
<path clip-path="url(#clip5100)" d="
M290.893 1362.26 L2256.76 1362.26 L2256.76 121.675 L290.893 121.675  Z
  " fill="#ffffff" fill-rule="evenodd" fill-opacity="1"/>
<defs>
  <clipPath id="clip5102">
    <rect x="290" y="121" width="1967" height="1242"/>
  </clipPath>
</defs>
<polyline clip-path="url(#clip5102)" style="stroke:#000000; stroke-width:2; stroke-opacity:0.1; fill:none" points="
  468.887,1362.26 468.887,121.675 
  "/>
<polyline clip-path="url(#clip5102)" style="stroke:#000000; stroke-width:2; stroke-opacity:0.1; fill:none" points="
  972.744,1362.26 972.744,121.675 
  "/>
<polyline clip-path="url(#clip5102)" style="stroke:#000000; stroke-width:2; stroke-opacity:0.1; fill:none" points="
  1476.6,1362.26 1476.6,121.675 
  "/>
<polyline clip-path="url(#clip5102)" style="stroke:#000000; stroke-width:2; stroke-opacity:0.1; fill:none" points="
  1980.46,1362.26 1980.46,121.675 
  "/>
<polyline clip-path="url(#clip5102)" style="stroke:#000000; stroke-width:2; stroke-opacity:0.1; fill:none" points="
  290.893,1214.57 2256.76,1214.57 
  "/>
<polyline clip-path="url(#clip5102)" style="stroke:#000000; stroke-width:2; stroke-opacity:0.1; fill:none" points="
  290.893,1009.62 2256.76,1009.62 
  "/>
<polyline clip-path="url(#clip5102)" style="stroke:#000000; stroke-width:2; stroke-opacity:0.1; fill:none" points="
  290.893,804.675 2256.76,804.675 
  "/>
<polyline clip-path="url(#clip5102)" style="stroke:#000000; stroke-width:2; stroke-opacity:0.1; fill:none" points="
  290.893,599.727 2256.76,599.727 
  "/>
<polyline clip-path="url(#clip5102)" style="stroke:#000000; stroke-width:2; stroke-opacity:0.1; fill:none" points="
  290.893,394.778 2256.76,394.778 
  "/>
<polyline clip-path="url(#clip5102)" style="stroke:#000000; stroke-width:2; stroke-opacity:0.1; fill:none" points="
  290.893,189.829 2256.76,189.829 
  "/>
<polyline clip-path="url(#clip5100)" style="stroke:#000000; stroke-width:4; stroke-opacity:1; fill:none" points="
  290.893,1362.26 2256.76,1362.26 
  "/>
<polyline clip-path="url(#clip5100)" style="stroke:#000000; stroke-width:4; stroke-opacity:1; fill:none" points="
  290.893,1362.26 290.893,121.675 
  "/>
<polyline clip-path="url(#clip5100)" style="stroke:#000000; stroke-width:4; stroke-opacity:1; fill:none" points="
  468.887,1362.26 468.887,1347.37 
  "/>
<polyline clip-path="url(#clip5100)" style="stroke:#000000; stroke-width:4; stroke-opacity:1; fill:none" points="
  972.744,1362.26 972.744,1347.37 
  "/>
<polyline clip-path="url(#clip5100)" style="stroke:#000000; stroke-width:4; stroke-opacity:1; fill:none" points="
  1476.6,1362.26 1476.6,1347.37 
  "/>
<polyline clip-path="url(#clip5100)" style="stroke:#000000; stroke-width:4; stroke-opacity:1; fill:none" points="
  1980.46,1362.26 1980.46,1347.37 
  "/>
<polyline clip-path="url(#clip5100)" style="stroke:#000000; stroke-width:4; stroke-opacity:1; fill:none" points="
  290.893,1214.57 314.484,1214.57 
  "/>
<polyline clip-path="url(#clip5100)" style="stroke:#000000; stroke-width:4; stroke-opacity:1; fill:none" points="
  290.893,1009.62 314.484,1009.62 
  "/>
<polyline clip-path="url(#clip5100)" style="stroke:#000000; stroke-width:4; stroke-opacity:1; fill:none" points="
  290.893,804.675 314.484,804.675 
  "/>
<polyline clip-path="url(#clip5100)" style="stroke:#000000; stroke-width:4; stroke-opacity:1; fill:none" points="
  290.893,599.727 314.484,599.727 
  "/>
<polyline clip-path="url(#clip5100)" style="stroke:#000000; stroke-width:4; stroke-opacity:1; fill:none" points="
  290.893,394.778 314.484,394.778 
  "/>
<polyline clip-path="url(#clip5100)" style="stroke:#000000; stroke-width:4; stroke-opacity:1; fill:none" points="
  290.893,189.829 314.484,189.829 
  "/>
<g clip-path="url(#clip5100)">
<text style="fill:#000000; fill-opacity:1; font-family:Arial,Helvetica Neue,Helvetica,sans-serif; font-size:48px; text-anchor:start;" transform="rotate(0, 398.089, 1436.79)" x="398.089" y="1436.79">10</text>
</g>
<g clip-path="url(#clip5100)">
<text style="fill:#000000; fill-opacity:1; font-family:Arial,Helvetica Neue,Helvetica,sans-serif; font-size:38px; text-anchor:start;" transform="rotate(0, 451.613, 1409.38)" x="451.613" y="1409.38">-</text>
</g>
<g clip-path="url(#clip5100)">
<text style="fill:#000000; fill-opacity:1; font-family:Arial,Helvetica Neue,Helvetica,sans-serif; font-size:38px; text-anchor:start;" transform="rotate(0, 474.453, 1409.38)" x="474.453" y="1409.38">4.5 </text>
</g>
<g clip-path="url(#clip5100)">
<text style="fill:#000000; fill-opacity:1; font-family:Arial,Helvetica Neue,Helvetica,sans-serif; font-size:48px; text-anchor:start;" transform="rotate(0, 901.945, 1436.79)" x="901.945" y="1436.79">10</text>
</g>
<g clip-path="url(#clip5100)">
<text style="fill:#000000; fill-opacity:1; font-family:Arial,Helvetica Neue,Helvetica,sans-serif; font-size:38px; text-anchor:start;" transform="rotate(0, 955.47, 1409.38)" x="955.47" y="1409.38">-</text>
</g>
<g clip-path="url(#clip5100)">
<text style="fill:#000000; fill-opacity:1; font-family:Arial,Helvetica Neue,Helvetica,sans-serif; font-size:38px; text-anchor:start;" transform="rotate(0, 978.309, 1409.38)" x="978.309" y="1409.38">4.0 </text>
</g>
<g clip-path="url(#clip5100)">
<text style="fill:#000000; fill-opacity:1; font-family:Arial,Helvetica Neue,Helvetica,sans-serif; font-size:48px; text-anchor:start;" transform="rotate(0, 1405.8, 1436.79)" x="1405.8" y="1436.79">10</text>
</g>
<g clip-path="url(#clip5100)">
<text style="fill:#000000; fill-opacity:1; font-family:Arial,Helvetica Neue,Helvetica,sans-serif; font-size:38px; text-anchor:start;" transform="rotate(0, 1459.33, 1409.38)" x="1459.33" y="1409.38">-</text>
</g>
<g clip-path="url(#clip5100)">
<text style="fill:#000000; fill-opacity:1; font-family:Arial,Helvetica Neue,Helvetica,sans-serif; font-size:38px; text-anchor:start;" transform="rotate(0, 1482.17, 1409.38)" x="1482.17" y="1409.38">3.5 </text>
</g>
<g clip-path="url(#clip5100)">
<text style="fill:#000000; fill-opacity:1; font-family:Arial,Helvetica Neue,Helvetica,sans-serif; font-size:48px; text-anchor:start;" transform="rotate(0, 1909.66, 1436.79)" x="1909.66" y="1436.79">10</text>
</g>
<g clip-path="url(#clip5100)">
<text style="fill:#000000; fill-opacity:1; font-family:Arial,Helvetica Neue,Helvetica,sans-serif; font-size:38px; text-anchor:start;" transform="rotate(0, 1963.18, 1409.38)" x="1963.18" y="1409.38">-</text>
</g>
<g clip-path="url(#clip5100)">
<text style="fill:#000000; fill-opacity:1; font-family:Arial,Helvetica Neue,Helvetica,sans-serif; font-size:38px; text-anchor:start;" transform="rotate(0, 1986.02, 1409.38)" x="1986.02" y="1409.38">3.0 </text>
</g>
<g clip-path="url(#clip5100)">
<text style="fill:#000000; fill-opacity:1; font-family:Arial,Helvetica Neue,Helvetica,sans-serif; font-size:48px; text-anchor:start;" transform="rotate(0, 149.096, 1238.3)" x="149.096" y="1238.3">10</text>
</g>
<g clip-path="url(#clip5100)">
<text style="fill:#000000; fill-opacity:1; font-family:Arial,Helvetica Neue,Helvetica,sans-serif; font-size:38px; text-anchor:start;" transform="rotate(0, 202.62, 1210.89)" x="202.62" y="1210.89">1.3 </text>
</g>
<g clip-path="url(#clip5100)">
<text style="fill:#000000; fill-opacity:1; font-family:Arial,Helvetica Neue,Helvetica,sans-serif; font-size:48px; text-anchor:start;" transform="rotate(0, 149.096, 1033.35)" x="149.096" y="1033.35">10</text>
</g>
<g clip-path="url(#clip5100)">
<text style="fill:#000000; fill-opacity:1; font-family:Arial,Helvetica Neue,Helvetica,sans-serif; font-size:38px; text-anchor:start;" transform="rotate(0, 202.62, 1005.94)" x="202.62" y="1005.94">1.4 </text>
</g>
<g clip-path="url(#clip5100)">
<text style="fill:#000000; fill-opacity:1; font-family:Arial,Helvetica Neue,Helvetica,sans-serif; font-size:48px; text-anchor:start;" transform="rotate(0, 149.096, 828.403)" x="149.096" y="828.403">10</text>
</g>
<g clip-path="url(#clip5100)">
<text style="fill:#000000; fill-opacity:1; font-family:Arial,Helvetica Neue,Helvetica,sans-serif; font-size:38px; text-anchor:start;" transform="rotate(0, 202.62, 800.992)" x="202.62" y="800.992">1.5 </text>
</g>
<g clip-path="url(#clip5100)">
<text style="fill:#000000; fill-opacity:1; font-family:Arial,Helvetica Neue,Helvetica,sans-serif; font-size:48px; text-anchor:start;" transform="rotate(0, 149.096, 623.454)" x="149.096" y="623.454">10</text>
</g>
<g clip-path="url(#clip5100)">
<text style="fill:#000000; fill-opacity:1; font-family:Arial,Helvetica Neue,Helvetica,sans-serif; font-size:38px; text-anchor:start;" transform="rotate(0, 202.62, 596.044)" x="202.62" y="596.044">1.6 </text>
</g>
<g clip-path="url(#clip5100)">
<text style="fill:#000000; fill-opacity:1; font-family:Arial,Helvetica Neue,Helvetica,sans-serif; font-size:48px; text-anchor:start;" transform="rotate(0, 149.096, 418.506)" x="149.096" y="418.506">10</text>
</g>
<g clip-path="url(#clip5100)">
<text style="fill:#000000; fill-opacity:1; font-family:Arial,Helvetica Neue,Helvetica,sans-serif; font-size:38px; text-anchor:start;" transform="rotate(0, 202.62, 391.095)" x="202.62" y="391.095">1.7 </text>
</g>
<g clip-path="url(#clip5100)">
<text style="fill:#000000; fill-opacity:1; font-family:Arial,Helvetica Neue,Helvetica,sans-serif; font-size:48px; text-anchor:start;" transform="rotate(0, 149.096, 213.557)" x="149.096" y="213.557">10</text>
</g>
<g clip-path="url(#clip5100)">
<text style="fill:#000000; fill-opacity:1; font-family:Arial,Helvetica Neue,Helvetica,sans-serif; font-size:38px; text-anchor:start;" transform="rotate(0, 202.62, 186.147)" x="202.62" y="186.147">1.8 </text>
</g>
<g clip-path="url(#clip5100)">
<text style="fill:#000000; fill-opacity:1; font-family:Arial,Helvetica Neue,Helvetica,sans-serif; font-size:84px; text-anchor:middle;" transform="rotate(0, 1273.82, 73.2)" x="1273.82" y="73.2">Between family, low orders</text>
</g>
<g clip-path="url(#clip5100)">
<text style="fill:#000000; fill-opacity:1; font-family:Arial,Helvetica Neue,Helvetica,sans-serif; font-size:66px; text-anchor:middle;" transform="rotate(0, 1273.82, 1495.16)" x="1273.82" y="1495.16">Error</text>
</g>
<g clip-path="url(#clip5100)">
<text style="fill:#000000; fill-opacity:1; font-family:Arial,Helvetica Neue,Helvetica,sans-serif; font-size:66px; text-anchor:middle;" transform="rotate(-90, 90.2461, 741.967)" x="90.2461" y="741.967">Time (s)</text>
</g>
<polyline clip-path="url(#clip5102)" style="stroke:#009af9; stroke-width:12; stroke-opacity:1; fill:none" points="
  2104.53,780.857 1802.98,479.056 1500.5,364.745 1197.59,156.786 
  "/>
<circle clip-path="url(#clip5102)" style="fill:#000000; stroke:none; fill-opacity:1" cx="2104.53" cy="780.857" r="18"/>
<circle clip-path="url(#clip5102)" style="fill:#009af9; stroke:none; fill-opacity:1" cx="2104.53" cy="780.857" r="14"/>
<circle clip-path="url(#clip5102)" style="fill:#000000; stroke:none; fill-opacity:1" cx="1802.98" cy="479.056" r="18"/>
<circle clip-path="url(#clip5102)" style="fill:#009af9; stroke:none; fill-opacity:1" cx="1802.98" cy="479.056" r="14"/>
<circle clip-path="url(#clip5102)" style="fill:#000000; stroke:none; fill-opacity:1" cx="1500.5" cy="364.745" r="18"/>
<circle clip-path="url(#clip5102)" style="fill:#009af9; stroke:none; fill-opacity:1" cx="1500.5" cy="364.745" r="14"/>
<circle clip-path="url(#clip5102)" style="fill:#000000; stroke:none; fill-opacity:1" cx="1197.59" cy="156.786" r="18"/>
<circle clip-path="url(#clip5102)" style="fill:#009af9; stroke:none; fill-opacity:1" cx="1197.59" cy="156.786" r="14"/>
<polyline clip-path="url(#clip5102)" style="stroke:#e26f46; stroke-width:12; stroke-opacity:1; fill:none" points="
  2201.12,1327.15 1588.68,1210.37 964.822,1094.78 346.531,935.735 
  "/>
<polygon clip-path="url(#clip5102)" style="fill:#000000; fill-opacity:1" points="
  2181.12,1307.15 2181.12,1347.15 2221.12,1347.15 2221.12,1307.15 2181.12,1307.15 
  "/>
<polygon clip-path="url(#clip5102)" style="fill:#e26f46; fill-opacity:1" points="
  2185.12,1311.15 2185.12,1343.15 2217.12,1343.15 2217.12,1311.15 2185.12,1311.15 
  "/>
<polygon clip-path="url(#clip5102)" style="fill:#000000; fill-opacity:1" points="
  1568.68,1190.37 1568.68,1230.37 1608.68,1230.37 1608.68,1190.37 1568.68,1190.37 
  "/>
<polygon clip-path="url(#clip5102)" style="fill:#e26f46; fill-opacity:1" points="
  1572.68,1194.37 1572.68,1226.37 1604.68,1226.37 1604.68,1194.37 1572.68,1194.37 
  "/>
<polygon clip-path="url(#clip5102)" style="fill:#000000; fill-opacity:1" points="
  944.822,1074.78 944.822,1114.78 984.822,1114.78 984.822,1074.78 944.822,1074.78 
  "/>
<polygon clip-path="url(#clip5102)" style="fill:#e26f46; fill-opacity:1" points="
  948.822,1078.78 948.822,1110.78 980.822,1110.78 980.822,1078.78 948.822,1078.78 
  "/>
<polygon clip-path="url(#clip5102)" style="fill:#000000; fill-opacity:1" points="
  326.531,915.735 326.531,955.735 366.531,955.735 366.531,915.735 326.531,915.735 
  "/>
<polygon clip-path="url(#clip5102)" style="fill:#e26f46; fill-opacity:1" points="
  330.531,919.735 330.531,951.735 362.531,951.735 362.531,919.735 330.531,919.735 
  "/>
<path clip-path="url(#clip5100)" d="
M1395.52 380.875 L2187.64 380.875 L2187.64 199.435 L1395.52 199.435  Z
  " fill="#ffffff" fill-rule="evenodd" fill-opacity="1"/>
<polyline clip-path="url(#clip5100)" style="stroke:#000000; stroke-width:4; stroke-opacity:1; fill:none" points="
  1395.52,380.875 2187.64,380.875 2187.64,199.435 1395.52,199.435 1395.52,380.875 
  "/>
<polyline clip-path="url(#clip5100)" style="stroke:#009af9; stroke-width:12; stroke-opacity:1; fill:none" points="
  1418.56,259.915 1556.8,259.915 
  "/>
<circle clip-path="url(#clip5100)" style="fill:#000000; stroke:none; fill-opacity:1" cx="1499.2" cy="259.915" r="25"/>
<circle clip-path="url(#clip5100)" style="fill:#009af9; stroke:none; fill-opacity:1" cx="1499.2" cy="259.915" r="21"/>
<g clip-path="url(#clip5100)">
<text style="fill:#000000; fill-opacity:1; font-family:Arial,Helvetica Neue,Helvetica,sans-serif; font-size:48px; text-anchor:start;" transform="rotate(0, 1579.84, 277.415)" x="1579.84" y="277.415">CNAB2 (diagonal linsolve)</text>
</g>
<polyline clip-path="url(#clip5100)" style="stroke:#e26f46; stroke-width:12; stroke-opacity:1; fill:none" points="
  1418.56,320.395 1556.8,320.395 
  "/>
<polygon clip-path="url(#clip5100)" style="fill:#000000; fill-opacity:1" points="
  1471.2,292.395 1471.2,348.395 1527.2,348.395 1527.2,292.395 1471.2,292.395 
  "/>
<polygon clip-path="url(#clip5100)" style="fill:#e26f46; fill-opacity:1" points="
  1475.2,296.395 1475.2,344.395 1523.2,344.395 1523.2,296.395 1475.2,296.395 
  "/>
<g clip-path="url(#clip5100)">
<text style="fill:#000000; fill-opacity:1; font-family:Arial,Helvetica Neue,Helvetica,sans-serif; font-size:48px; text-anchor:start;" transform="rotate(0, 1579.84, 337.895)" x="1579.84" y="337.895">ETDRK2</text>
</g>
</svg>
