<?xml version="1.0" encoding="utf-8"?>
<svg xmlns="http://www.w3.org/2000/svg" xmlns:xlink="http://www.w3.org/1999/xlink" width="576" height="384" viewBox="0 0 2304 1536">
<defs>
  <clipPath id="clip4300">
    <rect x="0" y="0" width="2304" height="1536"/>
  </clipPath>
</defs>
<path clip-path="url(#clip4300)" d="
M0 1536 L2304 1536 L2304 0 L0 0  Z
  " fill="#ffffff" fill-rule="evenodd" fill-opacity="1"/>
<defs>
  <clipPath id="clip4301">
    <rect x="460" y="0" width="1614" height="1536"/>
  </clipPath>
</defs>
<path clip-path="url(#clip4300)" d="
M181.048 1424.11 L2256.76 1424.11 L2256.76 47.2441 L181.048 47.2441  Z
  " fill="#ffffff" fill-rule="evenodd" fill-opacity="1"/>
<defs>
  <clipPath id="clip4302">
    <rect x="181" y="47" width="2077" height="1378"/>
  </clipPath>
</defs>
<polyline clip-path="url(#clip4302)" style="stroke:#000000; stroke-width:2; stroke-opacity:0.1; fill:none" points="
  239.795,1424.11 239.795,47.2441 
  "/>
<polyline clip-path="url(#clip4302)" style="stroke:#000000; stroke-width:2; stroke-opacity:0.1; fill:none" points="
  552.064,1424.11 552.064,47.2441 
  "/>
<polyline clip-path="url(#clip4302)" style="stroke:#000000; stroke-width:2; stroke-opacity:0.1; fill:none" points="
  864.333,1424.11 864.333,47.2441 
  "/>
<polyline clip-path="url(#clip4302)" style="stroke:#000000; stroke-width:2; stroke-opacity:0.1; fill:none" points="
  1176.6,1424.11 1176.6,47.2441 
  "/>
<polyline clip-path="url(#clip4302)" style="stroke:#000000; stroke-width:2; stroke-opacity:0.1; fill:none" points="
  1488.87,1424.11 1488.87,47.2441 
  "/>
<polyline clip-path="url(#clip4302)" style="stroke:#000000; stroke-width:2; stroke-opacity:0.1; fill:none" points="
  1801.14,1424.11 1801.14,47.2441 
  "/>
<polyline clip-path="url(#clip4302)" style="stroke:#000000; stroke-width:2; stroke-opacity:0.1; fill:none" points="
  2113.41,1424.11 2113.41,47.2441 
  "/>
<polyline clip-path="url(#clip4302)" style="stroke:#000000; stroke-width:2; stroke-opacity:0.1; fill:none" points="
  181.048,1293.47 2256.76,1293.47 
  "/>
<polyline clip-path="url(#clip4302)" style="stroke:#000000; stroke-width:2; stroke-opacity:0.1; fill:none" points="
  181.048,1052.02 2256.76,1052.02 
  "/>
<polyline clip-path="url(#clip4302)" style="stroke:#000000; stroke-width:2; stroke-opacity:0.1; fill:none" points="
  181.048,810.567 2256.76,810.567 
  "/>
<polyline clip-path="url(#clip4302)" style="stroke:#000000; stroke-width:2; stroke-opacity:0.1; fill:none" points="
  181.048,569.115 2256.76,569.115 
  "/>
<polyline clip-path="url(#clip4302)" style="stroke:#000000; stroke-width:2; stroke-opacity:0.1; fill:none" points="
  181.048,327.664 2256.76,327.664 
  "/>
<polyline clip-path="url(#clip4302)" style="stroke:#000000; stroke-width:2; stroke-opacity:0.1; fill:none" points="
  181.048,86.2121 2256.76,86.2121 
  "/>
<polyline clip-path="url(#clip4300)" style="stroke:#000000; stroke-width:4; stroke-opacity:1; fill:none" points="
  181.048,1424.11 2256.76,1424.11 
  "/>
<polyline clip-path="url(#clip4300)" style="stroke:#000000; stroke-width:4; stroke-opacity:1; fill:none" points="
  181.048,1424.11 181.048,47.2441 
  "/>
<polyline clip-path="url(#clip4300)" style="stroke:#000000; stroke-width:4; stroke-opacity:1; fill:none" points="
  239.795,1424.11 239.795,1407.59 
  "/>
<polyline clip-path="url(#clip4300)" style="stroke:#000000; stroke-width:4; stroke-opacity:1; fill:none" points="
  552.064,1424.11 552.064,1407.59 
  "/>
<polyline clip-path="url(#clip4300)" style="stroke:#000000; stroke-width:4; stroke-opacity:1; fill:none" points="
  864.333,1424.11 864.333,1407.59 
  "/>
<polyline clip-path="url(#clip4300)" style="stroke:#000000; stroke-width:4; stroke-opacity:1; fill:none" points="
  1176.6,1424.11 1176.6,1407.59 
  "/>
<polyline clip-path="url(#clip4300)" style="stroke:#000000; stroke-width:4; stroke-opacity:1; fill:none" points="
  1488.87,1424.11 1488.87,1407.59 
  "/>
<polyline clip-path="url(#clip4300)" style="stroke:#000000; stroke-width:4; stroke-opacity:1; fill:none" points="
  1801.14,1424.11 1801.14,1407.59 
  "/>
<polyline clip-path="url(#clip4300)" style="stroke:#000000; stroke-width:4; stroke-opacity:1; fill:none" points="
  2113.41,1424.11 2113.41,1407.59 
  "/>
<polyline clip-path="url(#clip4300)" style="stroke:#000000; stroke-width:4; stroke-opacity:1; fill:none" points="
  181.048,1293.47 205.957,1293.47 
  "/>
<polyline clip-path="url(#clip4300)" style="stroke:#000000; stroke-width:4; stroke-opacity:1; fill:none" points="
  181.048,1052.02 205.957,1052.02 
  "/>
<polyline clip-path="url(#clip4300)" style="stroke:#000000; stroke-width:4; stroke-opacity:1; fill:none" points="
  181.048,810.567 205.957,810.567 
  "/>
<polyline clip-path="url(#clip4300)" style="stroke:#000000; stroke-width:4; stroke-opacity:1; fill:none" points="
  181.048,569.115 205.957,569.115 
  "/>
<polyline clip-path="url(#clip4300)" style="stroke:#000000; stroke-width:4; stroke-opacity:1; fill:none" points="
  181.048,327.664 205.957,327.664 
  "/>
<polyline clip-path="url(#clip4300)" style="stroke:#000000; stroke-width:4; stroke-opacity:1; fill:none" points="
  181.048,86.2121 205.957,86.2121 
  "/>
<g clip-path="url(#clip4300)">
<text style="fill:#000000; fill-opacity:1; font-family:Arial,Helvetica Neue,Helvetica,sans-serif; font-size:48px; text-anchor:middle;" transform="rotate(0, 239.795, 1477.63)" x="239.795" y="1477.63">0</text>
</g>
<g clip-path="url(#clip4300)">
<text style="fill:#000000; fill-opacity:1; font-family:Arial,Helvetica Neue,Helvetica,sans-serif; font-size:48px; text-anchor:middle;" transform="rotate(0, 552.064, 1477.63)" x="552.064" y="1477.63">1</text>
</g>
<g clip-path="url(#clip4300)">
<text style="fill:#000000; fill-opacity:1; font-family:Arial,Helvetica Neue,Helvetica,sans-serif; font-size:48px; text-anchor:middle;" transform="rotate(0, 864.333, 1477.63)" x="864.333" y="1477.63">2</text>
</g>
<g clip-path="url(#clip4300)">
<text style="fill:#000000; fill-opacity:1; font-family:Arial,Helvetica Neue,Helvetica,sans-serif; font-size:48px; text-anchor:middle;" transform="rotate(0, 1176.6, 1477.63)" x="1176.6" y="1477.63">3</text>
</g>
<g clip-path="url(#clip4300)">
<text style="fill:#000000; fill-opacity:1; font-family:Arial,Helvetica Neue,Helvetica,sans-serif; font-size:48px; text-anchor:middle;" transform="rotate(0, 1488.87, 1477.63)" x="1488.87" y="1477.63">4</text>
</g>
<g clip-path="url(#clip4300)">
<text style="fill:#000000; fill-opacity:1; font-family:Arial,Helvetica Neue,Helvetica,sans-serif; font-size:48px; text-anchor:middle;" transform="rotate(0, 1801.14, 1477.63)" x="1801.14" y="1477.63">5</text>
</g>
<g clip-path="url(#clip4300)">
<text style="fill:#000000; fill-opacity:1; font-family:Arial,Helvetica Neue,Helvetica,sans-serif; font-size:48px; text-anchor:middle;" transform="rotate(0, 2113.41, 1477.63)" x="2113.41" y="1477.63">6</text>
</g>
<g clip-path="url(#clip4300)">
<text style="fill:#000000; fill-opacity:1; font-family:Arial,Helvetica Neue,Helvetica,sans-serif; font-size:48px; text-anchor:end;" transform="rotate(0, 158.008, 1310.97)" x="158.008" y="1310.97">-1.5</text>
</g>
<g clip-path="url(#clip4300)">
<text style="fill:#000000; fill-opacity:1; font-family:Arial,Helvetica Neue,Helvetica,sans-serif; font-size:48px; text-anchor:end;" transform="rotate(0, 158.008, 1069.52)" x="158.008" y="1069.52">-1.0</text>
</g>
<g clip-path="url(#clip4300)">
<text style="fill:#000000; fill-opacity:1; font-family:Arial,Helvetica Neue,Helvetica,sans-serif; font-size:48px; text-anchor:end;" transform="rotate(0, 158.008, 828.067)" x="158.008" y="828.067">-0.5</text>
</g>
<g clip-path="url(#clip4300)">
<text style="fill:#000000; fill-opacity:1; font-family:Arial,Helvetica Neue,Helvetica,sans-serif; font-size:48px; text-anchor:end;" transform="rotate(0, 158.008, 586.615)" x="158.008" y="586.615">0.0</text>
</g>
<g clip-path="url(#clip4300)">
<text style="fill:#000000; fill-opacity:1; font-family:Arial,Helvetica Neue,Helvetica,sans-serif; font-size:48px; text-anchor:end;" transform="rotate(0, 158.008, 345.164)" x="158.008" y="345.164">0.5</text>
</g>
<g clip-path="url(#clip4300)">
<text style="fill:#000000; fill-opacity:1; font-family:Arial,Helvetica Neue,Helvetica,sans-serif; font-size:48px; text-anchor:end;" transform="rotate(0, 158.008, 103.712)" x="158.008" y="103.712">1.0</text>
</g>
<polyline clip-path="url(#clip4302)" style="stroke:#009af9; stroke-width:4; stroke-opacity:1; fill:none" points="
  239.795,86.2121 243.627,86.2485 247.459,86.3576 251.291,86.5394 255.123,86.7938 258.955,87.1209 262.787,87.5206 266.619,87.9928 270.451,88.5374 274.284,89.1545 
  278.116,89.8438 281.948,90.6053 285.78,91.4388 289.612,92.3443 293.444,93.3216 297.276,94.3705 301.108,95.491 304.941,96.6827 308.773,97.9457 312.605,99.2795 
  316.437,100.684 320.269,102.159 324.101,103.705 327.933,105.32 331.765,107.006 335.598,108.761 339.43,110.585 343.262,112.479 347.094,114.441 350.926,116.471 
  354.758,118.57 358.59,120.737 362.422,122.971 366.255,125.272 370.087,127.641 373.919,130.075 377.751,132.576 381.583,135.143 385.415,137.774 389.247,140.471 
  393.079,143.233 396.912,146.058 400.744,148.948 404.576,151.9 408.408,154.915 412.24,157.993 416.072,161.133 419.904,164.334 423.736,167.596 427.569,170.919 
  431.401,174.301 435.233,177.743 439.065,181.244 442.897,184.803 446.729,188.42 450.561,192.095 454.393,195.826 458.226,199.614 462.058,203.457 465.89,207.355 
  469.722,211.308 473.554,215.314 477.386,219.374 481.218,223.487 485.05,227.651 488.883,231.867 492.715,236.134 496.547,240.451 500.379,244.817 504.211,249.233 
  508.043,253.696 511.875,258.207 515.707,262.765 519.54,267.369 523.372,272.018 527.204,276.712 531.036,281.45 534.868,286.232 538.7,291.056 542.532,295.922 
  546.364,300.829 550.196,305.776 554.029,310.763 557.861,315.789 561.693,320.854 565.525,325.955 569.357,331.093 573.189,336.267 577.021,341.476 580.853,346.72 
  584.686,351.997 588.518,357.306 592.35,362.648 596.182,368.02 600.014,373.423 603.846,378.855 607.678,384.316 611.51,389.805 615.343,395.321 619.175,400.863 
  623.007,406.43 626.839,412.022 630.671,417.638 634.503,423.276 638.335,428.936 642.167,434.617 646,440.319 649.832,446.04 653.664,451.78 657.496,457.537 
  661.328,463.311 665.16,469.101 668.992,474.906 672.824,480.725 676.657,486.557 680.489,492.402 684.321,498.259 688.153,504.126 691.985,510.003 695.817,515.889 
  699.649,521.783 703.481,527.684 707.314,533.591 711.146,539.503 714.978,545.421 718.81,551.341 722.642,557.264 726.474,563.19 730.306,569.115 734.138,575.041 
  737.971,580.967 741.803,586.89 745.635,592.81 749.467,598.727 753.299,604.64 757.131,610.547 760.963,616.448 764.795,622.342 768.628,628.228 772.46,634.105 
  776.292,639.972 780.124,645.829 783.956,651.674 787.788,657.506 791.62,663.325 795.452,669.13 799.284,674.92 803.117,680.694 806.949,686.451 810.781,692.191 
  814.613,697.912 818.445,703.614 822.277,709.295 826.109,714.955 829.941,720.593 833.774,726.209 837.606,731.801 841.438,737.368 845.27,742.91 849.102,748.426 
  852.934,753.915 856.766,759.376 860.598,764.808 864.431,770.211 868.263,775.583 872.095,780.925 875.927,786.234 879.759,791.511 883.591,796.755 887.423,801.964 
  891.255,807.138 895.088,812.276 898.92,817.377 902.752,822.442 906.584,827.468 910.416,832.455 914.248,837.402 918.08,842.309 921.912,847.175 925.745,851.999 
  929.577,856.781 933.409,861.519 937.241,866.213 941.073,870.862 944.905,875.466 948.737,880.024 952.569,884.535 956.402,888.998 960.234,893.414 964.066,897.78 
  967.898,902.097 971.73,906.364 975.562,910.58 979.394,914.744 983.226,918.857 987.059,922.917 990.891,926.923 994.723,930.876 998.555,934.774 1002.39,938.617 
  1006.22,942.405 1010.05,946.136 1013.88,949.811 1017.72,953.428 1021.55,956.987 1025.38,960.488 1029.21,963.93 1033.04,967.312 1036.88,970.635 1040.71,973.897 
  1044.54,977.098 1048.37,980.238 1052.2,983.315 1056.04,986.331 1059.87,989.283 1063.7,992.173 1067.53,994.998 1071.37,997.76 1075.2,1000.46 1079.03,1003.09 
  1082.86,1005.65 1086.69,1008.16 1090.53,1010.59 1094.36,1012.96 1098.19,1015.26 1102.02,1017.49 1105.85,1019.66 1109.69,1021.76 1113.52,1023.79 1117.35,1025.75 
  1121.18,1027.65 1125.01,1029.47 1128.85,1031.23 1132.68,1032.91 1136.51,1034.53 1140.34,1036.07 1144.18,1037.55 1148.01,1038.95 1151.84,1040.29 1155.67,1041.55 
  1159.5,1042.74 1163.34,1043.86 1167.17,1044.91 1171,1045.89 1174.83,1046.79 1178.66,1047.63 1182.5,1048.39 1186.33,1049.08 1190.16,1049.69 1193.99,1050.24 
  1197.83,1050.71 1201.66,1051.11 1205.49,1051.44 1209.32,1051.69 1213.15,1051.87 1216.99,1051.98 1220.82,1052.02 1224.65,1051.98 1228.48,1051.87 1232.31,1051.69 
  1236.15,1051.44 1239.98,1051.11 1243.81,1050.71 1247.64,1050.24 1251.48,1049.69 1255.31,1049.08 1259.14,1048.39 1262.97,1047.63 1266.8,1046.79 1270.64,1045.89 
  1274.47,1044.91 1278.3,1043.86 1282.13,1042.74 1285.96,1041.55 1289.8,1040.29 1293.63,1038.95 1297.46,1037.55 1301.29,1036.07 1305.12,1034.53 1308.96,1032.91 
  1312.79,1031.23 1316.62,1029.47 1320.45,1027.65 1324.29,1025.75 1328.12,1023.79 1331.95,1021.76 1335.78,1019.66 1339.61,1017.49 1343.45,1015.26 1347.28,1012.96 
  1351.11,1010.59 1354.94,1008.16 1358.77,1005.65 1362.61,1003.09 1366.44,1000.46 1370.27,997.76 1374.1,994.998 1377.94,992.173 1381.77,989.283 1385.6,986.331 
  1389.43,983.315 1393.26,980.238 1397.1,977.098 1400.93,973.897 1404.76,970.635 1408.59,967.312 1412.42,963.93 1416.26,960.488 1420.09,956.987 1423.92,953.428 
  1427.75,949.811 1431.58,946.136 1435.42,942.405 1439.25,938.617 1443.08,934.774 1446.91,930.876 1450.75,926.923 1454.58,922.917 1458.41,918.857 1462.24,914.744 
  1466.07,910.58 1469.91,906.364 1473.74,902.097 1477.57,897.78 1481.4,893.414 1485.23,888.998 1489.07,884.535 1492.9,880.024 1496.73,875.466 1500.56,870.862 
  1504.4,866.213 1508.23,861.519 1512.06,856.781 1515.89,851.999 1519.72,847.175 1523.56,842.309 1527.39,837.402 1531.22,832.455 1535.05,827.468 1538.88,822.442 
  1542.72,817.377 1546.55,812.276 1550.38,807.138 1554.21,801.964 1558.04,796.755 1561.88,791.511 1565.71,786.234 1569.54,780.925 1573.37,775.583 1577.21,770.211 
  1581.04,764.808 1584.87,759.376 1588.7,753.915 1592.53,748.426 1596.37,742.91 1600.2,737.368 1604.03,731.801 1607.86,726.209 1611.69,720.593 1615.53,714.955 
  1619.36,709.295 1623.19,703.614 1627.02,697.912 1630.86,692.191 1634.69,686.451 1638.52,680.694 1642.35,674.92 1646.18,669.13 1650.02,663.325 1653.85,657.506 
  1657.68,651.674 1661.51,645.829 1665.34,639.972 1669.18,634.105 1673.01,628.228 1676.84,622.342 1680.67,616.448 1684.5,610.547 1688.34,604.64 1692.17,598.727 
  1696,592.81 1699.83,586.89 1703.67,580.967 1707.5,575.041 1711.33,569.115 1715.16,563.19 1718.99,557.264 1722.83,551.341 1726.66,545.421 1730.49,539.503 
  1734.32,533.591 1738.15,527.684 1741.99,521.783 1745.82,515.889 1749.65,510.003 1753.48,504.126 1757.32,498.259 1761.15,492.402 1764.98,486.557 1768.81,480.725 
  1772.64,474.906 1776.48,469.101 1780.31,463.311 1784.14,457.537 1787.97,451.78 1791.8,446.04 1795.64,440.319 1799.47,434.617 1803.3,428.936 1807.13,423.276 
  1810.97,417.638 1814.8,412.022 1818.63,406.43 1822.46,400.863 1826.29,395.321 1830.13,389.805 1833.96,384.316 1837.79,378.855 1841.62,373.423 1845.45,368.02 
  1849.29,362.648 1853.12,357.306 1856.95,351.997 1860.78,346.72 1864.61,341.476 1868.45,336.267 1872.28,331.093 1876.11,325.955 1879.94,320.854 1883.78,315.789 
  1887.61,310.763 1891.44,305.776 1895.27,300.829 1899.1,295.922 1902.94,291.056 1906.77,286.232 1910.6,281.45 1914.43,276.712 1918.26,272.018 1922.1,267.369 
  1925.93,262.765 1929.76,258.207 1933.59,253.696 1937.43,249.233 1941.26,244.817 1945.09,240.451 1948.92,236.134 1952.75,231.867 1956.59,227.651 1960.42,223.487 
  1964.25,219.374 1968.08,215.314 1971.91,211.308 1975.75,207.355 1979.58,203.457 1983.41,199.614 1987.24,195.826 1991.07,192.095 1994.91,188.42 1998.74,184.803 
  2002.57,181.244 2006.4,177.743 2010.24,174.301 2014.07,170.919 2017.9,167.596 2021.73,164.334 2025.56,161.133 2029.4,157.993 2033.23,154.915 2037.06,151.9 
  2040.89,148.948 2044.72,146.058 2048.56,143.233 2052.39,140.471 2056.22,137.774 2060.05,135.143 2063.89,132.576 2067.72,130.075 2071.55,127.641 2075.38,125.272 
  2079.21,122.971 2083.05,120.737 2086.88,118.57 2090.71,116.471 2094.54,114.441 2098.37,112.479 2102.21,110.585 2106.04,108.761 2109.87,107.006 2113.7,105.32 
  2117.53,103.705 2121.37,102.159 2125.2,100.684 2129.03,99.2795 2132.86,97.9457 2136.7,96.6827 2140.53,95.491 2144.36,94.3705 2148.19,93.3216 2152.02,92.3443 
  2155.86,91.4388 2159.69,90.6053 2163.52,89.8438 2167.35,89.1545 2171.18,88.5374 2175.02,87.9928 2178.85,87.5206 2182.68,87.1209 2186.51,86.7938 2190.35,86.5394 
  2194.18,86.3576 2198.01,86.2485 
  "/>
<polyline clip-path="url(#clip4302)" style="stroke:#e26f46; stroke-width:4; stroke-opacity:1; fill:none" points="
  239.795,256.731 243.627,260.635 247.459,264.569 251.291,268.531 255.123,272.519 258.955,276.532 262.787,280.568 266.619,284.625 270.451,288.7 274.284,292.792 
  278.116,296.899 281.948,301.019 285.78,305.149 289.612,309.288 293.444,313.434 297.276,317.585 301.108,321.738 304.941,325.892 308.773,330.043 312.605,334.191 
  316.437,338.333 320.269,342.467 324.101,346.59 327.933,350.701 331.765,354.797 335.598,358.877 339.43,362.937 343.262,366.976 347.094,370.992 350.926,374.983 
  354.758,378.946 358.59,382.88 362.422,386.782 366.255,390.65 370.087,394.483 373.919,398.277 377.751,402.032 381.583,405.745 385.415,409.415 389.247,413.038 
  393.079,416.615 396.912,420.142 400.744,423.618 404.576,427.041 408.408,430.41 412.24,433.722 416.072,436.977 419.904,440.173 423.736,443.308 427.569,446.381 
  431.401,449.39 435.233,452.334 439.065,455.212 442.897,458.023 446.729,460.766 450.561,463.439 454.393,466.042 458.226,468.573 462.058,471.032 465.89,473.419 
  469.722,475.731 473.554,477.97 477.386,480.134 481.218,482.222 485.05,484.235 488.883,486.172 492.715,488.033 496.547,489.818 500.379,491.526 504.211,493.158 
  508.043,494.714 511.875,496.194 515.707,497.598 519.54,498.926 523.372,500.18 527.204,501.359 531.036,502.464 534.868,503.496 538.7,504.455 542.532,505.342 
  546.364,506.159 550.196,506.905 554.029,507.583 557.861,508.192 561.693,508.735 565.525,509.213 569.357,509.626 573.189,509.977 577.021,510.266 580.853,510.495 
  584.686,510.665 588.518,510.779 592.35,510.838 596.182,510.843 600.014,510.796 603.846,510.7 607.678,510.555 611.51,510.365 615.343,510.13 619.175,509.852 
  623.007,509.534 626.839,509.179 630.671,508.786 634.503,508.36 638.335,507.902 642.167,507.414 646,506.898 649.832,506.357 653.664,505.793 657.496,505.208 
  661.328,504.604 665.16,503.984 668.992,503.35 672.824,502.704 676.657,502.048 680.489,501.385 684.321,500.718 688.153,500.047 691.985,499.377 695.817,498.709 
  699.649,498.045 703.481,497.388 707.314,496.74 711.146,496.103 714.978,495.481 718.81,494.874 722.642,494.285 726.474,493.717 730.306,493.172 734.138,492.653 
  737.971,492.16 741.803,491.697 745.635,491.267 749.467,490.87 753.299,490.509 757.131,490.187 760.963,489.906 764.795,489.667 768.628,489.474 772.46,489.327 
  776.292,489.23 780.124,489.184 783.956,489.191 787.788,489.254 791.62,489.374 795.452,489.554 799.284,489.795 803.117,490.1 806.949,490.47 810.781,490.908 
  814.613,491.415 818.445,491.993 822.277,492.645 826.109,493.372 829.941,494.176 833.774,495.059 837.606,496.023 841.438,497.069 845.27,498.2 849.102,499.417 
  852.934,500.722 856.766,502.116 860.598,503.603 864.431,505.183 868.263,506.857 872.095,508.629 875.927,510.499 879.759,512.469 883.591,514.541 887.423,516.717 
  891.255,518.997 895.088,521.385 898.92,523.88 902.752,526.486 906.584,529.203 910.416,532.032 914.248,534.977 918.08,538.037 921.912,541.214 925.745,544.51 
  929.577,547.926 933.409,551.464 937.241,555.125 941.073,558.909 944.905,562.819 948.737,566.855 952.569,571.019 956.402,575.312 960.234,579.735 964.066,584.288 
  967.898,588.974 971.73,593.791 975.562,598.743 979.394,603.828 983.226,609.049 987.059,614.405 990.891,619.897 994.723,625.526 998.555,631.292 1002.39,637.194 
  1006.22,643.234 1010.05,649.412 1013.88,655.727 1017.72,662.179 1021.55,668.768 1025.38,675.494 1029.21,682.356 1033.04,689.354 1036.88,696.486 1040.71,703.751 
  1044.54,711.15 1048.37,718.68 1052.2,726.339 1056.04,734.128 1059.87,742.043 1063.7,750.083 1067.53,758.245 1071.37,766.528 1075.2,774.929 1079.03,783.445 
  1082.86,792.073 1086.69,800.811 1090.53,809.654 1094.36,818.6 1098.19,827.644 1102.02,836.782 1105.85,846.011 1109.69,855.326 1113.52,864.721 1117.35,874.193 
  1121.18,883.735 1125.01,893.343 1128.85,903.011 1132.68,912.732 1136.51,922.5 1140.34,932.309 1144.18,942.153 1148.01,952.024 1151.84,961.915 1155.67,971.819 
  1159.5,981.727 1163.34,991.632 1167.17,1001.53 1171,1011.4 1174.83,1021.25 1178.66,1031.06 1182.5,1040.82 1186.33,1050.53 1190.16,1060.17 1193.99,1069.74 
  1197.83,1079.23 1201.66,1088.62 1205.49,1097.91 1209.32,1107.09 1213.15,1116.14 1216.99,1125.06 1220.82,1133.84 1224.65,1142.46 1228.48,1150.91 1232.31,1159.19 
  1236.15,1167.29 1239.98,1175.19 1243.81,1182.88 1247.64,1190.36 1251.48,1197.61 1255.31,1204.62 1259.14,1211.39 1262.97,1217.9 1266.8,1224.15 1270.64,1230.13 
  1274.47,1235.82 1278.3,1241.22 1282.13,1246.32 1285.96,1251.11 1289.8,1255.59 1293.63,1259.74 1297.46,1263.56 1301.29,1267.04 1305.12,1270.18 1308.96,1272.98 
  1312.79,1275.41 1316.62,1277.49 1320.45,1279.2 1324.29,1280.55 1328.12,1281.52 1331.95,1282.12 1335.78,1282.33 1339.61,1282.17 1343.45,1281.63 1347.28,1280.71 
  1351.11,1279.41 1354.94,1277.72 1358.77,1275.65 1362.61,1273.2 1366.44,1270.37 1370.27,1267.16 1374.1,1263.58 1377.94,1259.63 1381.77,1255.31 1385.6,1250.63 
  1389.43,1245.59 1393.26,1240.2 1397.1,1234.46 1400.93,1228.37 1404.76,1221.96 1408.59,1215.21 1412.42,1208.14 1416.26,1200.76 1420.09,1193.07 1423.92,1185.09 
  1427.75,1176.81 1431.58,1168.26 1435.42,1159.43 1439.25,1150.35 1443.08,1141.01 1446.91,1131.42 1450.75,1121.61 1454.58,1111.56 1458.41,1101.31 1462.24,1090.85 
  1466.07,1080.21 1469.91,1069.37 1473.74,1058.37 1477.57,1047.2 1481.4,1035.89 1485.23,1024.43 1489.07,1012.84 1492.9,1001.13 1496.73,989.306 1500.56,977.383 
  1504.4,965.371 1508.23,953.277 1512.06,941.111 1515.89,928.884 1519.72,916.604 1523.56,904.28 1527.39,891.922 1531.22,879.538 1535.05,867.136 1538.88,854.726 
  1542.72,842.315 1546.55,829.91 1550.38,817.52 1554.21,805.152 1558.04,792.813 1561.88,780.511 1565.71,768.251 1569.54,756.04 1573.37,743.884 1577.21,731.79 
  1581.04,719.762 1584.87,707.807 1588.7,695.93 1592.53,684.135 1596.37,672.427 1600.2,660.811 1604.03,649.291 1607.86,637.871 1611.69,626.554 1615.53,615.345 
  1619.36,604.247 1623.19,593.262 1627.02,582.394 1630.86,571.645 1634.69,561.018 1638.52,550.516 1642.35,540.139 1646.18,529.892 1650.02,519.774 1653.85,509.788 
  1657.68,499.936 1661.51,490.218 1665.34,480.636 1669.18,471.191 1673.01,461.884 1676.84,452.715 1680.67,443.685 1684.5,434.794 1688.34,426.044 1692.17,417.434 
  1696,408.965 1699.83,400.636 1703.67,392.447 1707.5,384.399 1711.33,376.492 1715.16,368.724 1718.99,361.096 1722.83,353.608 1726.66,346.259 1730.49,339.048 
  1734.32,331.975 1738.15,325.039 1741.99,318.24 1745.82,311.576 1749.65,305.048 1753.48,298.654 1757.32,292.394 1761.15,286.267 1764.98,280.271 1768.81,274.407 
  1772.64,268.673 1776.48,263.068 1780.31,257.591 1784.14,252.242 1787.97,247.019 1791.8,241.921 1795.64,236.948 1799.47,232.099 1803.3,227.372 1807.13,222.766 
  1810.97,218.282 1814.8,213.917 1818.63,209.67 1822.46,205.541 1826.29,201.529 1830.13,197.633 1833.96,193.852 1837.79,190.184 1841.62,186.63 1845.45,183.188 
  1849.29,179.857 1853.12,176.636 1856.95,173.525 1860.78,170.523 1864.61,167.628 1868.45,164.84 1872.28,162.158 1876.11,159.582 1879.94,157.11 1883.78,154.742 
  1887.61,152.478 1891.44,150.315 1895.27,148.254 1899.1,146.293 1902.94,144.433 1906.77,142.672 1910.6,141.01 1914.43,139.446 1918.26,137.98 1922.1,136.61 
  1925.93,135.337 1929.76,134.159 1933.59,133.075 1937.43,132.087 1941.26,131.192 1945.09,130.39 1948.92,129.681 1952.75,129.064 1956.59,128.538 1960.42,128.103 
  1964.25,127.759 1968.08,127.504 1971.91,127.339 1975.75,127.263 1979.58,127.275 1983.41,127.374 1987.24,127.561 1991.07,127.835 1994.91,128.195 1998.74,128.64 
  2002.57,129.17 2006.4,129.785 2010.24,130.484 2014.07,131.267 2017.9,132.133 2021.73,133.08 2025.56,134.11 2029.4,135.221 2033.23,136.413 2037.06,137.685 
  2040.89,139.036 2044.72,140.466 2048.56,141.974 2052.39,143.56 2056.22,145.223 2060.05,146.963 2063.89,148.777 2067.72,150.667 2071.55,152.631 2075.38,154.668 
  2079.21,156.778 2083.05,158.96 2086.88,161.213 2090.71,163.536 2094.54,165.928 2098.37,168.389 2102.21,170.917 2106.04,173.512 2109.87,176.173 2113.7,178.899 
  2117.53,181.688 2121.37,184.54 2125.2,187.453 2129.03,190.427 2132.86,193.46 2136.7,196.551 2140.53,199.7 2144.36,202.904 2148.19,206.163 2152.02,209.475 
  2155.86,212.839 2159.69,216.253 2163.52,219.717 2167.35,223.228 2171.18,226.786 2175.02,230.389 2178.85,234.035 2182.68,237.722 2186.51,241.45 2190.35,245.217 
  2194.18,249.02 2198.01,252.859 
  "/>
<polyline clip-path="url(#clip4302)" style="stroke:#3da44d; stroke-width:4; stroke-opacity:1; fill:none" points="
  239.795,503.122 243.627,502.779 247.459,502.335 251.291,501.79 255.123,501.144 258.955,500.398 262.787,499.554 266.619,498.61 270.451,497.57 274.284,496.433 
  278.116,495.202 281.948,493.876 285.78,492.458 289.612,490.949 293.444,489.35 297.276,487.663 301.108,485.89 304.941,484.032 308.773,482.092 312.605,480.07 
  316.437,477.97 320.269,475.792 324.101,473.539 327.933,471.214 331.765,468.818 335.598,466.354 339.43,463.823 343.262,461.229 347.094,458.573 350.926,455.859 
  354.758,453.087 358.59,450.262 362.422,447.384 366.255,444.458 370.087,441.485 373.919,438.468 377.751,435.409 381.583,432.312 385.415,429.178 389.247,426.01 
  393.079,422.812 396.912,419.584 400.744,416.331 404.576,413.054 408.408,409.757 412.24,406.441 416.072,403.109 419.904,399.764 423.736,396.409 427.569,393.045 
  431.401,389.675 435.233,386.302 439.065,382.928 442.897,379.556 446.729,376.187 450.561,372.824 454.393,369.47 458.226,366.126 462.058,362.795 465.89,359.479 
  469.722,356.179 473.554,352.899 477.386,349.64 481.218,346.404 485.05,343.193 488.883,340.01 492.715,336.854 496.547,333.73 500.379,330.638 504.211,327.58 
  508.043,324.557 511.875,321.572 515.707,318.626 519.54,315.721 523.372,312.857 527.204,310.036 531.036,307.261 534.868,304.531 538.7,301.849 542.532,299.215 
  546.364,296.632 550.196,294.099 554.029,291.618 557.861,289.191 561.693,286.818 565.525,284.5 569.357,282.238 573.189,280.033 577.021,277.886 580.853,275.798 
  584.686,273.77 588.518,271.802 592.35,269.895 596.182,268.05 600.014,266.267 603.846,264.548 607.678,262.892 611.51,261.301 615.343,259.775 619.175,258.315 
  623.007,256.92 626.839,255.593 630.671,254.332 634.503,253.139 638.335,252.013 642.167,250.957 646,249.969 649.832,249.05 653.664,248.201 657.496,247.423 
  661.328,246.714 665.16,246.077 668.992,245.511 672.824,245.017 676.657,244.595 680.489,244.245 684.321,243.969 688.153,243.765 691.985,243.636 695.817,243.58 
  699.649,243.599 703.481,243.693 707.314,243.862 711.146,244.108 714.978,244.429 718.81,244.828 722.642,245.303 726.474,245.857 730.306,246.49 734.138,247.201 
  737.971,247.992 741.803,248.863 745.635,249.815 749.467,250.849 753.299,251.965 757.131,253.165 760.963,254.448 764.795,255.816 768.628,257.269 772.46,258.809 
  776.292,260.436 780.124,262.151 783.956,263.956 787.788,265.85 791.62,267.837 795.452,269.915 799.284,272.087 803.117,274.354 806.949,276.717 810.781,279.177 
  814.613,281.736 818.445,284.394 822.277,287.154 826.109,290.016 829.941,292.983 833.774,296.055 837.606,299.235 841.438,302.523 845.27,305.922 849.102,309.433 
  852.934,313.058 856.766,316.798 860.598,320.656 864.431,324.633 868.263,328.731 872.095,332.951 875.927,337.297 879.759,341.769 883.591,346.369 887.423,351.101 
  891.255,355.964 895.088,360.963 898.92,366.098 902.752,371.371 906.584,376.785 910.416,382.342 914.248,388.044 918.08,393.892 921.912,399.889 925.745,406.036 
  929.577,412.337 933.409,418.792 937.241,425.403 941.073,432.173 944.905,439.103 948.737,446.195 952.569,453.451 956.402,460.872 960.234,468.46 964.066,476.216 
  967.898,484.143 971.73,492.24 975.562,500.51 979.394,508.954 983.226,517.572 987.059,526.365 990.891,535.334 994.723,544.48 998.555,553.803 1002.39,563.303 
  1006.22,572.98 1010.05,582.834 1013.88,592.864 1017.72,603.071 1021.55,613.454 1025.38,624.01 1029.21,634.739 1033.04,645.64 1036.88,656.71 1040.71,667.948 
  1044.54,679.351 1048.37,690.916 1052.2,702.64 1056.04,714.521 1059.87,726.554 1063.7,738.735 1067.53,751.059 1071.37,763.523 1075.2,776.121 1079.03,788.847 
  1082.86,801.695 1086.69,814.66 1090.53,827.734 1094.36,840.911 1098.19,854.182 1102.02,867.539 1105.85,880.976 1109.69,894.481 1113.52,908.047 1117.35,921.663 
  1121.18,935.32 1125.01,949.007 1128.85,962.713 1132.68,976.427 1136.51,990.136 1140.34,1003.83 1144.18,1017.49 1148.01,1031.12 1151.84,1044.69 1155.67,1058.19 
  1159.5,1071.6 1163.34,1084.93 1167.17,1098.14 1171,1111.22 1174.83,1124.17 1178.66,1136.96 1182.5,1149.58 1186.33,1162.01 1190.16,1174.24 1193.99,1186.26 
  1197.83,1198.04 1201.66,1209.57 1205.49,1220.84 1209.32,1231.83 1213.15,1242.52 1216.99,1252.91 1220.82,1262.97 1224.65,1272.69 1228.48,1282.05 1232.31,1291.05 
  1236.15,1299.66 1239.98,1307.87 1243.81,1315.68 1247.64,1323.07 1251.48,1330.02 1255.31,1336.52 1259.14,1342.57 1262.97,1348.15 1266.8,1353.26 1270.64,1357.88 
  1274.47,1362.01 1278.3,1365.64 1282.13,1368.76 1285.96,1371.36 1289.8,1373.45 1293.63,1375.02 1297.46,1376.06 1301.29,1376.57 1305.12,1376.56 1308.96,1376.01 
  1312.79,1374.93 1316.62,1373.33 1320.45,1371.19 1324.29,1368.54 1328.12,1365.36 1331.95,1361.67 1335.78,1357.46 1339.61,1352.76 1343.45,1347.55 1347.28,1341.86 
  1351.11,1335.68 1354.94,1329.04 1358.77,1321.93 1362.61,1314.37 1366.44,1306.37 1370.27,1297.95 1374.1,1289.11 1377.94,1279.87 1381.77,1270.24 1385.6,1260.23 
  1389.43,1249.86 1393.26,1239.15 1397.1,1228.11 1400.93,1216.75 1404.76,1205.09 1408.59,1193.15 1412.42,1180.94 1416.26,1168.47 1420.09,1155.77 1423.92,1142.85 
  1427.75,1129.73 1431.58,1116.41 1435.42,1102.92 1439.25,1089.28 1443.08,1075.5 1446.91,1061.58 1450.75,1047.56 1454.58,1033.45 1458.41,1019.25 1462.24,1004.99 
  1466.07,990.676 1469.91,976.325 1473.74,961.951 1477.57,947.566 1481.4,933.184 1485.23,918.818 1489.07,904.478 1492.9,890.178 1496.73,875.929 1500.56,861.741 
  1504.4,847.625 1508.23,833.592 1512.06,819.651 1515.89,805.811 1519.72,792.082 1523.56,778.471 1527.39,764.987 1531.22,751.638 1535.05,738.431 1538.88,725.372 
  1542.72,712.469 1546.55,699.726 1550.38,687.151 1554.21,674.747 1558.04,662.52 1561.88,650.475 1565.71,638.616 1569.54,626.946 1573.37,615.47 1577.21,604.19 
  1581.04,593.109 1584.87,582.23 1588.7,571.556 1592.53,561.088 1596.37,550.828 1600.2,540.777 1604.03,530.938 1607.86,521.311 1611.69,511.896 1615.53,502.695 
  1619.36,493.708 1623.19,484.935 1627.02,476.377 1630.86,468.032 1634.69,459.901 1638.52,451.984 1642.35,444.279 1646.18,436.787 1650.02,429.505 1653.85,422.434 
  1657.68,415.572 1661.51,408.918 1665.34,402.471 1669.18,396.229 1673.01,390.191 1676.84,384.355 1680.67,378.719 1684.5,373.283 1688.34,368.044 1692.17,363.001 
  1696,358.151 1699.83,353.493 1703.67,349.025 1707.5,344.745 1711.33,340.65 1715.16,336.74 1718.99,333.011 1722.83,329.461 1726.66,326.09 1730.49,322.893 
  1734.32,319.87 1738.15,317.018 1741.99,314.335 1745.82,311.819 1749.65,309.467 1753.48,307.278 1757.32,305.249 1761.15,303.377 1764.98,301.662 1768.81,300.1 
  1772.64,298.689 1776.48,297.427 1780.31,296.312 1784.14,295.341 1787.97,294.513 1791.8,293.825 1795.64,293.274 1799.47,292.859 1803.3,292.578 1807.13,292.427 
  1810.97,292.406 1814.8,292.511 1818.63,292.74 1822.46,293.091 1826.29,293.562 1830.13,294.15 1833.96,294.854 1837.79,295.67 1841.62,296.597 1845.45,297.633 
  1849.29,298.774 1853.12,300.018 1856.95,301.364 1860.78,302.809 1864.61,304.35 1868.45,305.986 1872.28,307.713 1876.11,309.529 1879.94,311.432 1883.78,313.42 
  1887.61,315.489 1891.44,317.638 1895.27,319.864 1899.1,322.164 1902.94,324.535 1906.77,326.976 1910.6,329.484 1914.43,332.055 1918.26,334.688 1922.1,337.38 
  1925.93,340.127 1929.76,342.928 1933.59,345.78 1937.43,348.679 1941.26,351.623 1945.09,354.609 1948.92,357.635 1952.75,360.698 1956.59,363.794 1960.42,366.921 
  1964.25,370.076 1968.08,373.255 1971.91,376.457 1975.75,379.678 1979.58,382.916 1983.41,386.166 1987.24,389.427 1991.07,392.695 1994.91,395.967 1998.74,399.24 
  2002.57,402.512 2006.4,405.778 2010.24,409.037 2014.07,412.285 2017.9,415.519 2021.73,418.736 2025.56,421.934 2029.4,425.108 2033.23,428.257 2037.06,431.376 
  2040.89,434.464 2044.72,437.517 2048.56,440.533 2052.39,443.508 2056.22,446.44 2060.05,449.326 2063.89,452.163 2067.72,454.948 2071.55,457.679 2075.38,460.353 
  2079.21,462.967 2083.05,465.519 2086.88,468.007 2090.71,470.427 2094.54,472.778 2098.37,475.057 2102.21,477.262 2106.04,479.391 2109.87,481.442 2113.7,483.412 
  2117.53,485.299 2121.37,487.103 2125.2,488.82 2129.03,490.45 2132.86,491.99 2136.7,493.439 2140.53,494.796 2144.36,496.059 2148.19,497.227 2152.02,498.299 
  2155.86,499.273 2159.69,500.149 2163.52,500.926 2167.35,501.603 2171.18,502.18 2175.02,502.655 2178.85,503.028 2182.68,503.3 2186.51,503.469 2190.35,503.536 
  2194.18,503.5 2198.01,503.362 
  "/>
<polyline clip-path="url(#clip4302)" style="stroke:#c271d2; stroke-width:4; stroke-opacity:1; fill:none" points="
  239.795,271.496 243.627,267.481 247.459,263.519 251.291,259.608 255.123,255.752 258.955,251.949 262.787,248.203 266.619,244.512 270.451,240.878 274.284,237.303 
  278.116,233.785 281.948,230.327 285.78,226.929 289.612,223.591 293.444,220.315 297.276,217.099 301.108,213.946 304.941,210.855 308.773,207.827 312.605,204.862 
  316.437,201.96 320.269,199.123 324.101,196.349 327.933,193.639 331.765,190.994 335.598,188.414 339.43,185.898 343.262,183.447 347.094,181.061 350.926,178.739 
  354.758,176.483 358.59,174.291 362.422,172.164 366.255,170.102 370.087,168.104 373.919,166.171 377.751,164.302 381.583,162.497 385.415,160.757 389.247,159.08 
  393.079,157.466 396.912,155.916 400.744,154.428 404.576,153.003 408.408,151.641 412.24,150.34 416.072,149.101 419.904,147.923 423.736,146.806 427.569,145.75 
  431.401,144.754 435.233,143.817 439.065,142.94 442.897,142.121 446.729,141.361 450.561,140.659 454.393,140.014 458.226,139.426 462.058,138.895 465.89,138.42 
  469.722,138 473.554,137.636 477.386,137.326 481.218,137.071 485.05,136.869 488.883,136.72 492.715,136.624 496.547,136.58 500.379,136.587 504.211,136.646 
  508.043,136.756 511.875,136.917 515.707,137.127 519.54,137.386 523.372,137.695 527.204,138.052 531.036,138.457 534.868,138.91 538.7,139.41 542.532,139.957 
  546.364,140.551 550.196,141.191 554.029,141.877 557.861,142.608 561.693,143.385 565.525,144.207 569.357,145.073 573.189,145.984 577.021,146.939 580.853,147.938 
  584.686,148.98 588.518,150.067 592.35,151.196 596.182,152.37 600.014,153.586 603.846,154.846 607.678,156.149 611.51,157.495 615.343,158.884 619.175,160.316 
  623.007,161.792 626.839,163.311 630.671,164.873 634.503,166.48 638.335,168.13 642.167,169.824 646,171.563 649.832,173.346 653.664,175.175 657.496,177.049 
  661.328,178.969 665.16,180.935 668.992,182.947 672.824,185.008 676.657,187.115 680.489,189.272 684.321,191.477 688.153,193.732 691.985,196.038 695.817,198.395 
  699.649,200.803 703.481,203.265 707.314,205.78 711.146,208.35 714.978,210.975 718.81,213.657 722.642,216.397 726.474,219.195 730.306,222.052 734.138,224.971 
  737.971,227.952 741.803,230.995 745.635,234.104 749.467,237.278 753.299,240.519 757.131,243.829 760.963,247.209 764.795,250.66 768.628,254.183 772.46,257.781 
  776.292,261.455 780.124,265.206 783.956,269.036 787.788,272.947 791.62,276.939 795.452,281.016 799.284,285.178 803.117,289.427 806.949,293.764 810.781,298.193 
  814.613,302.714 818.445,307.328 822.277,312.039 826.109,316.847 829.941,321.754 833.774,326.763 837.606,331.874 841.438,337.09 845.27,342.412 849.102,347.843 
  852.934,353.383 856.766,359.034 860.598,364.799 864.431,370.678 868.263,376.674 872.095,382.787 875.927,389.02 879.759,395.374 883.591,401.851 887.423,408.451 
  891.255,415.176 895.088,422.027 898.92,429.005 902.752,436.113 906.584,443.349 910.416,450.716 914.248,458.215 918.08,465.845 921.912,473.608 925.745,481.504 
  929.577,489.533 933.409,497.697 937.241,505.994 941.073,514.425 944.905,522.989 948.737,531.687 952.569,540.518 956.402,549.481 960.234,558.575 964.066,567.8 
  967.898,577.154 971.73,586.635 975.562,596.243 979.394,605.976 983.226,615.83 987.059,625.805 990.891,635.897 994.723,646.105 998.555,656.424 1002.39,666.853 
  1006.22,677.387 1010.05,688.022 1013.88,698.756 1017.72,709.583 1021.55,720.499 1025.38,731.499 1029.21,742.579 1033.04,753.733 1036.88,764.956 1040.71,776.241 
  1044.54,787.583 1048.37,798.975 1052.2,810.41 1056.04,821.883 1059.87,833.384 1063.7,844.908 1067.53,856.445 1071.37,867.989 1075.2,879.531 1079.03,891.063 
  1082.86,902.575 1086.69,914.059 1090.53,925.506 1094.36,936.906 1098.19,948.249 1102.02,959.527 1105.85,970.729 1109.69,981.846 1113.52,992.866 1117.35,1003.78 
  1121.18,1014.58 1125.01,1025.25 1128.85,1035.78 1132.68,1046.16 1136.51,1056.39 1140.34,1066.44 1144.18,1076.32 1148.01,1086 1151.84,1095.48 1155.67,1104.76 
  1159.5,1113.81 1163.34,1122.62 1167.17,1131.2 1171,1139.52 1174.83,1147.59 1178.66,1155.38 1182.5,1162.9 1186.33,1170.12 1190.16,1177.05 1193.99,1183.68 
  1197.83,1189.99 1201.66,1195.98 1205.49,1201.65 1209.32,1206.99 1213.15,1211.98 1216.99,1216.63 1220.82,1220.93 1224.65,1224.88 1228.48,1228.47 1232.31,1231.69 
  1236.15,1234.55 1239.98,1237.05 1243.81,1239.17 1247.64,1240.92 1251.48,1242.31 1255.31,1243.31 1259.14,1243.95 1262.97,1244.22 1266.8,1244.12 1270.64,1243.65 
  1274.47,1242.81 1278.3,1241.61 1282.13,1240.06 1285.96,1238.15 1289.8,1235.89 1293.63,1233.29 1297.46,1230.35 1301.29,1227.08 1305.12,1223.49 1308.96,1219.57 
  1312.79,1215.35 1316.62,1210.82 1320.45,1206 1324.29,1200.89 1328.12,1195.5 1331.95,1189.85 1335.78,1183.94 1339.61,1177.78 1343.45,1171.39 1347.28,1164.77 
  1351.11,1157.93 1354.94,1150.88 1358.77,1143.64 1362.61,1136.22 1366.44,1128.62 1370.27,1120.86 1374.1,1112.95 1377.94,1104.9 1381.77,1096.72 1385.6,1088.42 
  1389.43,1080.02 1393.26,1071.52 1397.1,1062.93 1400.93,1054.28 1404.76,1045.56 1408.59,1036.78 1412.42,1027.97 1416.26,1019.12 1420.09,1010.26 1423.92,1001.38 
  1427.75,992.495 1431.58,983.62 1435.42,974.762 1439.25,965.928 1443.08,957.129 1446.91,948.371 1450.75,939.664 1454.58,931.014 1458.41,922.431 1462.24,913.919 
  1466.07,905.488 1469.91,897.143 1473.74,888.89 1477.57,880.736 1481.4,872.686 1485.23,864.746 1489.07,856.921 1492.9,849.216 1496.73,841.635 1500.56,834.182 
  1504.4,826.862 1508.23,819.677 1512.06,812.632 1515.89,805.73 1519.72,798.972 1523.56,792.363 1527.39,785.903 1531.22,779.595 1535.05,773.44 1538.88,767.441 
  1542.72,761.598 1546.55,755.912 1550.38,750.383 1554.21,745.014 1558.04,739.802 1561.88,734.749 1565.71,729.855 1569.54,725.119 1573.37,720.54 1577.21,716.117 
  1581.04,711.85 1584.87,707.738 1588.7,703.779 1592.53,699.971 1596.37,696.313 1600.2,692.803 1604.03,689.439 1607.86,686.219 1611.69,683.14 1615.53,680.201 
  1619.36,677.398 1623.19,674.729 1627.02,672.191 1630.86,669.781 1634.69,667.496 1638.52,665.333 1642.35,663.289 1646.18,661.36 1650.02,659.544 1653.85,657.836 
  1657.68,656.233 1661.51,654.731 1665.34,653.327 1669.18,652.017 1673.01,650.797 1676.84,649.663 1680.67,648.612 1684.5,647.639 1688.34,646.74 1692.17,645.912 
  1696,645.15 1699.83,644.45 1703.67,643.809 1707.5,643.221 1711.33,642.683 1715.16,642.192 1718.99,641.742 1722.83,641.329 1726.66,640.95 1730.49,640.601 
  1734.32,640.276 1738.15,639.973 1741.99,639.688 1745.82,639.415 1749.65,639.152 1753.48,638.895 1757.32,638.638 1761.15,638.38 1764.98,638.115 1768.81,637.841 
  1772.64,637.553 1776.48,637.248 1780.31,636.922 1784.14,636.572 1787.97,636.195 1791.8,635.787 1795.64,635.344 1799.47,634.865 1803.3,634.345 1807.13,633.782 
  1810.97,633.172 1814.8,632.513 1818.63,631.803 1822.46,631.038 1826.29,630.217 1830.13,629.336 1833.96,628.394 1837.79,627.388 1841.62,626.315 1845.45,625.176 
  1849.29,623.966 1853.12,622.685 1856.95,621.331 1860.78,619.902 1864.61,618.398 1868.45,616.816 1872.28,615.156 1876.11,613.416 1879.94,611.596 1883.78,609.695 
  1887.61,607.712 1891.44,605.646 1895.27,603.497 1899.1,601.266 1902.94,598.951 1906.77,596.552 1910.6,594.069 1914.43,591.504 1918.26,588.855 1922.1,586.123 
  1925.93,583.309 1929.76,580.413 1933.59,577.435 1937.43,574.378 1941.26,571.24 1945.09,568.024 1948.92,564.731 1952.75,561.36 1956.59,557.915 1960.42,554.396 
  1964.25,550.804 1968.08,547.141 1971.91,543.408 1975.75,539.608 1979.58,535.741 1983.41,531.81 1987.24,527.816 1991.07,523.762 1994.91,519.648 1998.74,515.478 
  2002.57,511.253 2006.4,506.975 2010.24,502.646 2014.07,498.269 2017.9,493.846 2021.73,489.379 2025.56,484.87 2029.4,480.321 2033.23,475.735 2037.06,471.115 
  2040.89,466.461 2044.72,461.778 2048.56,457.067 2052.39,452.331 2056.22,447.571 2060.05,442.791 2063.89,437.993 2067.72,433.178 2071.55,428.35 2075.38,423.511 
  2079.21,418.663 2083.05,413.809 2086.88,408.95 2090.71,404.09 2094.54,399.229 2098.37,394.372 2102.21,389.519 2106.04,384.673 2109.87,379.836 2113.7,375.011 
  2117.53,370.199 2121.37,365.403 2125.2,360.624 2129.03,355.864 2132.86,351.126 2136.7,346.412 2140.53,341.723 2144.36,337.06 2148.19,332.427 2152.02,327.824 
  2155.86,323.254 2159.69,318.718 2163.52,314.217 2167.35,309.754 2171.18,305.329 2175.02,300.945 2178.85,296.602 2182.68,292.302 2186.51,288.047 2190.35,283.838 
  2194.18,279.675 2198.01,275.561 
  "/>
<polyline clip-path="url(#clip4302)" style="stroke:#ac8d18; stroke-width:4; stroke-opacity:1; fill:none" points="
  239.795,263.001 243.627,265.355 247.459,267.729 251.291,270.122 255.123,272.533 258.955,274.961 262.787,277.404 266.619,279.863 270.451,282.335 274.284,284.819 
  278.116,287.315 281.948,289.821 285.78,292.336 289.612,294.86 293.444,297.391 297.276,299.929 301.108,302.472 304.941,305.019 308.773,307.569 312.605,310.122 
  316.437,312.676 320.269,315.231 324.101,317.785 327.933,320.339 331.765,322.889 335.598,325.437 339.43,327.98 343.262,330.519 347.094,333.052 350.926,335.578 
  354.758,338.097 358.59,340.607 362.422,343.108 366.255,345.6 370.087,348.08 373.919,350.549 377.751,353.006 381.583,355.449 385.415,357.879 389.247,360.294 
  393.079,362.694 396.912,365.078 400.744,367.445 404.576,369.794 408.408,372.126 412.24,374.439 416.072,376.732 419.904,379.005 423.736,381.258 427.569,383.489 
  431.401,385.698 435.233,387.885 439.065,390.049 442.897,392.189 446.729,394.305 450.561,396.396 454.393,398.463 458.226,400.503 462.058,402.517 465.89,404.504 
  469.722,406.464 473.554,408.397 477.386,410.302 481.218,412.178 485.05,414.025 488.883,415.842 492.715,417.631 496.547,419.389 500.379,421.116 504.211,422.813 
  508.043,424.479 511.875,426.114 515.707,427.716 519.54,429.287 523.372,430.826 527.204,432.332 531.036,433.805 534.868,435.246 538.7,436.653 542.532,438.027 
  546.364,439.367 550.196,440.674 554.029,441.946 557.861,443.185 561.693,444.389 565.525,445.559 569.357,446.695 573.189,447.796 577.021,448.862 580.853,449.894 
  584.686,450.89 588.518,451.852 592.35,452.78 596.182,453.672 600.014,454.529 603.846,455.352 607.678,456.139 611.51,456.892 615.343,457.61 619.175,458.293 
  623.007,458.941 626.839,459.555 630.671,460.134 634.503,460.678 638.335,461.188 642.167,461.664 646,462.105 649.832,462.513 653.664,462.886 657.496,463.226 
  661.328,463.533 665.16,463.805 668.992,464.045 672.824,464.252 676.657,464.426 680.489,464.567 684.321,464.676 688.153,464.753 691.985,464.798 695.817,464.811 
  699.649,464.794 703.481,464.745 707.314,464.666 711.146,464.557 714.978,464.417 718.81,464.248 722.642,464.05 726.474,463.823 730.306,463.567 734.138,463.284 
  737.971,462.973 741.803,462.635 745.635,462.27 749.467,461.879 753.299,461.463 757.131,461.021 760.963,460.555 764.795,460.064 768.628,459.55 772.46,459.014 
  776.292,458.455 780.124,457.874 783.956,457.273 787.788,456.651 791.62,456.01 795.452,455.35 799.284,454.671 803.117,453.976 806.949,453.264 810.781,452.537 
  814.613,451.794 818.445,451.038 822.277,450.269 826.109,449.488 829.941,448.696 833.774,447.893 837.606,447.082 841.438,446.263 845.27,445.437 849.102,444.605 
  852.934,443.769 856.766,442.929 860.598,442.088 864.431,441.245 868.263,440.403 872.095,439.563 875.927,438.725 879.759,437.893 883.591,437.067 887.423,436.248 
  891.255,435.438 895.088,434.639 898.92,433.852 902.752,433.079 906.584,432.322 910.416,431.582 914.248,430.862 918.08,430.162 921.912,429.486 925.745,428.834 
  929.577,428.209 933.409,427.612 937.241,427.047 941.073,426.515 944.905,426.017 948.737,425.557 952.569,425.136 956.402,424.757 960.234,424.423 964.066,424.134 
  967.898,423.895 971.73,423.707 975.562,423.573 979.394,423.495 983.226,423.476 987.059,423.519 990.891,423.627 994.723,423.801 998.555,424.046 1002.39,424.363 
  1006.22,424.756 1010.05,425.227 1013.88,425.78 1017.72,426.417 1021.55,427.142 1025.38,427.957 1029.21,428.866 1033.04,429.871 1036.88,430.977 1040.71,432.186 
  1044.54,433.501 1048.37,434.926 1052.2,436.464 1056.04,438.118 1059.87,439.892 1063.7,441.788 1067.53,443.812 1071.37,445.964 1075.2,448.25 1079.03,450.673 
  1082.86,453.236 1086.69,455.942 1090.53,458.795 1094.36,461.798 1098.19,464.954 1102.02,468.268 1105.85,471.742 1109.69,475.38 1113.52,479.185 1117.35,483.16 
  1121.18,487.309 1125.01,491.634 1128.85,496.14 1132.68,500.828 1136.51,505.702 1140.34,510.765 1144.18,516.02 1148.01,521.469 1151.84,527.116 1155.67,532.962 
  1159.5,539.01 1163.34,545.263 1167.17,551.722 1171,558.39 1174.83,565.269 1178.66,572.359 1182.5,579.664 1186.33,587.184 1190.16,594.92 1193.99,602.873 
  1197.83,611.044 1201.66,619.434 1205.49,628.043 1209.32,636.87 1213.15,645.915 1216.99,655.179 1220.82,664.659 1224.65,674.355 1228.48,684.266 1232.31,694.389 
  1236.15,704.722 1239.98,715.263 1243.81,726.009 1247.64,736.956 1251.48,748.101 1255.31,759.44 1259.14,770.967 1262.97,782.679 1266.8,794.57 1270.64,806.633 
  1274.47,818.863 1278.3,831.252 1282.13,843.794 1285.96,856.48 1289.8,869.302 1293.63,882.252 1297.46,895.32 1301.29,908.496 1305.12,921.771 1308.96,935.132 
  1312.79,948.57 1316.62,962.072 1320.45,975.625 1324.29,989.218 1328.12,1002.84 1331.95,1016.47 1335.78,1030.09 1339.61,1043.71 1343.45,1057.29 1347.28,1070.82 
  1351.11,1084.29 1354.94,1097.68 1358.77,1110.97 1362.61,1124.15 1366.44,1137.21 1370.27,1150.11 1374.1,1162.85 1377.94,1175.41 1381.77,1187.77 1385.6,1199.91 
  1389.43,1211.82 1393.26,1223.47 1397.1,1234.85 1400.93,1245.94 1404.76,1256.73 1408.59,1267.18 1412.42,1277.3 1416.26,1287.06 1420.09,1296.44 1423.92,1305.43 
  1427.75,1314.01 1431.58,1322.16 1435.42,1329.88 1439.25,1337.15 1443.08,1343.95 1446.91,1350.26 1450.75,1356.09 1454.58,1361.41 1458.41,1366.22 1462.24,1370.51 
  1466.07,1374.26 1469.91,1377.46 1473.74,1380.12 1477.57,1382.22 1481.4,1383.77 1485.23,1384.74 1489.07,1385.15 1492.9,1384.98 1496.73,1384.24 1500.56,1382.93 
  1504.4,1381.05 1508.23,1378.59 1512.06,1375.57 1515.89,1371.98 1519.72,1367.83 1523.56,1363.13 1527.39,1357.88 1531.22,1352.09 1535.05,1345.77 1538.88,1338.92 
  1542.72,1331.57 1546.55,1323.71 1550.38,1315.37 1554.21,1306.55 1558.04,1297.26 1561.88,1287.53 1565.71,1277.36 1569.54,1266.78 1573.37,1255.78 1577.21,1244.4 
  1581.04,1232.65 1584.87,1220.55 1588.7,1208.1 1592.53,1195.34 1596.37,1182.27 1600.2,1168.92 1604.03,1155.3 1607.86,1141.44 1611.69,1127.34 1615.53,1113.02 
  1619.36,1098.51 1623.19,1083.83 1627.02,1068.98 1630.86,1053.99 1634.69,1038.87 1638.52,1023.65 1642.35,1008.34 1646.18,992.944 1650.02,977.493 1653.85,961.999 
  1657.68,946.476 1661.51,930.94 1665.34,915.404 1669.18,899.884 1673.01,884.393 1676.84,868.944 1680.67,853.549 1684.5,838.222 1688.34,822.973 1692.17,807.814 
  1696,792.755 1699.83,777.807 1703.67,762.981 1707.5,748.284 1711.33,733.726 1715.16,719.315 1718.99,705.058 1722.83,690.965 1726.66,677.04 1730.49,663.291 
  1734.32,649.723 1738.15,636.343 1741.99,623.155 1745.82,610.163 1749.65,597.373 1753.48,584.788 1757.32,572.412 1761.15,560.247 1764.98,548.297 1768.81,536.564 
  1772.64,525.05 1776.48,513.757 1780.31,502.686 1784.14,491.838 1787.97,481.215 1791.8,470.818 1795.64,460.645 1799.47,450.698 1803.3,440.977 1807.13,431.48 
  1810.97,422.209 1814.8,413.161 1818.63,404.337 1822.46,395.734 1826.29,387.352 1830.13,379.19 1833.96,371.245 1837.79,363.517 1841.62,356.003 1845.45,348.702 
  1849.29,341.611 1853.12,334.728 1856.95,328.052 1860.78,321.58 1864.61,315.31 1868.45,309.239 1872.28,303.365 1876.11,297.685 1879.94,292.197 1883.78,286.898 
  1887.61,281.786 1891.44,276.858 1895.27,272.111 1899.1,267.542 1902.94,263.149 1906.77,258.93 1910.6,254.88 1914.43,250.998 1918.26,247.281 1922.1,243.726 
  1925.93,240.33 1929.76,237.091 1933.59,234.005 1937.43,231.071 1941.26,228.284 1945.09,225.644 1948.92,223.146 1952.75,220.789 1956.59,218.57 1960.42,216.486 
  1964.25,214.534 1968.08,212.712 1971.91,211.017 1975.75,209.447 1979.58,208 1983.41,206.673 1987.24,205.463 1991.07,204.368 1994.91,203.386 1998.74,202.514 
  2002.57,201.75 2006.4,201.093 2010.24,200.538 2014.07,200.085 2017.9,199.731 2021.73,199.474 2025.56,199.311 2029.4,199.242 2033.23,199.263 2037.06,199.372 
  2040.89,199.568 2044.72,199.849 2048.56,200.212 2052.39,200.656 2056.22,201.179 2060.05,201.778 2063.89,202.453 2067.72,203.2 2071.55,204.019 2075.38,204.908 
  2079.21,205.865 2083.05,206.887 2086.88,207.975 2090.71,209.125 2094.54,210.336 2098.37,211.607 2102.21,212.935 2106.04,214.32 2109.87,215.76 2113.7,217.252 
  2117.53,218.797 2121.37,220.391 2125.2,222.035 2129.03,223.725 2132.86,225.462 2136.7,227.243 2140.53,229.066 2144.36,230.932 2148.19,232.837 2152.02,234.781 
  2155.86,236.763 2159.69,238.781 2163.52,240.834 2167.35,242.92 2171.18,245.039 2175.02,247.189 2178.85,249.368 2182.68,251.576 2186.51,253.811 2190.35,256.072 
  2194.18,258.359 2198.01,260.669 
  "/>
<path clip-path="url(#clip4300)" d="
M1848.84 487.884 L2187.64 487.884 L2187.64 125.004 L1848.84 125.004  Z
  " fill="#ffffff" fill-rule="evenodd" fill-opacity="1"/>
<polyline clip-path="url(#clip4300)" style="stroke:#000000; stroke-width:4; stroke-opacity:1; fill:none" points="
  1848.84,487.884 2187.64,487.884 2187.64,125.004 1848.84,125.004 1848.84,487.884 
  "/>
<polyline clip-path="url(#clip4300)" style="stroke:#009af9; stroke-width:4; stroke-opacity:1; fill:none" points="
  1871.88,185.484 2010.12,185.484 
  "/>
<g clip-path="url(#clip4300)">
<text style="fill:#000000; fill-opacity:1; font-family:Arial,Helvetica Neue,Helvetica,sans-serif; font-size:48px; text-anchor:start;" transform="rotate(0, 2033.16, 202.984)" x="2033.16" y="202.984">t=0.0</text>
</g>
<polyline clip-path="url(#clip4300)" style="stroke:#e26f46; stroke-width:4; stroke-opacity:1; fill:none" points="
  1871.88,245.964 2010.12,245.964 
  "/>
<g clip-path="url(#clip4300)">
<text style="fill:#000000; fill-opacity:1; font-family:Arial,Helvetica Neue,Helvetica,sans-serif; font-size:48px; text-anchor:start;" transform="rotate(0, 2033.16, 263.464)" x="2033.16" y="263.464">t=1.0</text>
</g>
<polyline clip-path="url(#clip4300)" style="stroke:#3da44d; stroke-width:4; stroke-opacity:1; fill:none" points="
  1871.88,306.444 2010.12,306.444 
  "/>
<g clip-path="url(#clip4300)">
<text style="fill:#000000; fill-opacity:1; font-family:Arial,Helvetica Neue,Helvetica,sans-serif; font-size:48px; text-anchor:start;" transform="rotate(0, 2033.16, 323.944)" x="2033.16" y="323.944">t=2.0</text>
</g>
<polyline clip-path="url(#clip4300)" style="stroke:#c271d2; stroke-width:4; stroke-opacity:1; fill:none" points="
  1871.88,366.924 2010.12,366.924 
  "/>
<g clip-path="url(#clip4300)">
<text style="fill:#000000; fill-opacity:1; font-family:Arial,Helvetica Neue,Helvetica,sans-serif; font-size:48px; text-anchor:start;" transform="rotate(0, 2033.16, 384.424)" x="2033.16" y="384.424">t=3.0</text>
</g>
<polyline clip-path="url(#clip4300)" style="stroke:#ac8d18; stroke-width:4; stroke-opacity:1; fill:none" points="
  1871.88,427.404 2010.12,427.404 
  "/>
<g clip-path="url(#clip4300)">
<text style="fill:#000000; fill-opacity:1; font-family:Arial,Helvetica Neue,Helvetica,sans-serif; font-size:48px; text-anchor:start;" transform="rotate(0, 2033.16, 444.904)" x="2033.16" y="444.904">t=5.0</text>
</g>
</svg>
