<?xml version="1.0" encoding="utf-8"?>
<svg xmlns="http://www.w3.org/2000/svg" xmlns:xlink="http://www.w3.org/1999/xlink" width="576" height="384" viewBox="0 0 2304 1536">
<defs>
  <clipPath id="clip4700">
    <rect x="0" y="0" width="2304" height="1536"/>
  </clipPath>
</defs>
<path clip-path="url(#clip4700)" d="
M0 1536 L2304 1536 L2304 0 L0 0  Z
  " fill="#ffffff" fill-rule="evenodd" fill-opacity="1"/>
<defs>
  <clipPath id="clip4701">
    <rect x="460" y="0" width="1614" height="1536"/>
  </clipPath>
</defs>
<path clip-path="url(#clip4700)" d="
M290.893 1362.26 L2256.76 1362.26 L2256.76 121.675 L290.893 121.675  Z
  " fill="#ffffff" fill-rule="evenodd" fill-opacity="1"/>
<defs>
  <clipPath id="clip4702">
    <rect x="290" y="121" width="1967" height="1242"/>
  </clipPath>
</defs>
<polyline clip-path="url(#clip4702)" style="stroke:#000000; stroke-width:2; stroke-opacity:0.1; fill:none" points="
  539.1,1362.26 539.1,121.675 
  "/>
<polyline clip-path="url(#clip4702)" style="stroke:#000000; stroke-width:2; stroke-opacity:0.1; fill:none" points="
  792.461,1362.26 792.461,121.675 
  "/>
<polyline clip-path="url(#clip4702)" style="stroke:#000000; stroke-width:2; stroke-opacity:0.1; fill:none" points="
  1045.82,1362.26 1045.82,121.675 
  "/>
<polyline clip-path="url(#clip4702)" style="stroke:#000000; stroke-width:2; stroke-opacity:0.1; fill:none" points="
  1299.18,1362.26 1299.18,121.675 
  "/>
<polyline clip-path="url(#clip4702)" style="stroke:#000000; stroke-width:2; stroke-opacity:0.1; fill:none" points="
  1552.54,1362.26 1552.54,121.675 
  "/>
<polyline clip-path="url(#clip4702)" style="stroke:#000000; stroke-width:2; stroke-opacity:0.1; fill:none" points="
  1805.91,1362.26 1805.91,121.675 
  "/>
<polyline clip-path="url(#clip4702)" style="stroke:#000000; stroke-width:2; stroke-opacity:0.1; fill:none" points="
  2059.27,1362.26 2059.27,121.675 
  "/>
<polyline clip-path="url(#clip4702)" style="stroke:#000000; stroke-width:2; stroke-opacity:0.1; fill:none" points="
  290.893,1230.79 2256.76,1230.79 
  "/>
<polyline clip-path="url(#clip4702)" style="stroke:#000000; stroke-width:2; stroke-opacity:0.1; fill:none" points="
  290.893,1046.29 2256.76,1046.29 
  "/>
<polyline clip-path="url(#clip4702)" style="stroke:#000000; stroke-width:2; stroke-opacity:0.1; fill:none" points="
  290.893,861.784 2256.76,861.784 
  "/>
<polyline clip-path="url(#clip4702)" style="stroke:#000000; stroke-width:2; stroke-opacity:0.1; fill:none" points="
  290.893,677.279 2256.76,677.279 
  "/>
<polyline clip-path="url(#clip4702)" style="stroke:#000000; stroke-width:2; stroke-opacity:0.1; fill:none" points="
  290.893,492.774 2256.76,492.774 
  "/>
<polyline clip-path="url(#clip4702)" style="stroke:#000000; stroke-width:2; stroke-opacity:0.1; fill:none" points="
  290.893,308.269 2256.76,308.269 
  "/>
<polyline clip-path="url(#clip4702)" style="stroke:#000000; stroke-width:2; stroke-opacity:0.1; fill:none" points="
  290.893,123.764 2256.76,123.764 
  "/>
<polyline clip-path="url(#clip4700)" style="stroke:#000000; stroke-width:4; stroke-opacity:1; fill:none" points="
  290.893,1362.26 2256.76,1362.26 
  "/>
<polyline clip-path="url(#clip4700)" style="stroke:#000000; stroke-width:4; stroke-opacity:1; fill:none" points="
  290.893,1362.26 290.893,121.675 
  "/>
<polyline clip-path="url(#clip4700)" style="stroke:#000000; stroke-width:4; stroke-opacity:1; fill:none" points="
  539.1,1362.26 539.1,1347.37 
  "/>
<polyline clip-path="url(#clip4700)" style="stroke:#000000; stroke-width:4; stroke-opacity:1; fill:none" points="
  792.461,1362.26 792.461,1347.37 
  "/>
<polyline clip-path="url(#clip4700)" style="stroke:#000000; stroke-width:4; stroke-opacity:1; fill:none" points="
  1045.82,1362.26 1045.82,1347.37 
  "/>
<polyline clip-path="url(#clip4700)" style="stroke:#000000; stroke-width:4; stroke-opacity:1; fill:none" points="
  1299.18,1362.26 1299.18,1347.37 
  "/>
<polyline clip-path="url(#clip4700)" style="stroke:#000000; stroke-width:4; stroke-opacity:1; fill:none" points="
  1552.54,1362.26 1552.54,1347.37 
  "/>
<polyline clip-path="url(#clip4700)" style="stroke:#000000; stroke-width:4; stroke-opacity:1; fill:none" points="
  1805.91,1362.26 1805.91,1347.37 
  "/>
<polyline clip-path="url(#clip4700)" style="stroke:#000000; stroke-width:4; stroke-opacity:1; fill:none" points="
  2059.27,1362.26 2059.27,1347.37 
  "/>
<polyline clip-path="url(#clip4700)" style="stroke:#000000; stroke-width:4; stroke-opacity:1; fill:none" points="
  290.893,1230.79 314.484,1230.79 
  "/>
<polyline clip-path="url(#clip4700)" style="stroke:#000000; stroke-width:4; stroke-opacity:1; fill:none" points="
  290.893,1046.29 314.484,1046.29 
  "/>
<polyline clip-path="url(#clip4700)" style="stroke:#000000; stroke-width:4; stroke-opacity:1; fill:none" points="
  290.893,861.784 314.484,861.784 
  "/>
<polyline clip-path="url(#clip4700)" style="stroke:#000000; stroke-width:4; stroke-opacity:1; fill:none" points="
  290.893,677.279 314.484,677.279 
  "/>
<polyline clip-path="url(#clip4700)" style="stroke:#000000; stroke-width:4; stroke-opacity:1; fill:none" points="
  290.893,492.774 314.484,492.774 
  "/>
<polyline clip-path="url(#clip4700)" style="stroke:#000000; stroke-width:4; stroke-opacity:1; fill:none" points="
  290.893,308.269 314.484,308.269 
  "/>
<polyline clip-path="url(#clip4700)" style="stroke:#000000; stroke-width:4; stroke-opacity:1; fill:none" points="
  290.893,123.764 314.484,123.764 
  "/>
<g clip-path="url(#clip4700)">
<text style="fill:#000000; fill-opacity:1; font-family:Arial,Helvetica Neue,Helvetica,sans-serif; font-size:48px; text-anchor:start;" transform="rotate(0, 457.43, 1436.79)" x="457.43" y="1436.79">10</text>
</g>
<g clip-path="url(#clip4700)">
<text style="fill:#000000; fill-opacity:1; font-family:Arial,Helvetica Neue,Helvetica,sans-serif; font-size:38px; text-anchor:start;" transform="rotate(0, 510.954, 1409.38)" x="510.954" y="1409.38">-</text>
</g>
<g clip-path="url(#clip4700)">
<text style="fill:#000000; fill-opacity:1; font-family:Arial,Helvetica Neue,Helvetica,sans-serif; font-size:38px; text-anchor:start;" transform="rotate(0, 533.794, 1409.38)" x="533.794" y="1409.38">5.25 </text>
</g>
<g clip-path="url(#clip4700)">
<text style="fill:#000000; fill-opacity:1; font-family:Arial,Helvetica Neue,Helvetica,sans-serif; font-size:48px; text-anchor:start;" transform="rotate(0, 710.791, 1436.79)" x="710.791" y="1436.79">10</text>
</g>
<g clip-path="url(#clip4700)">
<text style="fill:#000000; fill-opacity:1; font-family:Arial,Helvetica Neue,Helvetica,sans-serif; font-size:38px; text-anchor:start;" transform="rotate(0, 764.315, 1409.38)" x="764.315" y="1409.38">-</text>
</g>
<g clip-path="url(#clip4700)">
<text style="fill:#000000; fill-opacity:1; font-family:Arial,Helvetica Neue,Helvetica,sans-serif; font-size:38px; text-anchor:start;" transform="rotate(0, 787.155, 1409.38)" x="787.155" y="1409.38">5.00 </text>
</g>
<g clip-path="url(#clip4700)">
<text style="fill:#000000; fill-opacity:1; font-family:Arial,Helvetica Neue,Helvetica,sans-serif; font-size:48px; text-anchor:start;" transform="rotate(0, 964.151, 1436.79)" x="964.151" y="1436.79">10</text>
</g>
<g clip-path="url(#clip4700)">
<text style="fill:#000000; fill-opacity:1; font-family:Arial,Helvetica Neue,Helvetica,sans-serif; font-size:38px; text-anchor:start;" transform="rotate(0, 1017.68, 1409.38)" x="1017.68" y="1409.38">-</text>
</g>
<g clip-path="url(#clip4700)">
<text style="fill:#000000; fill-opacity:1; font-family:Arial,Helvetica Neue,Helvetica,sans-serif; font-size:38px; text-anchor:start;" transform="rotate(0, 1040.52, 1409.38)" x="1040.52" y="1409.38">4.75 </text>
</g>
<g clip-path="url(#clip4700)">
<text style="fill:#000000; fill-opacity:1; font-family:Arial,Helvetica Neue,Helvetica,sans-serif; font-size:48px; text-anchor:start;" transform="rotate(0, 1217.51, 1436.79)" x="1217.51" y="1436.79">10</text>
</g>
<g clip-path="url(#clip4700)">
<text style="fill:#000000; fill-opacity:1; font-family:Arial,Helvetica Neue,Helvetica,sans-serif; font-size:38px; text-anchor:start;" transform="rotate(0, 1271.04, 1409.38)" x="1271.04" y="1409.38">-</text>
</g>
<g clip-path="url(#clip4700)">
<text style="fill:#000000; fill-opacity:1; font-family:Arial,Helvetica Neue,Helvetica,sans-serif; font-size:38px; text-anchor:start;" transform="rotate(0, 1293.88, 1409.38)" x="1293.88" y="1409.38">4.50 </text>
</g>
<g clip-path="url(#clip4700)">
<text style="fill:#000000; fill-opacity:1; font-family:Arial,Helvetica Neue,Helvetica,sans-serif; font-size:48px; text-anchor:start;" transform="rotate(0, 1470.87, 1436.79)" x="1470.87" y="1436.79">10</text>
</g>
<g clip-path="url(#clip4700)">
<text style="fill:#000000; fill-opacity:1; font-family:Arial,Helvetica Neue,Helvetica,sans-serif; font-size:38px; text-anchor:start;" transform="rotate(0, 1524.4, 1409.38)" x="1524.4" y="1409.38">-</text>
</g>
<g clip-path="url(#clip4700)">
<text style="fill:#000000; fill-opacity:1; font-family:Arial,Helvetica Neue,Helvetica,sans-serif; font-size:38px; text-anchor:start;" transform="rotate(0, 1547.24, 1409.38)" x="1547.24" y="1409.38">4.25 </text>
</g>
<g clip-path="url(#clip4700)">
<text style="fill:#000000; fill-opacity:1; font-family:Arial,Helvetica Neue,Helvetica,sans-serif; font-size:48px; text-anchor:start;" transform="rotate(0, 1724.23, 1436.79)" x="1724.23" y="1436.79">10</text>
</g>
<g clip-path="url(#clip4700)">
<text style="fill:#000000; fill-opacity:1; font-family:Arial,Helvetica Neue,Helvetica,sans-serif; font-size:38px; text-anchor:start;" transform="rotate(0, 1777.76, 1409.38)" x="1777.76" y="1409.38">-</text>
</g>
<g clip-path="url(#clip4700)">
<text style="fill:#000000; fill-opacity:1; font-family:Arial,Helvetica Neue,Helvetica,sans-serif; font-size:38px; text-anchor:start;" transform="rotate(0, 1800.6, 1409.38)" x="1800.6" y="1409.38">4.00 </text>
</g>
<g clip-path="url(#clip4700)">
<text style="fill:#000000; fill-opacity:1; font-family:Arial,Helvetica Neue,Helvetica,sans-serif; font-size:48px; text-anchor:start;" transform="rotate(0, 1977.6, 1436.79)" x="1977.6" y="1436.79">10</text>
</g>
<g clip-path="url(#clip4700)">
<text style="fill:#000000; fill-opacity:1; font-family:Arial,Helvetica Neue,Helvetica,sans-serif; font-size:38px; text-anchor:start;" transform="rotate(0, 2031.12, 1409.38)" x="2031.12" y="1409.38">-</text>
</g>
<g clip-path="url(#clip4700)">
<text style="fill:#000000; fill-opacity:1; font-family:Arial,Helvetica Neue,Helvetica,sans-serif; font-size:38px; text-anchor:start;" transform="rotate(0, 2053.96, 1409.38)" x="2053.96" y="1409.38">3.75 </text>
</g>
<g clip-path="url(#clip4700)">
<text style="fill:#000000; fill-opacity:1; font-family:Arial,Helvetica Neue,Helvetica,sans-serif; font-size:48px; text-anchor:start;" transform="rotate(0, 149.096, 1254.52)" x="149.096" y="1254.52">10</text>
</g>
<g clip-path="url(#clip4700)">
<text style="fill:#000000; fill-opacity:1; font-family:Arial,Helvetica Neue,Helvetica,sans-serif; font-size:38px; text-anchor:start;" transform="rotate(0, 202.62, 1227.11)" x="202.62" y="1227.11">1.3 </text>
</g>
<g clip-path="url(#clip4700)">
<text style="fill:#000000; fill-opacity:1; font-family:Arial,Helvetica Neue,Helvetica,sans-serif; font-size:48px; text-anchor:start;" transform="rotate(0, 149.096, 1070.02)" x="149.096" y="1070.02">10</text>
</g>
<g clip-path="url(#clip4700)">
<text style="fill:#000000; fill-opacity:1; font-family:Arial,Helvetica Neue,Helvetica,sans-serif; font-size:38px; text-anchor:start;" transform="rotate(0, 202.62, 1042.61)" x="202.62" y="1042.61">1.4 </text>
</g>
<g clip-path="url(#clip4700)">
<text style="fill:#000000; fill-opacity:1; font-family:Arial,Helvetica Neue,Helvetica,sans-serif; font-size:48px; text-anchor:start;" transform="rotate(0, 149.096, 885.512)" x="149.096" y="885.512">10</text>
</g>
<g clip-path="url(#clip4700)">
<text style="fill:#000000; fill-opacity:1; font-family:Arial,Helvetica Neue,Helvetica,sans-serif; font-size:38px; text-anchor:start;" transform="rotate(0, 202.62, 858.102)" x="202.62" y="858.102">1.5 </text>
</g>
<g clip-path="url(#clip4700)">
<text style="fill:#000000; fill-opacity:1; font-family:Arial,Helvetica Neue,Helvetica,sans-serif; font-size:48px; text-anchor:start;" transform="rotate(0, 149.096, 701.007)" x="149.096" y="701.007">10</text>
</g>
<g clip-path="url(#clip4700)">
<text style="fill:#000000; fill-opacity:1; font-family:Arial,Helvetica Neue,Helvetica,sans-serif; font-size:38px; text-anchor:start;" transform="rotate(0, 202.62, 673.596)" x="202.62" y="673.596">1.6 </text>
</g>
<g clip-path="url(#clip4700)">
<text style="fill:#000000; fill-opacity:1; font-family:Arial,Helvetica Neue,Helvetica,sans-serif; font-size:48px; text-anchor:start;" transform="rotate(0, 149.096, 516.502)" x="149.096" y="516.502">10</text>
</g>
<g clip-path="url(#clip4700)">
<text style="fill:#000000; fill-opacity:1; font-family:Arial,Helvetica Neue,Helvetica,sans-serif; font-size:38px; text-anchor:start;" transform="rotate(0, 202.62, 489.091)" x="202.62" y="489.091">1.7 </text>
</g>
<g clip-path="url(#clip4700)">
<text style="fill:#000000; fill-opacity:1; font-family:Arial,Helvetica Neue,Helvetica,sans-serif; font-size:48px; text-anchor:start;" transform="rotate(0, 149.096, 331.997)" x="149.096" y="331.997">10</text>
</g>
<g clip-path="url(#clip4700)">
<text style="fill:#000000; fill-opacity:1; font-family:Arial,Helvetica Neue,Helvetica,sans-serif; font-size:38px; text-anchor:start;" transform="rotate(0, 202.62, 304.586)" x="202.62" y="304.586">1.8 </text>
</g>
<g clip-path="url(#clip4700)">
<text style="fill:#000000; fill-opacity:1; font-family:Arial,Helvetica Neue,Helvetica,sans-serif; font-size:48px; text-anchor:start;" transform="rotate(0, 149.096, 147.491)" x="149.096" y="147.491">10</text>
</g>
<g clip-path="url(#clip4700)">
<text style="fill:#000000; fill-opacity:1; font-family:Arial,Helvetica Neue,Helvetica,sans-serif; font-size:38px; text-anchor:start;" transform="rotate(0, 202.62, 120.081)" x="202.62" y="120.081">1.9 </text>
</g>
<g clip-path="url(#clip4700)">
<text style="fill:#000000; fill-opacity:1; font-family:Arial,Helvetica Neue,Helvetica,sans-serif; font-size:84px; text-anchor:middle;" transform="rotate(0, 1273.82, 73.2)" x="1273.82" y="73.2">ExpRK methods, low order</text>
</g>
<g clip-path="url(#clip4700)">
<text style="fill:#000000; fill-opacity:1; font-family:Arial,Helvetica Neue,Helvetica,sans-serif; font-size:66px; text-anchor:middle;" transform="rotate(0, 1273.82, 1495.16)" x="1273.82" y="1495.16">Error</text>
</g>
<g clip-path="url(#clip4700)">
<text style="fill:#000000; fill-opacity:1; font-family:Arial,Helvetica Neue,Helvetica,sans-serif; font-size:66px; text-anchor:middle;" transform="rotate(-90, 90.2461, 741.967)" x="90.2461" y="741.967">Time (s)</text>
</g>
<polyline clip-path="url(#clip4702)" style="stroke:#009af9; stroke-width:12; stroke-opacity:1; fill:none" points="
  2123.98,921.1 1819.61,706.273 1514.81,156.786 1209.85,273.821 
  "/>
<circle clip-path="url(#clip4702)" style="fill:#000000; stroke:none; fill-opacity:1" cx="2123.98" cy="921.1" r="18"/>
<circle clip-path="url(#clip4702)" style="fill:#009af9; stroke:none; fill-opacity:1" cx="2123.98" cy="921.1" r="14"/>
<circle clip-path="url(#clip4702)" style="fill:#000000; stroke:none; fill-opacity:1" cx="1819.61" cy="706.273" r="18"/>
<circle clip-path="url(#clip4702)" style="fill:#009af9; stroke:none; fill-opacity:1" cx="1819.61" cy="706.273" r="14"/>
<circle clip-path="url(#clip4702)" style="fill:#000000; stroke:none; fill-opacity:1" cx="1514.81" cy="156.786" r="18"/>
<circle clip-path="url(#clip4702)" style="fill:#009af9; stroke:none; fill-opacity:1" cx="1514.81" cy="156.786" r="14"/>
<circle clip-path="url(#clip4702)" style="fill:#000000; stroke:none; fill-opacity:1" cx="1209.85" cy="273.821" r="18"/>
<circle clip-path="url(#clip4702)" style="fill:#009af9; stroke:none; fill-opacity:1" cx="1209.85" cy="273.821" r="14"/>
<polyline clip-path="url(#clip4702)" style="stroke:#e26f46; stroke-width:12; stroke-opacity:1; fill:none" points="
  2201.12,1327.15 1590.65,1310.79 957.665,1072.51 346.531,1015.67 
  "/>
<polygon clip-path="url(#clip4702)" style="fill:#000000; fill-opacity:1" points="
  2181.12,1307.15 2181.12,1347.15 2221.12,1347.15 2221.12,1307.15 2181.12,1307.15 
  "/>
<polygon clip-path="url(#clip4702)" style="fill:#e26f46; fill-opacity:1" points="
  2185.12,1311.15 2185.12,1343.15 2217.12,1343.15 2217.12,1311.15 2185.12,1311.15 
  "/>
<polygon clip-path="url(#clip4702)" style="fill:#000000; fill-opacity:1" points="
  1570.65,1290.79 1570.65,1330.79 1610.65,1330.79 1610.65,1290.79 1570.65,1290.79 
  "/>
<polygon clip-path="url(#clip4702)" style="fill:#e26f46; fill-opacity:1" points="
  1574.65,1294.79 1574.65,1326.79 1606.65,1326.79 1606.65,1294.79 1574.65,1294.79 
  "/>
<polygon clip-path="url(#clip4702)" style="fill:#000000; fill-opacity:1" points="
  937.665,1052.51 937.665,1092.51 977.665,1092.51 977.665,1052.51 937.665,1052.51 
  "/>
<polygon clip-path="url(#clip4702)" style="fill:#e26f46; fill-opacity:1" points="
  941.665,1056.51 941.665,1088.51 973.665,1088.51 973.665,1056.51 941.665,1056.51 
  "/>
<polygon clip-path="url(#clip4702)" style="fill:#000000; fill-opacity:1" points="
  326.531,995.672 326.531,1035.67 366.531,1035.67 366.531,995.672 326.531,995.672 
  "/>
<polygon clip-path="url(#clip4702)" style="fill:#e26f46; fill-opacity:1" points="
  330.531,999.672 330.531,1031.67 362.531,1031.67 362.531,999.672 330.531,999.672 
  "/>
<path clip-path="url(#clip4700)" d="
M1556.04 380.875 L2187.64 380.875 L2187.64 199.435 L1556.04 199.435  Z
  " fill="#ffffff" fill-rule="evenodd" fill-opacity="1"/>
<polyline clip-path="url(#clip4700)" style="stroke:#000000; stroke-width:4; stroke-opacity:1; fill:none" points="
  1556.04,380.875 2187.64,380.875 2187.64,199.435 1556.04,199.435 1556.04,380.875 
  "/>
<polyline clip-path="url(#clip4700)" style="stroke:#009af9; stroke-width:12; stroke-opacity:1; fill:none" points="
  1579.08,259.915 1717.32,259.915 
  "/>
<circle clip-path="url(#clip4700)" style="fill:#000000; stroke:none; fill-opacity:1" cx="1659.72" cy="259.915" r="25"/>
<circle clip-path="url(#clip4700)" style="fill:#009af9; stroke:none; fill-opacity:1" cx="1659.72" cy="259.915" r="21"/>
<g clip-path="url(#clip4700)">
<text style="fill:#000000; fill-opacity:1; font-family:Arial,Helvetica Neue,Helvetica,sans-serif; font-size:48px; text-anchor:start;" transform="rotate(0, 1740.36, 277.415)" x="1740.36" y="277.415">NorsettEuler</text>
</g>
<polyline clip-path="url(#clip4700)" style="stroke:#e26f46; stroke-width:12; stroke-opacity:1; fill:none" points="
  1579.08,320.395 1717.32,320.395 
  "/>
<polygon clip-path="url(#clip4700)" style="fill:#000000; fill-opacity:1" points="
  1631.72,292.395 1631.72,348.395 1687.72,348.395 1687.72,292.395 1631.72,292.395 
  "/>
<polygon clip-path="url(#clip4700)" style="fill:#e26f46; fill-opacity:1" points="
  1635.72,296.395 1635.72,344.395 1683.72,344.395 1683.72,296.395 1635.72,296.395 
  "/>
<g clip-path="url(#clip4700)">
<text style="fill:#000000; fill-opacity:1; font-family:Arial,Helvetica Neue,Helvetica,sans-serif; font-size:48px; text-anchor:start;" transform="rotate(0, 1740.36, 337.895)" x="1740.36" y="337.895">ETDRK2 (caching)</text>
</g>
</svg>
