<?xml version="1.0" encoding="utf-8"?>
<svg xmlns="http://www.w3.org/2000/svg" xmlns:xlink="http://www.w3.org/1999/xlink" width="576" height="384" viewBox="0 0 2304 1536">
<defs>
  <clipPath id="clip9900">
    <rect x="0" y="0" width="2304" height="1536"/>
  </clipPath>
</defs>
<path clip-path="url(#clip9900)" d="
M0 1536 L2304 1536 L2304 0 L0 0  Z
  " fill="#ffffff" fill-rule="evenodd" fill-opacity="1"/>
<defs>
  <clipPath id="clip9901">
    <rect x="460" y="0" width="1614" height="1536"/>
  </clipPath>
</defs>
<path clip-path="url(#clip9900)" d="
M290.893 1362.26 L2256.76 1362.26 L2256.76 47.2441 L290.893 47.2441  Z
  " fill="#ffffff" fill-rule="evenodd" fill-opacity="1"/>
<defs>
  <clipPath id="clip9902">
    <rect x="290" y="47" width="1967" height="1316"/>
  </clipPath>
</defs>
<polyline clip-path="url(#clip9902)" style="stroke:#000000; stroke-width:2; stroke-opacity:0.1; fill:none" points="
  294.111,1362.26 294.111,47.2441 
  "/>
<polyline clip-path="url(#clip9902)" style="stroke:#000000; stroke-width:2; stroke-opacity:0.1; fill:none" points="
  660.68,1362.26 660.68,47.2441 
  "/>
<polyline clip-path="url(#clip9902)" style="stroke:#000000; stroke-width:2; stroke-opacity:0.1; fill:none" points="
  1027.25,1362.26 1027.25,47.2441 
  "/>
<polyline clip-path="url(#clip9902)" style="stroke:#000000; stroke-width:2; stroke-opacity:0.1; fill:none" points="
  1393.82,1362.26 1393.82,47.2441 
  "/>
<polyline clip-path="url(#clip9902)" style="stroke:#000000; stroke-width:2; stroke-opacity:0.1; fill:none" points="
  1760.39,1362.26 1760.39,47.2441 
  "/>
<polyline clip-path="url(#clip9902)" style="stroke:#000000; stroke-width:2; stroke-opacity:0.1; fill:none" points="
  2126.96,1362.26 2126.96,47.2441 
  "/>
<polyline clip-path="url(#clip9902)" style="stroke:#000000; stroke-width:2; stroke-opacity:0.1; fill:none" points="
  290.893,1295.53 2256.76,1295.53 
  "/>
<polyline clip-path="url(#clip9902)" style="stroke:#000000; stroke-width:2; stroke-opacity:0.1; fill:none" points="
  290.893,1029.5 2256.76,1029.5 
  "/>
<polyline clip-path="url(#clip9902)" style="stroke:#000000; stroke-width:2; stroke-opacity:0.1; fill:none" points="
  290.893,763.477 2256.76,763.477 
  "/>
<polyline clip-path="url(#clip9902)" style="stroke:#000000; stroke-width:2; stroke-opacity:0.1; fill:none" points="
  290.893,497.45 2256.76,497.45 
  "/>
<polyline clip-path="url(#clip9902)" style="stroke:#000000; stroke-width:2; stroke-opacity:0.1; fill:none" points="
  290.893,231.423 2256.76,231.423 
  "/>
<polyline clip-path="url(#clip9900)" style="stroke:#000000; stroke-width:4; stroke-opacity:1; fill:none" points="
  290.893,1362.26 2256.76,1362.26 
  "/>
<polyline clip-path="url(#clip9900)" style="stroke:#000000; stroke-width:4; stroke-opacity:1; fill:none" points="
  290.893,1362.26 290.893,47.2441 
  "/>
<polyline clip-path="url(#clip9900)" style="stroke:#000000; stroke-width:4; stroke-opacity:1; fill:none" points="
  294.111,1362.26 294.111,1342.53 
  "/>
<polyline clip-path="url(#clip9900)" style="stroke:#000000; stroke-width:4; stroke-opacity:1; fill:none" points="
  660.68,1362.26 660.68,1342.53 
  "/>
<polyline clip-path="url(#clip9900)" style="stroke:#000000; stroke-width:4; stroke-opacity:1; fill:none" points="
  1027.25,1362.26 1027.25,1342.53 
  "/>
<polyline clip-path="url(#clip9900)" style="stroke:#000000; stroke-width:4; stroke-opacity:1; fill:none" points="
  1393.82,1362.26 1393.82,1342.53 
  "/>
<polyline clip-path="url(#clip9900)" style="stroke:#000000; stroke-width:4; stroke-opacity:1; fill:none" points="
  1760.39,1362.26 1760.39,1342.53 
  "/>
<polyline clip-path="url(#clip9900)" style="stroke:#000000; stroke-width:4; stroke-opacity:1; fill:none" points="
  2126.96,1362.26 2126.96,1342.53 
  "/>
<polyline clip-path="url(#clip9900)" style="stroke:#000000; stroke-width:4; stroke-opacity:1; fill:none" points="
  290.893,1295.53 320.381,1295.53 
  "/>
<polyline clip-path="url(#clip9900)" style="stroke:#000000; stroke-width:4; stroke-opacity:1; fill:none" points="
  290.893,1029.5 320.381,1029.5 
  "/>
<polyline clip-path="url(#clip9900)" style="stroke:#000000; stroke-width:4; stroke-opacity:1; fill:none" points="
  290.893,763.477 320.381,763.477 
  "/>
<polyline clip-path="url(#clip9900)" style="stroke:#000000; stroke-width:4; stroke-opacity:1; fill:none" points="
  290.893,497.45 320.381,497.45 
  "/>
<polyline clip-path="url(#clip9900)" style="stroke:#000000; stroke-width:4; stroke-opacity:1; fill:none" points="
  290.893,231.423 320.381,231.423 
  "/>
<g clip-path="url(#clip9900)">
<text style="fill:#000000; fill-opacity:1; font-family:Arial,Helvetica Neue,Helvetica,sans-serif; font-size:48px; text-anchor:start;" transform="rotate(0, 239.621, 1436.79)" x="239.621" y="1436.79">10</text>
</g>
<g clip-path="url(#clip9900)">
<text style="fill:#000000; fill-opacity:1; font-family:Arial,Helvetica Neue,Helvetica,sans-serif; font-size:38px; text-anchor:start;" transform="rotate(0, 293.146, 1409.38)" x="293.146" y="1409.38">-</text>
</g>
<g clip-path="url(#clip9900)">
<text style="fill:#000000; fill-opacity:1; font-family:Arial,Helvetica Neue,Helvetica,sans-serif; font-size:38px; text-anchor:start;" transform="rotate(0, 315.985, 1409.38)" x="315.985" y="1409.38">3 </text>
</g>
<g clip-path="url(#clip9900)">
<text style="fill:#000000; fill-opacity:1; font-family:Arial,Helvetica Neue,Helvetica,sans-serif; font-size:48px; text-anchor:start;" transform="rotate(0, 606.19, 1436.79)" x="606.19" y="1436.79">10</text>
</g>
<g clip-path="url(#clip9900)">
<text style="fill:#000000; fill-opacity:1; font-family:Arial,Helvetica Neue,Helvetica,sans-serif; font-size:38px; text-anchor:start;" transform="rotate(0, 659.715, 1409.38)" x="659.715" y="1409.38">-</text>
</g>
<g clip-path="url(#clip9900)">
<text style="fill:#000000; fill-opacity:1; font-family:Arial,Helvetica Neue,Helvetica,sans-serif; font-size:38px; text-anchor:start;" transform="rotate(0, 682.554, 1409.38)" x="682.554" y="1409.38">2 </text>
</g>
<g clip-path="url(#clip9900)">
<text style="fill:#000000; fill-opacity:1; font-family:Arial,Helvetica Neue,Helvetica,sans-serif; font-size:48px; text-anchor:start;" transform="rotate(0, 972.759, 1436.79)" x="972.759" y="1436.79">10</text>
</g>
<g clip-path="url(#clip9900)">
<text style="fill:#000000; fill-opacity:1; font-family:Arial,Helvetica Neue,Helvetica,sans-serif; font-size:38px; text-anchor:start;" transform="rotate(0, 1026.28, 1409.38)" x="1026.28" y="1409.38">-</text>
</g>
<g clip-path="url(#clip9900)">
<text style="fill:#000000; fill-opacity:1; font-family:Arial,Helvetica Neue,Helvetica,sans-serif; font-size:38px; text-anchor:start;" transform="rotate(0, 1049.12, 1409.38)" x="1049.12" y="1409.38">1 </text>
</g>
<g clip-path="url(#clip9900)">
<text style="fill:#000000; fill-opacity:1; font-family:Arial,Helvetica Neue,Helvetica,sans-serif; font-size:48px; text-anchor:start;" transform="rotate(0, 1350.75, 1436.79)" x="1350.75" y="1436.79">10</text>
</g>
<g clip-path="url(#clip9900)">
<text style="fill:#000000; fill-opacity:1; font-family:Arial,Helvetica Neue,Helvetica,sans-serif; font-size:38px; text-anchor:start;" transform="rotate(0, 1404.27, 1409.38)" x="1404.27" y="1409.38">0 </text>
</g>
<g clip-path="url(#clip9900)">
<text style="fill:#000000; fill-opacity:1; font-family:Arial,Helvetica Neue,Helvetica,sans-serif; font-size:48px; text-anchor:start;" transform="rotate(0, 1717.32, 1436.79)" x="1717.32" y="1436.79">10</text>
</g>
<g clip-path="url(#clip9900)">
<text style="fill:#000000; fill-opacity:1; font-family:Arial,Helvetica Neue,Helvetica,sans-serif; font-size:38px; text-anchor:start;" transform="rotate(0, 1770.84, 1409.38)" x="1770.84" y="1409.38">1 </text>
</g>
<g clip-path="url(#clip9900)">
<text style="fill:#000000; fill-opacity:1; font-family:Arial,Helvetica Neue,Helvetica,sans-serif; font-size:48px; text-anchor:start;" transform="rotate(0, 2083.89, 1436.79)" x="2083.89" y="1436.79">10</text>
</g>
<g clip-path="url(#clip9900)">
<text style="fill:#000000; fill-opacity:1; font-family:Arial,Helvetica Neue,Helvetica,sans-serif; font-size:38px; text-anchor:start;" transform="rotate(0, 2137.41, 1409.38)" x="2137.41" y="1409.38">2 </text>
</g>
<g clip-path="url(#clip9900)">
<text style="fill:#000000; fill-opacity:1; font-family:Arial,Helvetica Neue,Helvetica,sans-serif; font-size:48px; text-anchor:start;" transform="rotate(0, 149.096, 1319.26)" x="149.096" y="1319.26">10</text>
</g>
<g clip-path="url(#clip9900)">
<text style="fill:#000000; fill-opacity:1; font-family:Arial,Helvetica Neue,Helvetica,sans-serif; font-size:38px; text-anchor:start;" transform="rotate(0, 202.62, 1291.85)" x="202.62" y="1291.85">1.8 </text>
</g>
<g clip-path="url(#clip9900)">
<text style="fill:#000000; fill-opacity:1; font-family:Arial,Helvetica Neue,Helvetica,sans-serif; font-size:48px; text-anchor:start;" transform="rotate(0, 149.096, 1053.23)" x="149.096" y="1053.23">10</text>
</g>
<g clip-path="url(#clip9900)">
<text style="fill:#000000; fill-opacity:1; font-family:Arial,Helvetica Neue,Helvetica,sans-serif; font-size:38px; text-anchor:start;" transform="rotate(0, 202.62, 1025.82)" x="202.62" y="1025.82">2.0 </text>
</g>
<g clip-path="url(#clip9900)">
<text style="fill:#000000; fill-opacity:1; font-family:Arial,Helvetica Neue,Helvetica,sans-serif; font-size:48px; text-anchor:start;" transform="rotate(0, 149.096, 787.205)" x="149.096" y="787.205">10</text>
</g>
<g clip-path="url(#clip9900)">
<text style="fill:#000000; fill-opacity:1; font-family:Arial,Helvetica Neue,Helvetica,sans-serif; font-size:38px; text-anchor:start;" transform="rotate(0, 202.62, 759.795)" x="202.62" y="759.795">2.2 </text>
</g>
<g clip-path="url(#clip9900)">
<text style="fill:#000000; fill-opacity:1; font-family:Arial,Helvetica Neue,Helvetica,sans-serif; font-size:48px; text-anchor:start;" transform="rotate(0, 149.096, 521.178)" x="149.096" y="521.178">10</text>
</g>
<g clip-path="url(#clip9900)">
<text style="fill:#000000; fill-opacity:1; font-family:Arial,Helvetica Neue,Helvetica,sans-serif; font-size:38px; text-anchor:start;" transform="rotate(0, 202.62, 493.767)" x="202.62" y="493.767">2.4 </text>
</g>
<g clip-path="url(#clip9900)">
<text style="fill:#000000; fill-opacity:1; font-family:Arial,Helvetica Neue,Helvetica,sans-serif; font-size:48px; text-anchor:start;" transform="rotate(0, 149.096, 255.15)" x="149.096" y="255.15">10</text>
</g>
<g clip-path="url(#clip9900)">
<text style="fill:#000000; fill-opacity:1; font-family:Arial,Helvetica Neue,Helvetica,sans-serif; font-size:38px; text-anchor:start;" transform="rotate(0, 202.62, 227.74)" x="202.62" y="227.74">2.6 </text>
</g>
<g clip-path="url(#clip9900)">
<text style="fill:#000000; fill-opacity:1; font-family:Arial,Helvetica Neue,Helvetica,sans-serif; font-size:66px; text-anchor:middle;" transform="rotate(0, 1273.82, 1495.16)" x="1273.82" y="1495.16">Error</text>
</g>
<g clip-path="url(#clip9900)">
<text style="fill:#000000; fill-opacity:1; font-family:Arial,Helvetica Neue,Helvetica,sans-serif; font-size:66px; text-anchor:middle;" transform="rotate(-90, 90.2461, 704.751)" x="90.2461" y="704.751">Time (s)</text>
</g>
<polyline clip-path="url(#clip9902)" style="stroke:#009af9; stroke-width:12; stroke-opacity:1; fill:none" points="
  2201.12,1113.54 1918.32,833.983 1687.01,501.263 1482.65,84.4615 
  "/>
<circle clip-path="url(#clip9902)" style="fill:#000000; stroke:none; fill-opacity:1" cx="2201.12" cy="1113.54" r="18"/>
<circle clip-path="url(#clip9902)" style="fill:#009af9; stroke:none; fill-opacity:1" cx="2201.12" cy="1113.54" r="14"/>
<circle clip-path="url(#clip9902)" style="fill:#000000; stroke:none; fill-opacity:1" cx="1918.32" cy="833.983" r="18"/>
<circle clip-path="url(#clip9902)" style="fill:#009af9; stroke:none; fill-opacity:1" cx="1918.32" cy="833.983" r="14"/>
<circle clip-path="url(#clip9902)" style="fill:#000000; stroke:none; fill-opacity:1" cx="1687.01" cy="501.263" r="18"/>
<circle clip-path="url(#clip9902)" style="fill:#009af9; stroke:none; fill-opacity:1" cx="1687.01" cy="501.263" r="14"/>
<circle clip-path="url(#clip9902)" style="fill:#000000; stroke:none; fill-opacity:1" cx="1482.65" cy="84.4615" r="18"/>
<circle clip-path="url(#clip9902)" style="fill:#009af9; stroke:none; fill-opacity:1" cx="1482.65" cy="84.4615" r="14"/>
<polyline clip-path="url(#clip9902)" style="stroke:#e26f46; stroke-width:12; stroke-opacity:1; fill:none" points="
  2138.95,808.257 1704.85,694.93 1325.42,555.216 1078.65,468.48 
  "/>
<polygon clip-path="url(#clip9902)" style="fill:#000000; fill-opacity:1" points="
  2118.95,788.257 2118.95,828.257 2158.95,828.257 2158.95,788.257 2118.95,788.257 
  "/>
<polygon clip-path="url(#clip9902)" style="fill:#e26f46; fill-opacity:1" points="
  2122.95,792.257 2122.95,824.257 2154.95,824.257 2154.95,792.257 2122.95,792.257 
  "/>
<polygon clip-path="url(#clip9902)" style="fill:#000000; fill-opacity:1" points="
  1684.85,674.93 1684.85,714.93 1724.85,714.93 1724.85,674.93 1684.85,674.93 
  "/>
<polygon clip-path="url(#clip9902)" style="fill:#e26f46; fill-opacity:1" points="
  1688.85,678.93 1688.85,710.93 1720.85,710.93 1720.85,678.93 1688.85,678.93 
  "/>
<polygon clip-path="url(#clip9902)" style="fill:#000000; fill-opacity:1" points="
  1305.42,535.216 1305.42,575.216 1345.42,575.216 1345.42,535.216 1305.42,535.216 
  "/>
<polygon clip-path="url(#clip9902)" style="fill:#e26f46; fill-opacity:1" points="
  1309.42,539.216 1309.42,571.216 1341.42,571.216 1341.42,539.216 1309.42,539.216 
  "/>
<polygon clip-path="url(#clip9902)" style="fill:#000000; fill-opacity:1" points="
  1058.65,448.48 1058.65,488.48 1098.65,488.48 1098.65,448.48 1058.65,448.48 
  "/>
<polygon clip-path="url(#clip9902)" style="fill:#e26f46; fill-opacity:1" points="
  1062.65,452.48 1062.65,484.48 1094.65,484.48 1094.65,452.48 1062.65,452.48 
  "/>
<polyline clip-path="url(#clip9902)" style="stroke:#3da44d; stroke-width:12; stroke-opacity:1; fill:none" points="
  1359.3,1325.04 958.576,1162.47 623.834,841.62 346.531,466.368 
  "/>
<polygon clip-path="url(#clip9902)" style="fill:#000000; fill-opacity:1" points="
  1359.3,1305.04 1354.6,1318.56 1340.28,1318.86 1351.7,1327.52 1347.54,1341.22 1359.3,1333.04 1371.06,1341.22 1366.9,1327.52 1378.32,1318.86 1364,1318.56 
  1359.3,1305.04 
  "/>
<polygon clip-path="url(#clip9902)" style="fill:#3da44d; fill-opacity:1" points="
  1359.3,1309.04 1355.54,1319.86 1344.09,1320.1 1353.22,1327.03 1349.89,1337.99 1359.3,1331.44 1368.71,1337.99 1365.38,1327.03 1374.52,1320.1 1363.06,1319.86 
  1359.3,1309.04 
  "/>
<polygon clip-path="url(#clip9902)" style="fill:#000000; fill-opacity:1" points="
  958.576,1142.47 953.876,1155.99 939.556,1156.29 950.976,1164.95 946.816,1178.65 958.576,1170.47 970.336,1178.65 966.176,1164.95 977.596,1156.29 963.276,1155.99 
  958.576,1142.47 
  "/>
<polygon clip-path="url(#clip9902)" style="fill:#3da44d; fill-opacity:1" points="
  958.576,1146.47 954.816,1157.29 943.36,1157.53 952.496,1164.45 949.168,1175.41 958.576,1168.87 967.984,1175.41 964.656,1164.45 973.792,1157.53 962.336,1157.29 
  958.576,1146.47 
  "/>
<polygon clip-path="url(#clip9902)" style="fill:#000000; fill-opacity:1" points="
  623.834,821.62 619.134,835.14 604.814,835.44 616.234,844.1 612.074,857.8 623.834,849.62 635.594,857.8 631.434,844.1 642.854,835.44 628.534,835.14 
  623.834,821.62 
  "/>
<polygon clip-path="url(#clip9902)" style="fill:#3da44d; fill-opacity:1" points="
  623.834,825.62 620.074,836.436 608.618,836.676 617.754,843.604 614.426,854.564 623.834,848.02 633.242,854.564 629.914,843.604 639.05,836.676 627.594,836.436 
  623.834,825.62 
  "/>
<polygon clip-path="url(#clip9902)" style="fill:#000000; fill-opacity:1" points="
  346.531,446.368 341.831,459.888 327.511,460.188 338.931,468.848 334.771,482.548 346.531,474.368 358.291,482.548 354.131,468.848 365.551,460.188 351.231,459.888 
  346.531,446.368 
  "/>
<polygon clip-path="url(#clip9902)" style="fill:#3da44d; fill-opacity:1" points="
  346.531,450.368 342.771,461.184 331.315,461.424 340.451,468.352 337.123,479.312 346.531,472.768 355.939,479.312 352.611,468.352 361.747,461.424 350.291,461.184 
  346.531,450.368 
  "/>
<path clip-path="url(#clip9900)" d="
M1663.04 366.924 L2187.64 366.924 L2187.64 125.004 L1663.04 125.004  Z
  " fill="#ffffff" fill-rule="evenodd" fill-opacity="1"/>
<polyline clip-path="url(#clip9900)" style="stroke:#000000; stroke-width:4; stroke-opacity:1; fill:none" points="
  1663.04,366.924 2187.64,366.924 2187.64,125.004 1663.04,125.004 1663.04,366.924 
  "/>
<polyline clip-path="url(#clip9900)" style="stroke:#009af9; stroke-width:12; stroke-opacity:1; fill:none" points="
  1686.08,185.484 1824.32,185.484 
  "/>
<circle clip-path="url(#clip9900)" style="fill:#000000; stroke:none; fill-opacity:1" cx="1766.72" cy="185.484" r="25"/>
<circle clip-path="url(#clip9900)" style="fill:#009af9; stroke:none; fill-opacity:1" cx="1766.72" cy="185.484" r="21"/>
<g clip-path="url(#clip9900)">
<text style="fill:#000000; fill-opacity:1; font-family:Arial,Helvetica Neue,Helvetica,sans-serif; font-size:48px; text-anchor:start;" transform="rotate(0, 1847.36, 202.984)" x="1847.36" y="202.984">TRBDF2</text>
</g>
<polyline clip-path="url(#clip9900)" style="stroke:#e26f46; stroke-width:12; stroke-opacity:1; fill:none" points="
  1686.08,245.964 1824.32,245.964 
  "/>
<polygon clip-path="url(#clip9900)" style="fill:#000000; fill-opacity:1" points="
  1738.72,217.964 1738.72,273.964 1794.72,273.964 1794.72,217.964 1738.72,217.964 
  "/>
<polygon clip-path="url(#clip9900)" style="fill:#e26f46; fill-opacity:1" points="
  1742.72,221.964 1742.72,269.964 1790.72,269.964 1790.72,221.964 1742.72,221.964 
  "/>
<g clip-path="url(#clip9900)">
<text style="fill:#000000; fill-opacity:1; font-family:Arial,Helvetica Neue,Helvetica,sans-serif; font-size:48px; text-anchor:start;" transform="rotate(0, 1847.36, 263.464)" x="1847.36" y="263.464">CVODE_BDF</text>
</g>
<polyline clip-path="url(#clip9900)" style="stroke:#3da44d; stroke-width:12; stroke-opacity:1; fill:none" points="
  1686.08,306.444 1824.32,306.444 
  "/>
<polygon clip-path="url(#clip9900)" style="fill:#000000; fill-opacity:1" points="
  1766.72,278.444 1760.14,297.372 1740.09,297.792 1756.08,309.916 1750.26,329.096 1766.72,317.644 1783.19,329.096 1777.36,309.916 1793.35,297.792 1773.3,297.372 
  1766.72,278.444 
  "/>
<polygon clip-path="url(#clip9900)" style="fill:#3da44d; fill-opacity:1" points="
  1766.72,282.444 1761.08,298.668 1743.9,299.028 1757.6,309.42 1752.61,325.86 1766.72,316.044 1780.83,325.86 1775.84,309.42 1789.55,299.028 1772.36,298.668 
  1766.72,282.444 
  "/>
<g clip-path="url(#clip9900)">
<text style="fill:#000000; fill-opacity:1; font-family:Arial,Helvetica Neue,Helvetica,sans-serif; font-size:48px; text-anchor:start;" transform="rotate(0, 1847.36, 323.944)" x="1847.36" y="323.944">KenCarp4</text>
</g>
</svg>
