<?xml version="1.0" encoding="utf-8"?>
<svg xmlns="http://www.w3.org/2000/svg" xmlns:xlink="http://www.w3.org/1999/xlink" width="576" height="384" viewBox="0 0 2304 1536">
<defs>
  <clipPath id="clip0300">
    <rect x="0" y="0" width="2304" height="1536"/>
  </clipPath>
</defs>
<path clip-path="url(#clip0300)" d="
M0 1536 L2304 1536 L2304 0 L0 0  Z
  " fill="#ffffff" fill-rule="evenodd" fill-opacity="1"/>
<defs>
  <clipPath id="clip0301">
    <rect x="460" y="0" width="1614" height="1536"/>
  </clipPath>
</defs>
<path clip-path="url(#clip0300)" d="
M290.893 1362.26 L2256.76 1362.26 L2256.76 47.2441 L290.893 47.2441  Z
  " fill="#ffffff" fill-rule="evenodd" fill-opacity="1"/>
<defs>
  <clipPath id="clip0302">
    <rect x="290" y="47" width="1967" height="1316"/>
  </clipPath>
</defs>
<polyline clip-path="url(#clip0302)" style="stroke:#000000; stroke-width:2; stroke-opacity:0.1; fill:none" points="
  357.634,1362.26 357.634,47.2441 
  "/>
<polyline clip-path="url(#clip0302)" style="stroke:#000000; stroke-width:2; stroke-opacity:0.1; fill:none" points="
  711.411,1362.26 711.411,47.2441 
  "/>
<polyline clip-path="url(#clip0302)" style="stroke:#000000; stroke-width:2; stroke-opacity:0.1; fill:none" points="
  1065.19,1362.26 1065.19,47.2441 
  "/>
<polyline clip-path="url(#clip0302)" style="stroke:#000000; stroke-width:2; stroke-opacity:0.1; fill:none" points="
  1418.97,1362.26 1418.97,47.2441 
  "/>
<polyline clip-path="url(#clip0302)" style="stroke:#000000; stroke-width:2; stroke-opacity:0.1; fill:none" points="
  1772.74,1362.26 1772.74,47.2441 
  "/>
<polyline clip-path="url(#clip0302)" style="stroke:#000000; stroke-width:2; stroke-opacity:0.1; fill:none" points="
  2126.52,1362.26 2126.52,47.2441 
  "/>
<polyline clip-path="url(#clip0302)" style="stroke:#000000; stroke-width:2; stroke-opacity:0.1; fill:none" points="
  290.893,1149.37 2256.76,1149.37 
  "/>
<polyline clip-path="url(#clip0302)" style="stroke:#000000; stroke-width:2; stroke-opacity:0.1; fill:none" points="
  290.893,882.105 2256.76,882.105 
  "/>
<polyline clip-path="url(#clip0302)" style="stroke:#000000; stroke-width:2; stroke-opacity:0.1; fill:none" points="
  290.893,614.837 2256.76,614.837 
  "/>
<polyline clip-path="url(#clip0302)" style="stroke:#000000; stroke-width:2; stroke-opacity:0.1; fill:none" points="
  290.893,347.57 2256.76,347.57 
  "/>
<polyline clip-path="url(#clip0302)" style="stroke:#000000; stroke-width:2; stroke-opacity:0.1; fill:none" points="
  290.893,80.3026 2256.76,80.3026 
  "/>
<polyline clip-path="url(#clip0300)" style="stroke:#000000; stroke-width:4; stroke-opacity:1; fill:none" points="
  290.893,1362.26 2256.76,1362.26 
  "/>
<polyline clip-path="url(#clip0300)" style="stroke:#000000; stroke-width:4; stroke-opacity:1; fill:none" points="
  290.893,1362.26 290.893,47.2441 
  "/>
<polyline clip-path="url(#clip0300)" style="stroke:#000000; stroke-width:4; stroke-opacity:1; fill:none" points="
  357.634,1362.26 357.634,1342.53 
  "/>
<polyline clip-path="url(#clip0300)" style="stroke:#000000; stroke-width:4; stroke-opacity:1; fill:none" points="
  711.411,1362.26 711.411,1342.53 
  "/>
<polyline clip-path="url(#clip0300)" style="stroke:#000000; stroke-width:4; stroke-opacity:1; fill:none" points="
  1065.19,1362.26 1065.19,1342.53 
  "/>
<polyline clip-path="url(#clip0300)" style="stroke:#000000; stroke-width:4; stroke-opacity:1; fill:none" points="
  1418.97,1362.26 1418.97,1342.53 
  "/>
<polyline clip-path="url(#clip0300)" style="stroke:#000000; stroke-width:4; stroke-opacity:1; fill:none" points="
  1772.74,1362.26 1772.74,1342.53 
  "/>
<polyline clip-path="url(#clip0300)" style="stroke:#000000; stroke-width:4; stroke-opacity:1; fill:none" points="
  2126.52,1362.26 2126.52,1342.53 
  "/>
<polyline clip-path="url(#clip0300)" style="stroke:#000000; stroke-width:4; stroke-opacity:1; fill:none" points="
  290.893,1149.37 320.381,1149.37 
  "/>
<polyline clip-path="url(#clip0300)" style="stroke:#000000; stroke-width:4; stroke-opacity:1; fill:none" points="
  290.893,882.105 320.381,882.105 
  "/>
<polyline clip-path="url(#clip0300)" style="stroke:#000000; stroke-width:4; stroke-opacity:1; fill:none" points="
  290.893,614.837 320.381,614.837 
  "/>
<polyline clip-path="url(#clip0300)" style="stroke:#000000; stroke-width:4; stroke-opacity:1; fill:none" points="
  290.893,347.57 320.381,347.57 
  "/>
<polyline clip-path="url(#clip0300)" style="stroke:#000000; stroke-width:4; stroke-opacity:1; fill:none" points="
  290.893,80.3026 320.381,80.3026 
  "/>
<g clip-path="url(#clip0300)">
<text style="fill:#000000; fill-opacity:1; font-family:Arial,Helvetica Neue,Helvetica,sans-serif; font-size:48px; text-anchor:start;" transform="rotate(0, 303.143, 1436.79)" x="303.143" y="1436.79">10</text>
</g>
<g clip-path="url(#clip0300)">
<text style="fill:#000000; fill-opacity:1; font-family:Arial,Helvetica Neue,Helvetica,sans-serif; font-size:38px; text-anchor:start;" transform="rotate(0, 356.668, 1409.38)" x="356.668" y="1409.38">-</text>
</g>
<g clip-path="url(#clip0300)">
<text style="fill:#000000; fill-opacity:1; font-family:Arial,Helvetica Neue,Helvetica,sans-serif; font-size:38px; text-anchor:start;" transform="rotate(0, 379.508, 1409.38)" x="379.508" y="1409.38">3 </text>
</g>
<g clip-path="url(#clip0300)">
<text style="fill:#000000; fill-opacity:1; font-family:Arial,Helvetica Neue,Helvetica,sans-serif; font-size:48px; text-anchor:start;" transform="rotate(0, 656.921, 1436.79)" x="656.921" y="1436.79">10</text>
</g>
<g clip-path="url(#clip0300)">
<text style="fill:#000000; fill-opacity:1; font-family:Arial,Helvetica Neue,Helvetica,sans-serif; font-size:38px; text-anchor:start;" transform="rotate(0, 710.445, 1409.38)" x="710.445" y="1409.38">-</text>
</g>
<g clip-path="url(#clip0300)">
<text style="fill:#000000; fill-opacity:1; font-family:Arial,Helvetica Neue,Helvetica,sans-serif; font-size:38px; text-anchor:start;" transform="rotate(0, 733.285, 1409.38)" x="733.285" y="1409.38">2 </text>
</g>
<g clip-path="url(#clip0300)">
<text style="fill:#000000; fill-opacity:1; font-family:Arial,Helvetica Neue,Helvetica,sans-serif; font-size:48px; text-anchor:start;" transform="rotate(0, 1010.7, 1436.79)" x="1010.7" y="1436.79">10</text>
</g>
<g clip-path="url(#clip0300)">
<text style="fill:#000000; fill-opacity:1; font-family:Arial,Helvetica Neue,Helvetica,sans-serif; font-size:38px; text-anchor:start;" transform="rotate(0, 1064.22, 1409.38)" x="1064.22" y="1409.38">-</text>
</g>
<g clip-path="url(#clip0300)">
<text style="fill:#000000; fill-opacity:1; font-family:Arial,Helvetica Neue,Helvetica,sans-serif; font-size:38px; text-anchor:start;" transform="rotate(0, 1087.06, 1409.38)" x="1087.06" y="1409.38">1 </text>
</g>
<g clip-path="url(#clip0300)">
<text style="fill:#000000; fill-opacity:1; font-family:Arial,Helvetica Neue,Helvetica,sans-serif; font-size:48px; text-anchor:start;" transform="rotate(0, 1375.89, 1436.79)" x="1375.89" y="1436.79">10</text>
</g>
<g clip-path="url(#clip0300)">
<text style="fill:#000000; fill-opacity:1; font-family:Arial,Helvetica Neue,Helvetica,sans-serif; font-size:38px; text-anchor:start;" transform="rotate(0, 1429.42, 1409.38)" x="1429.42" y="1409.38">0 </text>
</g>
<g clip-path="url(#clip0300)">
<text style="fill:#000000; fill-opacity:1; font-family:Arial,Helvetica Neue,Helvetica,sans-serif; font-size:48px; text-anchor:start;" transform="rotate(0, 1729.67, 1436.79)" x="1729.67" y="1436.79">10</text>
</g>
<g clip-path="url(#clip0300)">
<text style="fill:#000000; fill-opacity:1; font-family:Arial,Helvetica Neue,Helvetica,sans-serif; font-size:38px; text-anchor:start;" transform="rotate(0, 1783.2, 1409.38)" x="1783.2" y="1409.38">1 </text>
</g>
<g clip-path="url(#clip0300)">
<text style="fill:#000000; fill-opacity:1; font-family:Arial,Helvetica Neue,Helvetica,sans-serif; font-size:48px; text-anchor:start;" transform="rotate(0, 2083.45, 1436.79)" x="2083.45" y="1436.79">10</text>
</g>
<g clip-path="url(#clip0300)">
<text style="fill:#000000; fill-opacity:1; font-family:Arial,Helvetica Neue,Helvetica,sans-serif; font-size:38px; text-anchor:start;" transform="rotate(0, 2136.97, 1409.38)" x="2136.97" y="1409.38">2 </text>
</g>
<g clip-path="url(#clip0300)">
<text style="fill:#000000; fill-opacity:1; font-family:Arial,Helvetica Neue,Helvetica,sans-serif; font-size:48px; text-anchor:start;" transform="rotate(0, 149.096, 1173.1)" x="149.096" y="1173.1">10</text>
</g>
<g clip-path="url(#clip0300)">
<text style="fill:#000000; fill-opacity:1; font-family:Arial,Helvetica Neue,Helvetica,sans-serif; font-size:38px; text-anchor:start;" transform="rotate(0, 202.62, 1145.69)" x="202.62" y="1145.69">1.6 </text>
</g>
<g clip-path="url(#clip0300)">
<text style="fill:#000000; fill-opacity:1; font-family:Arial,Helvetica Neue,Helvetica,sans-serif; font-size:48px; text-anchor:start;" transform="rotate(0, 149.096, 905.833)" x="149.096" y="905.833">10</text>
</g>
<g clip-path="url(#clip0300)">
<text style="fill:#000000; fill-opacity:1; font-family:Arial,Helvetica Neue,Helvetica,sans-serif; font-size:38px; text-anchor:start;" transform="rotate(0, 202.62, 878.422)" x="202.62" y="878.422">1.8 </text>
</g>
<g clip-path="url(#clip0300)">
<text style="fill:#000000; fill-opacity:1; font-family:Arial,Helvetica Neue,Helvetica,sans-serif; font-size:48px; text-anchor:start;" transform="rotate(0, 149.096, 638.565)" x="149.096" y="638.565">10</text>
</g>
<g clip-path="url(#clip0300)">
<text style="fill:#000000; fill-opacity:1; font-family:Arial,Helvetica Neue,Helvetica,sans-serif; font-size:38px; text-anchor:start;" transform="rotate(0, 202.62, 611.155)" x="202.62" y="611.155">2.0 </text>
</g>
<g clip-path="url(#clip0300)">
<text style="fill:#000000; fill-opacity:1; font-family:Arial,Helvetica Neue,Helvetica,sans-serif; font-size:48px; text-anchor:start;" transform="rotate(0, 149.096, 371.298)" x="149.096" y="371.298">10</text>
</g>
<g clip-path="url(#clip0300)">
<text style="fill:#000000; fill-opacity:1; font-family:Arial,Helvetica Neue,Helvetica,sans-serif; font-size:38px; text-anchor:start;" transform="rotate(0, 202.62, 343.887)" x="202.62" y="343.887">2.2 </text>
</g>
<g clip-path="url(#clip0300)">
<text style="fill:#000000; fill-opacity:1; font-family:Arial,Helvetica Neue,Helvetica,sans-serif; font-size:48px; text-anchor:start;" transform="rotate(0, 149.096, 104.03)" x="149.096" y="104.03">10</text>
</g>
<g clip-path="url(#clip0300)">
<text style="fill:#000000; fill-opacity:1; font-family:Arial,Helvetica Neue,Helvetica,sans-serif; font-size:38px; text-anchor:start;" transform="rotate(0, 202.62, 76.6198)" x="202.62" y="76.6198">2.4 </text>
</g>
<g clip-path="url(#clip0300)">
<text style="fill:#000000; fill-opacity:1; font-family:Arial,Helvetica Neue,Helvetica,sans-serif; font-size:66px; text-anchor:middle;" transform="rotate(0, 1273.82, 1495.16)" x="1273.82" y="1495.16">Error</text>
</g>
<g clip-path="url(#clip0300)">
<text style="fill:#000000; fill-opacity:1; font-family:Arial,Helvetica Neue,Helvetica,sans-serif; font-size:66px; text-anchor:middle;" transform="rotate(-90, 90.2461, 704.751)" x="90.2461" y="704.751">Time (s)</text>
</g>
<polyline clip-path="url(#clip0302)" style="stroke:#009af9; stroke-width:12; stroke-opacity:1; fill:none" points="
  2201.12,974.478 1910.86,754.381 1711.04,656.154 1529.55,438.051 
  "/>
<circle clip-path="url(#clip0302)" style="fill:#000000; stroke:none; fill-opacity:1" cx="2201.12" cy="974.478" r="18"/>
<circle clip-path="url(#clip0302)" style="fill:#009af9; stroke:none; fill-opacity:1" cx="2201.12" cy="974.478" r="14"/>
<circle clip-path="url(#clip0302)" style="fill:#000000; stroke:none; fill-opacity:1" cx="1910.86" cy="754.381" r="18"/>
<circle clip-path="url(#clip0302)" style="fill:#009af9; stroke:none; fill-opacity:1" cx="1910.86" cy="754.381" r="14"/>
<circle clip-path="url(#clip0302)" style="fill:#000000; stroke:none; fill-opacity:1" cx="1711.04" cy="656.154" r="18"/>
<circle clip-path="url(#clip0302)" style="fill:#009af9; stroke:none; fill-opacity:1" cx="1711.04" cy="656.154" r="14"/>
<circle clip-path="url(#clip0302)" style="fill:#000000; stroke:none; fill-opacity:1" cx="1529.55" cy="438.051" r="18"/>
<circle clip-path="url(#clip0302)" style="fill:#009af9; stroke:none; fill-opacity:1" cx="1529.55" cy="438.051" r="14"/>
<polyline clip-path="url(#clip0302)" style="stroke:#e26f46; stroke-width:12; stroke-opacity:1; fill:none" points="
  1953.72,451.147 1456.19,309.779 1382.19,174.81 1092.53,84.4615 
  "/>
<polygon clip-path="url(#clip0302)" style="fill:#000000; fill-opacity:1" points="
  1933.72,431.147 1933.72,471.147 1973.72,471.147 1973.72,431.147 1933.72,431.147 
  "/>
<polygon clip-path="url(#clip0302)" style="fill:#e26f46; fill-opacity:1" points="
  1937.72,435.147 1937.72,467.147 1969.72,467.147 1969.72,435.147 1937.72,435.147 
  "/>
<polygon clip-path="url(#clip0302)" style="fill:#000000; fill-opacity:1" points="
  1436.19,289.779 1436.19,329.779 1476.19,329.779 1476.19,289.779 1436.19,289.779 
  "/>
<polygon clip-path="url(#clip0302)" style="fill:#e26f46; fill-opacity:1" points="
  1440.19,293.779 1440.19,325.779 1472.19,325.779 1472.19,293.779 1440.19,293.779 
  "/>
<polygon clip-path="url(#clip0302)" style="fill:#000000; fill-opacity:1" points="
  1362.19,154.81 1362.19,194.81 1402.19,194.81 1402.19,154.81 1362.19,154.81 
  "/>
<polygon clip-path="url(#clip0302)" style="fill:#e26f46; fill-opacity:1" points="
  1366.19,158.81 1366.19,190.81 1398.19,190.81 1398.19,158.81 1366.19,158.81 
  "/>
<polygon clip-path="url(#clip0302)" style="fill:#000000; fill-opacity:1" points="
  1072.53,64.4615 1072.53,104.461 1112.53,104.461 1112.53,64.4615 1072.53,64.4615 
  "/>
<polygon clip-path="url(#clip0302)" style="fill:#e26f46; fill-opacity:1" points="
  1076.53,68.4615 1076.53,100.461 1108.53,100.461 1108.53,68.4615 1076.53,68.4615 
  "/>
<polyline clip-path="url(#clip0302)" style="stroke:#3da44d; stroke-width:12; stroke-opacity:1; fill:none" points="
  1417.88,1325.04 1050.78,1114.51 737.635,934.904 346.531,707.247 
  "/>
<polygon clip-path="url(#clip0302)" style="fill:#000000; fill-opacity:1" points="
  1417.88,1305.04 1413.18,1318.56 1398.86,1318.86 1410.28,1327.52 1406.12,1341.22 1417.88,1333.04 1429.64,1341.22 1425.48,1327.52 1436.9,1318.86 1422.58,1318.56 
  1417.88,1305.04 
  "/>
<polygon clip-path="url(#clip0302)" style="fill:#3da44d; fill-opacity:1" points="
  1417.88,1309.04 1414.12,1319.86 1402.66,1320.1 1411.8,1327.03 1408.47,1337.99 1417.88,1331.44 1427.29,1337.99 1423.96,1327.03 1433.1,1320.1 1421.64,1319.86 
  1417.88,1309.04 
  "/>
<polygon clip-path="url(#clip0302)" style="fill:#000000; fill-opacity:1" points="
  1050.78,1094.51 1046.08,1108.03 1031.76,1108.33 1043.18,1116.99 1039.02,1130.69 1050.78,1122.51 1062.54,1130.69 1058.38,1116.99 1069.8,1108.33 1055.48,1108.03 
  1050.78,1094.51 
  "/>
<polygon clip-path="url(#clip0302)" style="fill:#3da44d; fill-opacity:1" points="
  1050.78,1098.51 1047.02,1109.32 1035.57,1109.56 1044.7,1116.49 1041.37,1127.45 1050.78,1120.91 1060.19,1127.45 1056.86,1116.49 1066,1109.56 1054.54,1109.32 
  1050.78,1098.51 
  "/>
<polygon clip-path="url(#clip0302)" style="fill:#000000; fill-opacity:1" points="
  737.635,914.904 732.935,928.424 718.615,928.724 730.035,937.384 725.875,951.084 737.635,942.904 749.395,951.084 745.235,937.384 756.655,928.724 742.335,928.424 
  737.635,914.904 
  "/>
<polygon clip-path="url(#clip0302)" style="fill:#3da44d; fill-opacity:1" points="
  737.635,918.904 733.875,929.72 722.419,929.96 731.555,936.888 728.227,947.848 737.635,941.304 747.043,947.848 743.715,936.888 752.851,929.96 741.395,929.72 
  737.635,918.904 
  "/>
<polygon clip-path="url(#clip0302)" style="fill:#000000; fill-opacity:1" points="
  346.531,687.247 341.831,700.767 327.511,701.067 338.931,709.727 334.771,723.427 346.531,715.247 358.291,723.427 354.131,709.727 365.551,701.067 351.231,700.767 
  346.531,687.247 
  "/>
<polygon clip-path="url(#clip0302)" style="fill:#3da44d; fill-opacity:1" points="
  346.531,691.247 342.771,702.063 331.315,702.303 340.451,709.231 337.123,720.191 346.531,713.647 355.939,720.191 352.611,709.231 361.747,702.303 350.291,702.063 
  346.531,691.247 
  "/>
<path clip-path="url(#clip0300)" d="
M1663.04 366.924 L2187.64 366.924 L2187.64 125.004 L1663.04 125.004  Z
  " fill="#ffffff" fill-rule="evenodd" fill-opacity="1"/>
<polyline clip-path="url(#clip0300)" style="stroke:#000000; stroke-width:4; stroke-opacity:1; fill:none" points="
  1663.04,366.924 2187.64,366.924 2187.64,125.004 1663.04,125.004 1663.04,366.924 
  "/>
<polyline clip-path="url(#clip0300)" style="stroke:#009af9; stroke-width:12; stroke-opacity:1; fill:none" points="
  1686.08,185.484 1824.32,185.484 
  "/>
<circle clip-path="url(#clip0300)" style="fill:#000000; stroke:none; fill-opacity:1" cx="1766.72" cy="185.484" r="25"/>
<circle clip-path="url(#clip0300)" style="fill:#009af9; stroke:none; fill-opacity:1" cx="1766.72" cy="185.484" r="21"/>
<g clip-path="url(#clip0300)">
<text style="fill:#000000; fill-opacity:1; font-family:Arial,Helvetica Neue,Helvetica,sans-serif; font-size:48px; text-anchor:start;" transform="rotate(0, 1847.36, 202.984)" x="1847.36" y="202.984">TRBDF2</text>
</g>
<polyline clip-path="url(#clip0300)" style="stroke:#e26f46; stroke-width:12; stroke-opacity:1; fill:none" points="
  1686.08,245.964 1824.32,245.964 
  "/>
<polygon clip-path="url(#clip0300)" style="fill:#000000; fill-opacity:1" points="
  1738.72,217.964 1738.72,273.964 1794.72,273.964 1794.72,217.964 1738.72,217.964 
  "/>
<polygon clip-path="url(#clip0300)" style="fill:#e26f46; fill-opacity:1" points="
  1742.72,221.964 1742.72,269.964 1790.72,269.964 1790.72,221.964 1742.72,221.964 
  "/>
<g clip-path="url(#clip0300)">
<text style="fill:#000000; fill-opacity:1; font-family:Arial,Helvetica Neue,Helvetica,sans-serif; font-size:48px; text-anchor:start;" transform="rotate(0, 1847.36, 263.464)" x="1847.36" y="263.464">CVODE_BDF</text>
</g>
<polyline clip-path="url(#clip0300)" style="stroke:#3da44d; stroke-width:12; stroke-opacity:1; fill:none" points="
  1686.08,306.444 1824.32,306.444 
  "/>
<polygon clip-path="url(#clip0300)" style="fill:#000000; fill-opacity:1" points="
  1766.72,278.444 1760.14,297.372 1740.09,297.792 1756.08,309.916 1750.26,329.096 1766.72,317.644 1783.19,329.096 1777.36,309.916 1793.35,297.792 1773.3,297.372 
  1766.72,278.444 
  "/>
<polygon clip-path="url(#clip0300)" style="fill:#3da44d; fill-opacity:1" points="
  1766.72,282.444 1761.08,298.668 1743.9,299.028 1757.6,309.42 1752.61,325.86 1766.72,316.044 1780.83,325.86 1775.84,309.42 1789.55,299.028 1772.36,298.668 
  1766.72,282.444 
  "/>
<g clip-path="url(#clip0300)">
<text style="fill:#000000; fill-opacity:1; font-family:Arial,Helvetica Neue,Helvetica,sans-serif; font-size:48px; text-anchor:start;" transform="rotate(0, 1847.36, 323.944)" x="1847.36" y="323.944">KenCarp4</text>
</g>
</svg>
